<svg width="1920" height="1080" viewBox="0 0 1920 1080" fill="none" xmlns="http://www.w3.org/2000/svg">
<rect x="695" y="394" width="529" height="292" rx="146" fill="#4F46E5"/>
<path d="M848.832 595V485.182H890.013C898.45 485.182 905.528 486.755 911.248 489.901C917.003 493.046 921.347 497.372 924.278 502.877C927.245 508.347 928.729 514.567 928.729 521.538C928.729 528.58 927.245 534.836 924.278 540.305C921.311 545.775 916.932 550.083 911.141 553.228C905.349 556.338 898.218 557.893 889.745 557.893H862.452V541.539H887.064C891.998 541.539 896.037 540.681 899.183 538.965C902.329 537.249 904.652 534.89 906.154 531.887C907.691 528.884 908.46 525.434 908.46 521.538C908.46 517.641 907.691 514.209 906.154 511.242C904.652 508.275 902.311 505.969 899.129 504.325C895.983 502.645 891.926 501.805 886.957 501.805H868.725V595H848.832ZM945.15 595V512.636H963.972V526.364H964.83C966.331 521.609 968.905 517.945 972.551 515.371C976.233 512.761 980.434 511.457 985.153 511.457C986.225 511.457 987.423 511.51 988.745 511.618C990.104 511.689 991.23 511.814 992.123 511.993V529.849C991.301 529.563 989.996 529.313 988.209 529.098C986.457 528.848 984.759 528.723 983.115 528.723C979.576 528.723 976.394 529.492 973.57 531.029C970.782 532.53 968.583 534.621 966.975 537.303C965.366 539.984 964.562 543.076 964.562 546.579V595H945.15ZM1037.55 596.609C1029.51 596.609 1022.54 594.839 1016.64 591.3C1010.74 587.761 1006.17 582.81 1002.91 576.447C999.698 570.084 998.089 562.648 998.089 554.14C998.089 545.632 999.698 538.178 1002.91 531.779C1006.17 525.381 1010.74 520.412 1016.64 516.873C1022.54 513.333 1029.51 511.564 1037.55 511.564C1045.6 511.564 1052.57 513.333 1058.47 516.873C1064.37 520.412 1068.92 525.381 1072.14 531.779C1075.39 538.178 1077.02 545.632 1077.02 554.14C1077.02 562.648 1075.39 570.084 1072.14 576.447C1068.92 582.81 1064.37 587.761 1058.47 591.3C1052.57 594.839 1045.6 596.609 1037.55 596.609ZM1037.66 581.058C1042.02 581.058 1045.67 579.861 1048.6 577.466C1051.53 575.035 1053.71 571.782 1055.14 567.706C1056.61 563.631 1057.34 559.091 1057.34 554.086C1057.34 549.046 1056.61 544.488 1055.14 540.413C1053.71 536.302 1051.53 533.031 1048.6 530.6C1045.67 528.169 1042.02 526.953 1037.66 526.953C1033.19 526.953 1029.48 528.169 1026.51 530.6C1023.58 533.031 1021.38 536.302 1019.91 540.413C1018.48 544.488 1017.77 549.046 1017.77 554.086C1017.77 559.091 1018.48 563.631 1019.91 567.706C1021.38 571.782 1023.58 575.035 1026.51 577.466C1029.48 579.861 1033.19 581.058 1037.66 581.058Z" fill="white"/>
</svg>
