<?xml version="1.0" encoding="UTF-8" standalone="yes"?>
<svg width="400" height="400" fill="none" viewBox="0 0 400 400" version="1.2" baseProfile="tiny-ps" xmlns="http://www.w3.org/2000/svg">
  <title>bimi-svg-tiny-12-ps</title>
  <g>
    <path fill="#fff" d="M0 0h400v400H0z"/>
    <path fill="#4F46E5" fill-rule="evenodd" d="M108.232 89C97.614 89 89 97.633 89 108.302v183.396C89 302.354 97.602 311 108.232 311h182.732c10.618 0 19.232-8.633 19.232-19.302V108.302c0-10.656-8.602-19.302-19.232-19.302H108.232Zm181.86 50.443H109.104v151.38h180.988v-151.38Zm-27.982-21.484a9.68 9.68 0 0 1-2.691 7.05 9.615 9.615 0 0 1-6.925 2.952 9.595 9.595 0 0 1-6.924-2.952 9.675 9.675 0 0 1-2.691-7.05 9.676 9.676 0 0 1 2.934-6.605 9.604 9.604 0 0 1 6.681-2.707c2.493 0 4.888.97 6.682 2.707a9.676 9.676 0 0 1 2.934 6.605Zm-125.024 9.644a9.607 9.607 0 0 0 7.024-2.701 9.66 9.66 0 0 0 2.941-6.949 9.66 9.66 0 0 0-2.941-6.95 9.607 9.607 0 0 0-7.024-2.701 9.606 9.606 0 0 0-6.581 2.945 9.674 9.674 0 0 0-2.698 6.706c0 2.501.967 4.905 2.698 6.705a9.606 9.606 0 0 0 6.581 2.945Zm13.026 90.28a4.828 4.828 0 0 1-1.042-5.255 4.799 4.799 0 0 1 1.042-1.565l6.795-6.82a4.798 4.798 0 0 1 6.796 0l24.258 24.333 53.099-53.292a4.798 4.798 0 0 1 5.237-1.046 4.822 4.822 0 0 1 1.559 1.046l6.807 6.82a4.842 4.842 0 0 1 0 6.833l-63.274 63.48a4.793 4.793 0 0 1-6.796 0l-34.481-34.534Z"/>
  </g>
  <defs/>
</svg>