<svg xmlns="http://www.w3.org/2000/svg" fill="currentColor" viewBox="0 0 97 18">
  <path fill-rule="evenodd" d="M1.565 0C.701 0 0 .7 0 1.565v14.87C0 17.299.7 18 1.565 18h14.87c.864 0 1.565-.7 1.565-1.565V1.565C18 .701 17.3 0 16.435 0H1.565zm14.799 4.09H1.636v12.274h14.728V4.09zm-2.277-1.742a.783.783 0 11-1.565 0 .783.783 0 011.565 0zM3.913 3.13a.783.783 0 100-1.565.783.783 0 000 1.565zm1.06 7.32a.391.391 0 010-.553l.553-.553a.391.391 0 01.553 0l1.974 1.973 4.321-4.321a.391.391 0 01.553 0l.554.553c.153.153.153.401 0 .554L8.332 13.25a.391.391 0 01-.553 0l-2.806-2.8zm27.246-7.825h-4.133V14h2.148V9.703h2.053L34.507 14h2.306v-.11l-2.51-4.702c.325-.142.617-.314.877-.516.38-.292.674-.654.883-1.086.208-.432.312-.943.312-1.531 0-.745-.167-1.373-.5-1.883-.333-.51-.81-.896-1.43-1.156-.62-.26-1.362-.391-2.226-.391zm-1.985 5.383h2.008c.443 0 .81-.078 1.102-.235.291-.156.51-.372.656-.648.151-.276.227-.591.227-.945 0-.38-.073-.709-.22-.985a1.482 1.482 0 00-.663-.648c-.297-.151-.672-.227-1.125-.227h-1.985v3.688zM45.97 2.625h.531L50.773 14h-2.28l-.855-2.531H43.39L42.54 14h-2.274l4.25-11.375h1.453zm-2.01 7.148h3.106l-1.556-4.61-1.55 4.61zm18.205 2.54V14h-7.219V2.625h2.149v9.688h5.07zM73.82 14v-1.688h-5.07V2.626h-2.148V14h7.218zm11.657-1.688V14H78.257V2.625h2.15v9.688h5.07zM91.71 7.93l-2.5-5.305h-2.375l3.789 7.21V14h2.18V9.836l3.78-7.211h-2.358L91.71 7.93z" clip-rule="evenodd" />
</svg>