<svg xmlns="http://www.w3.org/2000/svg" fill="currentColor" viewBox="0 0 16 16">
  <path fill-rule="evenodd" d="M3.433 2.099a1 1 0 0 1 .468 1.334C2.986 5.34 2.57 6.704 2.561 8.007c-.008 1.298.387 2.655 1.333 4.546a1 1 0 0 1-1.788.895C1.095 11.428.55 9.742.56 7.994c.012-1.74.575-3.422 1.538-5.427A1 1 0 0 1 3.433 2.1Zm8.274 3.194a1 1 0 0 1 0 1.414l-4 4a1 1 0 0 1-1.414 0l-2-2a1 1 0 0 1 1.414-1.414L7 8.586l3.293-3.293a1 1 0 0 1 1.414 0Zm.392-1.86a1 1 0 1 1 1.803-.866c.963 2.005 1.526 3.686 1.537 5.427.011 1.748-.533 3.434-1.545 5.454a1 1 0 0 1-1.788-.896c.947-1.89 1.341-3.247 1.333-4.545-.008-1.303-.424-2.667-1.34-4.574Z" clip-rule="evenodd" />
</svg>