<svg viewBox="0 0 137 31" fill="none" xmlns="http://www.w3.org/2000/svg">
  <path d="M19.7372 1.5408C19.4539 1.0707 19.054 0.681799 18.5761 0.411832C18.0983 0.141866 17.5588 0 17.0099 0C16.4611 0 15.9216 0.141866 15.4437 0.411832C14.9659 0.681799 14.5659 1.0707 14.2826 1.5408L9.79628 9.22489C13.2237 10.936 16.1439 13.514 18.2669 16.7027C20.3899 19.8914 21.6419 23.58 21.8986 27.4022H18.7486C18.4924 24.1258 17.3851 20.9732 15.5363 18.2562C13.6875 15.5392 11.1613 13.3521 8.20765 11.9113L4.05538 19.0908C5.71583 19.8355 7.1624 20.9857 8.26208 22.4356C9.36176 23.8856 10.0792 25.5888 10.3486 27.3885H3.11447C3.02867 27.3825 2.94574 27.3551 2.87314 27.309C2.80055 27.2629 2.74058 27.1994 2.69863 27.1243C2.65669 27.0492 2.6341 26.9649 2.6329 26.8789C2.63169 26.7929 2.65192 26.7079 2.69174 26.6317L4.69628 23.2226C4.01715 22.656 3.24098 22.2171 2.40538 21.9272L0.421285 25.3362C0.214731 25.6905 0.0806376 26.0823 0.0267946 26.4889C-0.0270484 26.8955 0.000432298 27.3087 0.10764 27.7045C0.214848 28.1004 0.399646 28.4709 0.651299 28.7948C0.902951 29.1186 1.21644 29.3892 1.57356 29.5908C2.04408 29.8559 2.57441 29.9967 3.11447 29.9999H13.0213C13.2053 27.7295 12.7998 25.45 11.8442 23.3823C10.8886 21.3146 9.41521 19.5287 7.56674 18.1976L9.14174 15.4703C11.4745 17.0726 13.3492 19.2554 14.5808 21.8034C15.8123 24.3514 16.3582 27.1765 16.1645 29.9999H24.5576C24.7531 25.7228 23.8226 21.4694 21.8592 17.6646C19.8958 13.8598 16.9682 10.6369 13.369 8.31807L16.5531 2.86352C16.6241 2.74465 16.7391 2.6586 16.8732 2.62413C17.0072 2.58965 17.1495 2.60953 17.269 2.67943C17.6304 2.87716 31.1031 26.3862 31.3554 26.659C31.3998 26.7387 31.4224 26.8287 31.4209 26.9199C31.4194 27.0111 31.3939 27.1004 31.3468 27.1785C31.2998 27.2567 31.2329 27.3211 31.153 27.3652C31.0731 27.4092 30.983 27.4314 30.8917 27.4294H27.6463C27.6872 28.2976 27.6872 29.1635 27.6463 30.0272H30.9054C31.3192 30.0299 31.7295 29.9505 32.1124 29.7936C32.4954 29.6366 32.8434 29.4053 33.1364 29.113C33.4293 28.8207 33.6614 28.4732 33.8192 28.0905C33.9769 27.7079 34.0572 27.2978 34.0554 26.884C34.0558 26.3373 33.9098 25.8006 33.6326 25.3294L19.7372 1.5408ZM84.7281 19.2817L74.6645 6.28625H72.1554V23.7067H74.6986V10.3567L85.0486 23.7067H87.2713V6.28625H84.7281V19.2817ZM59.3849 16.0499H68.4054V13.7863H59.3781V8.54307H69.5576V6.27943H56.7872V23.7067H69.6872V21.4431H59.3781L59.3849 16.0499ZM48.7758 13.8408C45.2645 12.9953 44.2826 12.3272 44.2826 10.7044C44.2826 9.24534 45.5713 8.25671 47.494 8.25671C49.245 8.30799 50.9339 8.91712 52.3145 9.99534L53.6781 8.0658C51.9303 6.69567 49.762 5.97292 47.5417 6.02034C44.0917 6.02034 41.6849 8.0658 41.6849 10.9772C41.6849 14.1135 43.7304 15.1976 47.4531 16.1044C50.7667 16.8681 51.7826 17.5772 51.7826 19.1658C51.7826 20.7544 50.419 21.7362 48.3122 21.7362C46.2147 21.7266 44.1965 20.9339 42.6531 19.5135L41.119 21.3476C43.0958 23.0462 45.6172 23.9778 48.2236 23.9726C51.9599 23.9726 54.3599 21.9613 54.3599 18.8522C54.3395 16.2203 52.7849 14.809 48.7758 13.8408ZM133.396 6.28625L128.153 14.4681L122.944 6.28625H119.903L126.783 16.8203V23.7135H129.401V16.7385L136.328 6.28625H133.396ZM89.3304 8.64534H95.0372V23.7135H97.6554V8.64534H103.362V6.28625H89.3372L89.3304 8.64534ZM115.471 16.909C118.103 16.1794 119.562 14.3385 119.562 11.7067C119.562 8.35898 117.114 6.25216 113.167 6.25216H105.421V23.6999H108.012V17.4408H112.41L116.828 23.7135H119.855L115.083 17.0181L115.471 16.909ZM108.005 15.2044V8.5908H112.894C115.444 8.5908 116.903 9.79761 116.903 11.8908C116.903 13.984 115.342 15.2044 112.921 15.2044H108.005Z" fill="#362D59" />
</svg>