<svg width="183" height="65" viewBox="0 0 183 65" fill="none" xmlns="http://www.w3.org/2000/svg">
<path d="M101.291 56.6416C108.037 56.6416 110.074 55.6234 113.765 51.0413V51.0413C113.765 53.7125 115.93 55.878 118.601 55.878H123.438V15.2755H113.256V37.9314C113.256 44.55 109.819 48.3684 104.473 48.3684C99.5092 48.3684 97.6 45.5683 97.6 40.0952V15.2755H87.4176V42.1317C87.5449 51.9323 92.127 56.6416 101.291 56.6416Z" fill="white"/>
<path d="M164.157 14.5139L157.591 14.5137L154.26 22.7713C154.26 22.7713 172.044 20.8298 172.044 27.4485V28.3394C171.916 30.2486 170.644 31.2669 166.825 31.5214L159.825 32.2851C149.642 33.0488 145.824 38.0127 145.824 44.2495C145.824 51.759 150.915 56.5957 160.461 56.5957C167.08 56.5957 169.88 55.832 172.044 51.759C172.171 51.6318 172.298 51.3772 172.425 51.1226V51.1226C172.425 53.7235 174.534 55.832 177.135 55.832H182.099V29.2304C182.226 20.9572 176.631 14.6412 164.157 14.5139ZM172.044 38.7764C172.044 44.6313 168.48 49.468 162.243 49.468C157.025 49.468 154.733 47.0497 154.733 43.3585C154.733 40.4311 156.77 38.2673 161.861 37.8855L166.698 37.5036C169.498 37.2491 171.28 36.7399 172.044 35.9763V38.7764Z" fill="white"/>
<path d="M152.712 14.514H150.246C144.646 14.514 140.516 17.4332 138.862 22.0153V15.2695H129.188V47.4911C129.188 52.1197 132.941 55.8719 137.569 55.8719H139.371V33.9797C139.371 25.4464 143.317 22.779 149.393 22.779L152.712 14.514Z" fill="white"/>
<path d="M16.513 64.5708L28.1236 32.0045C18.3537 33.2789 9.43337 37.385 1.92896 43.6151C3.76966 52.2523 9.15018 59.6151 16.513 64.5708Z" fill="white"/>
<path d="M53.7529 64.5708C61.2574 59.8983 66.6379 52.3939 68.6202 43.6151C61.1158 37.1018 52.1954 32.9957 42.4255 32.0045L53.7529 64.5708Z" fill="white"/>
<path d="M69.7526 36.9601V35.4026C69.7526 16.0044 54.319 0.570801 35.3456 0.570801C16.3722 0.570801 0.655396 16.0044 0.655396 35.4026V36.9601C10.7085 29.4557 22.7439 25.3495 35.3456 25.3495C47.6642 25.3495 59.6995 29.4557 69.7526 36.9601Z" fill="white"/>
</svg>
