<svg width="183" height="65" viewBox="0 0 183 65" fill="none" xmlns="http://www.w3.org/2000/svg">
<path d="M101.361 56.6416C108.107 56.6416 110.143 55.6234 113.834 51.0413V51.0413C113.834 53.7125 116 55.878 118.671 55.878H123.508V15.2755H113.325V37.9314C113.325 44.55 109.889 48.3684 104.543 48.3684C99.5789 48.3684 97.6697 45.5683 97.6697 40.0952V15.2755H87.4873V42.1317C87.6146 51.9323 92.1967 56.6416 101.361 56.6416Z" fill="#1F78D1"/>
<path d="M164.227 14.5139L157.66 14.5137L154.329 22.7713C154.329 22.7713 172.113 20.8298 172.113 27.4485V28.3394C171.986 30.2486 170.713 31.2669 166.895 31.5214L159.894 32.2851C149.712 33.0488 145.894 38.0127 145.894 44.2495C145.894 51.759 150.985 56.5957 160.531 56.5957C167.149 56.5957 169.95 55.832 172.113 51.759C172.241 51.6318 172.368 51.3772 172.495 51.1226V51.1226C172.495 53.7235 174.604 55.832 177.205 55.832H182.168V29.2304C182.296 20.9572 176.701 14.6412 164.227 14.5139ZM172.113 38.7764C172.113 44.6313 168.549 49.468 162.313 49.468C157.094 49.468 154.803 47.0497 154.803 43.3585C154.803 40.4311 156.84 38.2673 161.931 37.8855L166.768 37.5036C169.568 37.2491 171.35 36.7399 172.113 35.9763V38.7764Z" fill="#1F78D1"/>
<path d="M152.782 14.514H150.316C144.716 14.514 140.586 17.4332 138.931 22.0153V15.2695H129.258V47.4911C129.258 52.1197 133.01 55.8719 137.639 55.8719H139.441V33.9797C139.441 25.4464 143.387 22.779 149.463 22.779L152.782 14.514Z" fill="#1F78D1"/>
<path d="M16.5827 64.5708L28.1933 32.0045C18.4234 33.2789 9.50307 37.385 1.99866 43.6151C3.83936 52.2523 9.21988 59.6151 16.5827 64.5708Z" fill="#1F78D1"/>
<path d="M53.8227 64.5708C61.3271 59.8983 66.7076 52.3939 68.6899 43.6151C61.1855 37.1018 52.2651 32.9957 42.4952 32.0045L53.8227 64.5708Z" fill="#1F78D1"/>
<path d="M69.8223 36.9601V35.4026C69.8223 16.0044 54.3887 0.570801 35.4153 0.570801C16.4419 0.570801 0.725098 16.0044 0.725098 35.4026V36.9601C10.7782 29.4557 22.8136 25.3495 35.4153 25.3495C47.7339 25.3495 59.7692 29.4557 69.8223 36.9601Z" fill="#1F78D1"/>
</svg>
