<svg viewBox="0 0 20 20" fill="none" xmlns="http://www.w3.org/2000/svg">
  <path fill-rule="evenodd" clip-rule="evenodd"
    d="M10 18C12.1217 18 14.1566 17.1571 15.6569 15.6569C17.1571 14.1566 18 12.1217 18 10C18 7.87827 17.1571 5.84344 15.6569 4.34315C14.1566 2.84285 12.1217 2 10 2C7.87827 2 5.84344 2.84285 4.34315 4.34315C2.84285 5.84344 2 7.87827 2 10C2 12.1217 2.84285 14.1566 4.34315 15.6569C5.84344 17.1571 7.87827 18 10 18ZM13.106 10.447C12.796 9.827 12.52 9.433 12.293 9.207C12.116 9.03 12.02 9.004 12 9C11.98 9.004 11.884 9.03 11.707 9.207C11.481 9.433 11.204 9.827 10.895 10.447C10.538 11.161 10.148 11.767 9.707 12.207C9.265 12.65 8.692 13 8 13C7.308 13 6.735 12.65 6.293 12.207C5.853 11.767 5.463 11.161 5.106 10.447C5.04609 10.3294 5.01004 10.2011 4.99995 10.0695C4.98985 9.93793 5.0059 9.80564 5.04718 9.68029C5.08845 9.55493 5.15413 9.43898 5.24043 9.33913C5.32673 9.23928 5.43194 9.1575 5.55 9.0985C5.66806 9.0395 5.79663 9.00446 5.92829 8.99539C6.05996 8.98632 6.19212 9.0034 6.31715 9.04566C6.44218 9.08791 6.55761 9.15449 6.65679 9.24156C6.75597 9.32864 6.83693 9.43449 6.895 9.553C7.205 10.173 7.481 10.566 7.707 10.793C7.884 10.97 7.98 10.997 8 11C8.02 10.996 8.116 10.97 8.293 10.793C8.519 10.567 8.796 10.173 9.106 9.553C9.463 8.839 9.853 8.233 10.293 7.793C10.735 7.35 11.308 7 12 7C12.692 7 13.265 7.35 13.707 7.793C14.147 8.233 14.537 8.839 14.895 9.553C14.9537 9.67053 14.9887 9.79848 14.9979 9.92953C15.0072 10.0606 14.9905 10.1922 14.9489 10.3168C14.9073 10.4414 14.8416 10.5566 14.7555 10.6558C14.6694 10.755 14.5645 10.8363 14.447 10.895C14.3295 10.9537 14.2015 10.9887 14.0705 10.9979C13.9394 11.0072 13.8078 10.9905 13.6832 10.9489C13.5586 10.9073 13.4434 10.8416 13.3442 10.7555C13.245 10.6694 13.1637 10.5645 13.105 10.447H13.106ZM11.996 9H12H11.998H11.996Z"
    fill="#FFB900" />
</svg>