<svg viewBox="0 0 20 20" fill="none" xmlns="http://www.w3.org/2000/svg">
  <path fill-rule="evenodd" clip-rule="evenodd"
    d="M10 18C12.1217 18 14.1566 17.1571 15.6569 15.6569C17.1571 14.1566 18 12.1217 18 10C18 7.87827 17.1571 5.84344 15.6569 4.34315C14.1566 2.84285 12.1217 2 10 2C7.87827 2 5.84344 2.84285 4.34315 4.34315C2.84285 5.84344 2 7.87827 2 10C2 12.1217 2.84285 14.1566 4.34315 15.6569C5.84344 17.1571 7.87827 18 10 18ZM8.707 7.293C8.5184 7.11084 8.2658 7.01005 8.0036 7.01233C7.7414 7.0146 7.49059 7.11977 7.30518 7.30518C7.11977 7.49059 7.0146 7.7414 7.01233 8.0036C7.01005 8.2658 7.11084 8.5184 7.293 8.707L8.586 10L7.293 11.293C7.19749 11.3852 7.12131 11.4956 7.0689 11.6176C7.01649 11.7396 6.9889 11.8708 6.98775 12.0036C6.9866 12.1364 7.0119 12.2681 7.06218 12.391C7.11246 12.5139 7.18671 12.6255 7.2806 12.7194C7.3745 12.8133 7.48615 12.8875 7.60905 12.9378C7.73194 12.9881 7.86362 13.0134 7.9964 13.0123C8.12918 13.0111 8.2604 12.9835 8.3824 12.9311C8.50441 12.8787 8.61475 12.8025 8.707 12.707L10 11.414L11.293 12.707C11.4816 12.8892 11.7342 12.99 11.9964 12.9877C12.2586 12.9854 12.5094 12.8802 12.6948 12.6948C12.8802 12.5094 12.9854 12.2586 12.9877 11.9964C12.99 11.7342 12.8892 11.4816 12.707 11.293L11.414 10L12.707 8.707C12.8892 8.5184 12.99 8.2658 12.9877 8.0036C12.9854 7.7414 12.8802 7.49059 12.6948 7.30518C12.5094 7.11977 12.2586 7.0146 11.9964 7.01233C11.7342 7.01005 11.4816 7.11084 11.293 7.293L10 8.586L8.707 7.293Z"
    fill="#99A1AF" />
</svg>