<svg viewBox="0 0 16 16" fill="none" xmlns="http://www.w3.org/2000/svg">
  <path
    d="M4 5.313C4 4.811 4.163 4.303 4.488 3.791C4.813 3.273 5.288 2.845 5.912 2.507C6.536 2.17 7.264 2 8.096 2C8.869 2 9.552 2.143 10.144 2.428C10.736 2.708 11.192 3.091 11.512 3.578C11.837 4.063 12 4.592 12 5.162C12 5.612 11.907 6.005 11.72 6.343C11.539 6.682 11.32 6.975 11.064 7.223C10.814 7.466 10.36 7.878 9.704 8.46C9.54953 8.59724 9.40265 8.74279 9.264 8.896C9.094 9.08223 8.96821 9.30441 8.896 9.546C8.869 9.646 8.826 9.826 8.768 10.085C8.667 10.635 8.349 10.909 7.816 10.909C7.55494 10.9152 7.30198 10.8182 7.112 10.639C6.925 10.459 6.832 10.193 6.832 9.839C6.832 9.395 6.902 9.012 7.04 8.689C7.179 8.362 7.363 8.077 7.592 7.834C7.822 7.585 8.131 7.292 8.52 6.954C8.861 6.658 9.107 6.436 9.256 6.288C9.40788 6.13849 9.53723 5.96771 9.64 5.781C9.747 5.596 9.8 5.395 9.8 5.178C9.8 4.756 9.64 4.398 9.32 4.108C9.005 3.818 8.597 3.672 8.096 3.672C7.509 3.672 7.077 3.82 6.8 4.116C6.523 4.406 6.288 4.838 6.096 5.408C5.915 6.005 5.571 6.304 5.064 6.304C4.92292 6.30659 4.78278 6.28044 4.65212 6.22715C4.52147 6.17385 4.40302 6.09453 4.304 5.994C4.101 5.785 4 5.557 4 5.315V5.313ZM7.904 14C7.59047 14.0041 7.28618 13.8939 7.048 13.69C6.808 13.48 6.688 13.186 6.688 12.811C6.688 12.478 6.805 12.198 7.04 11.971C7.275 11.744 7.563 11.631 7.904 11.631C8.24 11.631 8.523 11.744 8.752 11.971C8.982 12.198 9.096 12.478 9.096 12.811C9.096 13.181 8.976 13.471 8.736 13.683C8.496 13.894 8.219 14 7.904 14Z"
    fill="#D1D5DC" />
</svg>