<svg xmlns="http://www.w3.org/2000/svg" fill="currentColor" viewBox="0 0 20 20">
  <path fill-rule="evenodd" d="M10 0a10 10 0 110 20 10 10 0 010-20zm4.905 3.68A8 8 0 003.68 14.906l3.296-3.296-.007-.022H5.531l-.253.835H4L5.44 8.06h1.62l.86 2.606.64-.64V8.06h1.662c.1 0 .197.004.291.013l4.393-4.393zm-4.908 7.738l1.222-1.223v.046c0 .305-.04.542-.121.712a.703.703 0 01-.35.36 1.32 1.32 0 01-.551.105h-.2zM8.99 12.423h1.248c.443 0 .828-.086 1.153-.26.325-.174.577-.424.754-.75.178-.326.266-.717.266-1.171 0-.395-.067-.74-.202-1.038l4.11-4.11A8 8 0 015.095 16.32l3.896-3.897zm5.802-3.332a.46.46 0 01.16.332h1.134a1.34 1.34 0 00-.214-.748 1.367 1.367 0 00-.594-.498A2.177 2.177 0 0014.365 8c-.345 0-.651.058-.918.175-.266.116-.474.279-.625.488a1.2 1.2 0 00-.221.726c-.002.341.108.61.33.808.223.196.528.336.914.42l.435.093c.162.036.29.074.385.115.096.04.164.086.205.137a.27.27 0 01.066.174.307.307 0 01-.068.19.43.43 0 01-.194.13.931.931 0 01-.318.047.985.985 0 01-.39-.07.558.558 0 01-.251-.207.668.668 0 01-.1-.337H12.49c.001.365.08.665.234.9.156.232.375.405.656.517.283.112.614.168.993.168.37 0 .686-.051.949-.155.264-.104.467-.255.609-.454.142-.199.214-.442.215-.729a1.337 1.337 0 00-.08-.46 1.055 1.055 0 00-.242-.38 1.475 1.475 0 00-.421-.295 2.691 2.691 0 00-.62-.203l-.358-.076a1.988 1.988 0 01-.269-.073.836.836 0 01-.185-.09.345.345 0 01-.107-.112.278.278 0 01-.028-.143.289.289 0 01.058-.17.361.361 0 01.17-.118.854.854 0 01.3-.044c.193 0 .335.04.43.119zm-8.526.17l.435 1.44h-.904l.435-1.44h.034z" clip-rule="evenodd" />
</svg>