<svg xmlns="http://www.w3.org/2000/svg" fill="currentColor" viewBox="0 0 24 24">
  <path d="M20.317 4.537a19.596 19.596 0 0 0-4.885-1.536.074.074 0 0 0-.079.038c-.21.38-.444.877-.608 1.267-1.845-.28-3.68-.28-5.487 0a12.891 12.891 0 0 0-.617-1.267A.077.077 0 0 0 8.562 3c-1.714.3-3.354.824-4.885 1.536a.07.07 0 0 0-.032.028C.533 9.278-.32 13.875.099 18.414a.084.084 0 0 0 .031.057 19.797 19.797 0 0 0 5.993 3.071.077.077 0 0 0 .084-.028c.462-.639.874-1.313 1.226-2.022a.078.078 0 0 0-.041-.107 13.021 13.021 0 0 1-1.872-.904.079.079 0 0 1-.008-.13c.126-.095.252-.195.372-.295a.073.073 0 0 1 .078-.01c3.927 1.817 8.18 1.817 12.061 0a.073.073 0 0 1 .079.009c.12.1.245.2.372.296a.079.079 0 0 1-.006.13 12.23 12.23 0 0 1-1.873.903.078.078 0 0 0-.041.108c.36.708.772 1.382 1.225 2.021a.076.076 0 0 0 .084.03 19.731 19.731 0 0 0 6.002-3.072.078.078 0 0 0 .032-.056c.5-5.248-.838-9.807-3.549-13.849a.061.061 0 0 0-.031-.029ZM8.02 15.65c-1.182 0-2.157-1.1-2.157-2.452 0-1.352.956-2.453 2.157-2.453 1.21 0 2.176 1.11 2.157 2.453 0 1.351-.956 2.452-2.157 2.452Zm7.975 0c-1.183 0-2.157-1.1-2.157-2.452 0-1.352.955-2.453 2.157-2.453 1.21 0 2.176 1.11 2.157 2.453 0 1.351-.946 2.452-2.157 2.452Z" />
</svg>