<svg xmlns="http://www.w3.org/2000/svg" width="71" height="44" fill="none" viewBox="0 0 71 44">
  <path fill="#BF8870" stroke="#644647" stroke-width="2" d="M42.5 21.5c0 5.722-1.803 10.584-5.22 14.134-3.414 3.546-8.526 5.874-15.316 6.366-6.742-.008-11.96-2.324-15.494-5.991C2.934 32.34 1.013 27.247 1 21.557 2.47 9.01 10.733 1 22 1c6.778 0 11.872 2.172 15.275 5.752C40.686 10.339 42.5 15.447 42.5 21.5z"/>
  <path fill="#fff" fill-opacity=".2" d="M3.893 28.215c.175.632 1.06.43 1.06-.226 0-12.719 9.84-23.03 21.976-23.03.748 0 1.026-.99.309-1.203A18.135 18.135 0 0022.046 3C11.527 3 3 11.994 3 23.09c0 1.463.408 3.373.893 5.125z"/>
  <path fill="#F0E0D2" stroke="#634647" stroke-width="2" d="M24.434 11c1.045 0 1.81-.82 1.92-1.765.115-.296.186-.637.122-.99a1.41 1.41 0 00-.724-.996 2.08 2.08 0 00-.784-.228C24.767 7 24.57 7 24.448 7h-.014c-1.131 0-1.934.96-1.934 2s.803 2 1.934 2zM10.5 25a3 3 0 002.99-2.755c.234-.525.358-1.066.257-1.59-.127-.656-.558-1.067-1.001-1.295-.41-.21-.866-.288-1.229-.324-.367-.036-.733-.036-1-.036H10.5a3 3 0 100 6zM22.963 36.678a3 3 0 004.018.624c.556-.144 1.056-.383 1.404-.79.434-.507.487-1.1.39-1.588-.091-.452-.314-.858-.512-1.164-.2-.309-.429-.596-.595-.805l-.01-.013a3 3 0 10-4.695 3.736z"/>
  <path fill="#845556" stroke="#634647" stroke-width="2" d="M37.044 19.802a3 3 0 00-.6-4.022c-.303-.488-.68-.894-1.172-1.105-.614-.264-1.195-.138-1.633.1-.404.222-.725.556-.958.835-.236.284-.442.587-.592.809l-.01.013a3 3 0 104.965 3.37z"/>
  <path stroke="#634647" stroke-linecap="round" stroke-width="2" d="M30.5 27.754l2.793 2.793M23.5 21.5c1-1.5 1-1.5 3.126-2.414M11.5 10.978s2.5 0 3.622 1.576M14.5 33.304s0-1.804 1.537-3.639"/>
  <path fill="#EAAC89" stroke="#634647" stroke-linejoin="round" stroke-width="2" d="M36.503 5.02c3.24-2.622 7.309-3.92 11.865-3.873a.379.379 0 01.077.104.98.98 0 01.105.577 4.5 4.5 0 002.429 4.693 4.517 4.517 0 001.272 1.542c.207.16.34.493.3.753A4.5 4.5 0 0057 14c.648 0 1.429.312 1.897.758a4.488 4.488 0 003.788 1.19c.26-.04.593.094.753.3a4.494 4.494 0 005.133 1.47c.197-.073.505-.086.756-.01a.522.522 0 01.187.087c.407 2.624.39 5.542-.116 8.734-1.543 6.564-4.985 11.117-9.36 13.724-4.378 2.609-9.775 3.32-15.318 2.038-11.884-4.288-17.803-14.156-15.238-25.128 1.285-5.5 3.774-9.514 7.022-12.142zm11.85-3.882s.004 0 .011.006c-.007-.003-.01-.005-.01-.006zm21.173 16.674s-.004-.003-.008-.012c.007.007.01.012.008.012z"/>
  <path fill="#fff" fill-opacity=".2" d="M30.893 27.215c.175.632 1.06.43 1.06-.226C31.953 14.27 35.363 4.5 47.5 4.5c.143 0 .217-.087.247-.22.165-.731.002-1.78-.747-1.78-10.519 0-17 8.494-17 19.59 0 1.463.408 3.373.893 5.125z"/>
  <path fill="#845556" stroke="#634647" stroke-width="2" d="M41.634 15.72c.238-1.017-.387-1.949-1.282-2.271-.262-.179-.577-.325-.937-.344a1.41 1.41 0 00-1.134.48 2.081 2.081 0 00-.4.71c-.066.191-.111.383-.14.502l-.002.013c-.258 1.102.495 2.102 1.507 2.339 1.012.236 2.13-.327 2.388-1.428zM51.824 33.36a3 3 0 00-2.002-3.539c-.458-.347-.957-.59-1.491-.611-.667-.026-1.165.3-1.488.68-.298.35-.478.777-.595 1.122-.119.35-.202.706-.263.967l-.004.016a3 3 0 105.843 1.365z"/>
  <path stroke="#634647" stroke-linecap="round" stroke-width="2" d="M49.784 20.368l-1.02-2.238M36.807 29.659s.569-2.435 2.36-3.168M60.877 28.325s-1.757-.41-3.193-2.325"/>
</svg>
