<svg width="148px" height="22px" viewBox="0 0 148 22" version="1.1" xmlns="http://www.w3.org/2000/svg" xmlns:xlink="http://www.w3.org/1999/xlink">
<path d="M9.009 7.752s-1.257-.105-1.257.943v4.819h8.066v1.467s0 .733-.733.733H7.752V22h8.8s5.343-.838 5.343-6.286V7.752H9.009zM21.791 0H5.866C.105 1.362 0 6.076 0 6.076V22h6.076V7.543c0-1.257 1.257-1.467 1.257-1.467h14.457V0zm20.952 17.391c-.419.314-.733.524-.943.629-.733.524-1.571.838-2.2 1.152-1.048.419-1.885.629-2.724.629-2.724 0-5.029-.838-6.914-2.514s-2.724-3.876-2.724-6.39.838-4.61 2.514-6.495c1.676-1.781 3.667-2.724 6.076-2.724.943 0 1.991.21 3.143.524 1.467.419 2.619 1.152 3.457 1.991l-1.571 1.781c-.629-.629-1.571-1.152-2.619-1.467a10.34 10.34 0 0 0-2.514-.314c-1.676 0-3.038.629-4.19 1.99S29.857 9.114 29.857 11s.629 3.352 1.886 4.609 2.934 1.781 4.819 1.781a4.63 4.63 0 0 0 2.514-.733c.734-.524 1.048-.838 1.048-.838v-3.876h-5.343l.838-2.305h7.123v7.752zm16.029-4.61a6.48 6.48 0 0 1-1.991 4.819c-1.361 1.362-2.933 1.99-4.819 1.99-1.781 0-3.352-.629-4.714-1.99a6.48 6.48 0 0 1-1.991-4.819c0-1.886.628-3.457 1.886-4.819s2.828-2.095 4.714-2.095c1.991 0 3.667.629 5.028 1.99 1.258 1.257 1.886 2.933 1.886 4.924zm-2.514 0c0-1.257-.419-2.305-1.257-3.143s-1.886-1.257-3.143-1.257c-1.152 0-2.2.419-2.934 1.362-.838.943-1.257 1.886-1.257 3.038 0 1.257.419 2.2 1.257 3.143.838.838 1.886 1.257 3.038 1.257s2.095-.419 2.934-1.257c.942-.943 1.466-1.886 1.361-3.143zm18.439 0a6.48 6.48 0 0 1-1.991 4.819c-1.362 1.362-2.934 1.99-4.819 1.99-1.781 0-3.353-.629-4.714-1.99a6.48 6.48 0 0 1-1.991-4.819 6.81 6.81 0 0 1 1.885-4.819c1.258-1.362 2.829-2.095 4.714-2.095 1.991 0 3.667.629 5.029 1.99 1.152 1.257 1.886 2.933 1.886 4.924zm-2.514 0c0-1.257-.419-2.305-1.258-3.143s-1.885-1.257-3.143-1.257c-1.152 0-2.2.419-2.933 1.362-.838.943-1.258 1.886-1.258 3.038 0 1.257.419 2.2 1.258 3.143.838.838 1.885 1.257 3.038 1.257s2.095-.419 2.933-1.257c.943-.943 1.362-1.886 1.362-3.143zm17.181 6.495l-2.304.314v-2.2l-.525.524c-.418.419-.942.733-1.466 1.048a6.75 6.75 0 0 1-2.514.524c-1.781 0-3.353-.629-4.505-1.99-1.257-1.362-1.885-2.933-1.885-4.714 0-1.886.628-3.562 1.885-4.819s2.724-1.99 4.505-1.99a6.47 6.47 0 0 1 2.619.524c.524.21.943.524 1.361.943.105.21.21.314.419.524V2.095l2.41-.314v17.495zm-2.2-6.286c0-1.257-.419-2.409-1.362-3.352s-1.886-1.362-3.038-1.362c-1.257 0-2.304.419-3.038 1.257s-1.152 1.886-1.152 3.038c0 1.362.419 2.409 1.152 3.248s1.781 1.257 2.934 1.257 2.2-.419 3.143-1.152c.943-.838 1.362-1.781 1.362-2.933zm15.086-8.486h-6.809v4.609h5.343v2.41h-5.343v7.648l-2.619.419V2.095h9.009l.419 2.41zm5.447-1.362l-1.676 2.095-1.571-2.095 1.676-2.095 1.571 2.095zm-.524 16.133l-2.409.314V6.6l2.409-.419v13.095zm11.105-13.2l-1.153 2.619h-.418c-.21 0-.524 0-.734.105-.209 0-.524.105-.733.21-.524.21-.943.733-1.362 1.467-.419.838-.628 1.781-.628 2.619v6.076l-2.41.419V6.6l2.305-.419v2.724c.314-.419.628-.943.943-1.467.418-.524.942-.838 1.466-1.048.315-.105.838-.21 1.571-.314h1.153zm18.123 13.2l-2.409.314v-8.905c0-.838-.21-1.467-.524-1.781-.315-.419-.943-.524-1.571-.524-.838 0-1.467.314-1.991 1.048-.315.524-.419 1.048-.419 1.571v8.276l-2.409.419v-8.905c0-.733-.21-1.362-.524-1.781s-.838-.629-1.467-.629h-.21c-.838 0-1.467.314-1.885 1.048-.315.524-.419 1.257-.419 2.095v7.752l-2.514.419V6.6l2.304-.419v1.676c.21-.419.524-.733.734-.943a3.25 3.25 0 0 1 2.304-.943c.943 0 1.677.105 2.201.419.418.21.838.733 1.257 1.571.838-1.362 1.991-1.99 3.562-1.99 1.467 0 2.619.419 3.352 1.467.628.733.943 1.99.943 3.457v8.381h-.315zm11.21-3.981c0 1.152-.419 2.2-1.257 2.933s-1.886 1.152-3.143 1.152c-.943 0-1.781-.21-2.619-.629-.734-.419-1.362-.943-1.781-1.571l1.676-1.571c.105.21.21.314.315.419.628.629 1.362.943 2.304.943.629 0 1.153-.21 1.467-.524s.524-.733.524-1.362-.419-1.152-1.257-1.362l-2.724-.838c-.734-.419-1.362-.838-1.677-1.257-.419-.524-.628-1.257-.628-2.2 0-1.152.419-2.095 1.257-2.829s1.781-1.152 2.934-1.152c.838 0 1.676.21 2.41.629s1.257.838 1.571 1.257l-1.362 1.886a4.56 4.56 0 0 0-.733-.629c-.628-.419-1.152-.629-1.676-.629s-.943.105-1.258.314a1.49 1.49 0 0 0-.628 1.257c0 .524.209.943.524 1.152s1.048.419 2.095.629 1.886.733 2.514 1.362c.838.733 1.152 1.571 1.152 2.619z" fill="#3a7af3"></path>
</svg>