<svg class="pcmag_logo pcmag_responsive" id="pcmag_logo" data-name="pcmag logo" xmlns="http://www.w3.org/2000/svg" viewBox="0 0 174.9 175.3">
        <title>PCMag UK</title>
        <g id="logo"><rect width="174.9" height="175.3" style="fill:#e01f26"></rect><path d="M153.8,97.5H127.3v34.3c0,3.5-1.4,5-4.3,5s-4.3-1.5-4.3-5V43c0-2.9,1.4-4.7,4.3-4.7s4.3,1.8,4.3,4.7V74.1h26.5v-30c0-14.7-7.2-25.2-29.6-25.2S90.8,27.7,90.8,44.1v86.5c0,16.7,10.9,25.5,33.4,25.5s29.6-10.6,29.6-25.5ZM85,44.7c0-16.4-7.8-25.2-26.2-25.2H23.1V156.2H49.9V102.9l8.8.2c18.4,0,26.2-8.8,26.2-25.2V44.7ZM50,83.4V39.2c6.3,0,7.2,1.7,7.2,7.6V76C57.3,81.9,56.4,83.4,50,83.4Z" style="fill:#fff"></path></g></svg>