<?xml version='1.0' encoding='UTF-8' standalone='no'?>
<svg xmlns="http://www.w3.org/2000/svg" width="660.667" height="268">
  <g clip-path="url(#clipPath18)" transform="matrix(1.33333 0 0 -1.33333 0 268)">
    <path d="M131.7501 145.8404c-.422 2.198-.772 4.414-1.282 6.591-1.006 4.295-3.324 7.852-6.417 10.934-3.733 3.721-8.272 5.912-13.443 6.627-2.874.398-5.747.015-8.609-.744-4.267-1.131-7.771-3.448-10.727-6.546-3.571-3.741-5.663-8.37-6.35-13.452-.574-4.247-.219-8.555 1.449-12.579 1.74-4.198 4.314-7.819 8.019-10.581 3.228-2.408 6.847-3.941 10.789-4.393 3.089-.354 6.21-.2 9.294.764 3.247 1.015 6.179 2.522 8.683 4.74 5.549 4.914 8.267 11.163 8.594 18.639m-23.556-40.155c-8.68-.2-16.326 2.295-23.202 7.021-4.868 3.346-8.748 7.733-11.576 12.927-1.247 2.288-2.04 4.826-3.015 7.26-2.255 5.633-2.117 11.545-1.827 17.428.106 2.152.739 4.307 1.352 6.397.647 2.206 1.452 4.381 2.37 6.491 2.336 5.361 5.952 9.785 10.358 13.573 3.106 2.67 6.558 4.793 10.391 6.276 2.896 1.121 5.788 2.27 8.941 2.408 3.725.164 7.493.673 11.169.301 4.102-.415 8.065-1.732 11.875-3.525 5.664-2.666 10.326-6.523 14.204-11.32 2.633-3.257 4.654-6.931 6.089-10.905.896-2.482 1.503-5.008 1.985-7.608.737-3.979.512-7.96.281-11.911-.147-2.527-1.106-5.012-1.743-7.505-.857-3.359-2.409-6.412-4.256-9.319-2.735-4.305-6.229-7.861-10.374-10.853-3.364-2.428-7.027-4.205-10.925-5.454-3.993-1.28-8.133-1.873-12.097-1.682m200.4944-53.7115c0 .751.008 1.502-.003 2.252-.006.398-.068.796-.068 1.193-.003 10.797 0 21.594 0 32.391 0 1.518-.015 3.036-.006 4.554.004.749.046 1.447 1.115 1.442 4.879-.023 9.758-.014 14.637-.02.113 0 .227-.047.46-.099.019-.407.057-.831.056-1.255-.02-21.875-.041-43.75-.07-65.626-.005-4.078-.038-8.157-.076-12.235-.003-.286-.156-.57-.24-.855-.261.108-.578.156-.774.335-3.549 3.238-7.101 6.474-10.617 9.748-3.797 3.535-7.558 7.109-11.335 10.666-2.774 2.612-5.537 5.236-8.326 7.831-4.743 4.411-9.505 8.8-14.253 13.205-1.151 1.067-2.268 2.169-3.428 3.226-.306.278-.713.446-1.204.744-.055-.375-.115-.594-.115-.812.012-7.678-.018-15.357.06-23.034.063-6.183.24-12.366.412-18.547.028-1.008-.191-1.407-1.302-1.392-4.598.061-9.198.055-13.796.009-1.024-.01-1.253.35-1.252 1.316.022 26.034.016 52.069.018 78.103 0 .427.037.855.066 1.473 16.628-15.017 33.11-29.901 49.592-44.785.15.057.299.115.449.172m141.8861 92.6752c3.59 0 7.062.048 10.533-.013 3.754-.066 6.594 1.637 8.645 4.588 2.853 4.104 3.257 8.717 1.836 13.384-1.159 3.805-4.98 6.536-9.053 6.601-3.275.052-6.551.011-9.826.012h-2.135zm23.614-11.963c5.223-8.631 10.369-17.135 15.645-25.855-.666-.045-1.005-.087-1.344-.087-4.878-.005-9.757.048-14.634-.043-1.108-.021-1.628.416-2.079 1.265-2.469 4.642-4.946 9.28-7.432 13.913-1.373 2.559-2.75 5.117-4.178 7.646-.188.333-.689.682-1.053.691-2.557.061-5.118.004-7.676.05-1.001.019-.94-.572-.938-1.247.012-6.757.012-13.515.018-20.272.002-2.015.005-2.01-1.957-2.009-4.319.002-8.637.001-12.955-.006-1.606-.002-1.624-.005-1.623 1.588.01 14.793.027 29.587.036 44.38.007 10.275.022 20.55-.021 30.825-.005 1.178.355 1.472 1.494 1.467 9.236-.044 18.473.031 27.709-.049 6.343-.055 12.074-2.014 16.869-6.253 3.35-2.961 5.628-6.634 7.076-10.91 1.466-4.327 1.692-8.753 1.263-13.172-.636-6.548-3.181-12.382-7.907-17.063-1.534-1.519-3.458-2.643-5.199-3.955-.396-.298-.771-.625-1.114-.904M206.804 79.0858v-16.005h31.492c.047-.402.111-.705.112-1.007.007-4.36-.016-8.72.021-13.079.009-.972-.312-1.182-1.267-1.152-2.993.092-5.99.06-8.986.062-7.072.005-14.144.001-21.332.001v-17.407H244.7c0-.224-.001-.44-.003-.651-.003-.344-.005-.596-.005-.618-.003-.371-.006-3.899-.005-13.55-.097 0-.194.001-.291.001-17.606.025-35.213.05-52.819.075-.074-.006-.464-.028-.797.26-.372.324-.372.778-.371.842.01 37.737.01 72.959.01 75.477v1.383h54.214v-14.632Zm263.9964 14.6117v-5.679c0-2.52-.053-5.041.023-7.557.035-1.142-.4-1.421-1.458-1.417-7.638.022-15.276-.005-22.914-.011-4.157-.004-8.315.006-12.472.002-.352-.001-.704-.063-1.106-.101v-15.844h31.563c.024-.526.06-.947.06-1.369.004-4.159-.041-8.318.026-12.476.02-1.217-.428-1.447-1.541-1.442-9.796.04-19.593.024-29.389.023-.194 0-.389-.028-.683-.05-.031-.371-.083-.712-.084-1.052-.007-4.999.026-9.998-.036-14.996-.013-1.104.362-1.314 1.376-1.311 11.717.032 23.434.019 35.151.018h1.368c.044-.396.108-.7.109-1.005.005-4.198-.017-8.397.016-12.595.007-.879-.248-1.15-1.16-1.148-17.235.03-34.47.033-51.705.006-1.052-.001-1.452.21-1.451 1.374.032 25.273.021 50.546.019 75.819v.811zm-200.7392 91.2047c5.452-.005 10.903-.009 16.355-.014.018-1.233.037-2.466.055-3.699.08-22.693.041-39.474.013-45.83-.004-.985-.024-3.249-.664-6.106-.994-4.433-3.072-8.47-6.019-12.2-3.624-4.585-8.294-7.681-13.722-9.646-4.042-1.464-8.249-1.884-12.556-1.738-6.413.218-12.16 2.333-17.286 6.025-4.396 3.166-7.655 7.361-9.812 12.372-1.798 4.177-2.497 8.523-2.471 13.073.086 15.436.053 30.873.065 46.31.001.436 0 .872 0 1.417 5.445.007 10.89.015 16.334.022.013-.743.033-1.989.042-3.528.172-27.903.018-43.07.018-43.07.013-3.483.498-6.984 2.414-9.959 1.68-2.606 3.932-4.679 6.993-5.835 2.28-.862 4.57-1.043 6.9-.864 3.898.299 7.129 1.948 9.702 4.988 1.5 1.772 2.43 3.779 3.083 5.926.363 1.194.533 2.492.536 3.744.034 14.716.021 29.433.02 44.15v4.462M21.9845 156.3963h-.005c0-3.797.051-7.594-.03-11.389-.026-1.228.445-1.47 1.528-1.457 3.236.039 6.472-.005 9.709-.015 2.108-.006 3.984.596 5.664 1.926 3.144 2.489 4.486 5.958 5.084 9.696.381 2.384.049 4.79-.794 7.174-1.348 3.817-5.347 7.001-9.499 6.9-3.474-.085-6.953-.053-10.429 0-1.032.016-1.261-.365-1.248-1.326.049-3.836.02-7.673.02-11.509m-16.318-49.561v78.067c.449.024.868.068 1.288.067 10.036-.013 20.073.039 30.107-.108 1.932-.028 3.856-.819 5.775-1.295 3.39-.84 6.25-2.709 8.795-4.976 3.206-2.858 5.614-6.341 6.849-10.511.571-1.927 1.032-3.897 1.392-5.875.276-1.512.393-3.065.445-4.604.106-3.131-.531-6.153-1.34-9.173-.874-3.267-2.331-6.217-4.261-8.947-2.863-4.052-6.57-7.027-11.242-8.817-3.227-1.237-6.543-1.775-9.975-1.752-3.358.022-6.717.01-10.074.065-1.039.017-1.475-.241-1.465-1.41.056-6.437.024-12.875.023-19.313-.001-.436 0-.872 0-1.418zm169.913 62.3882v-25.549c.234-.049.424-.125.614-.124 3.716.006 7.432.006 11.148.039 2.133.019 3.924.936 5.486 2.308 3.263 2.867 4.334 6.75 4.718 10.843.214 2.282-.303 4.551-1.371 6.607-1.926 3.707-4.895 5.861-9.203 5.869-3.117.007-6.235.005-9.352.007h-2.04m-16.262 15.737c.869 0 1.625.001 2.382 0 9.637-.016 19.275.051 28.91-.113 2.116-.036 4.287-.7 6.311-1.418 2.567-.911 4.932-2.254 7.108-3.985 1.998-1.59 3.613-3.451 5.06-5.506 1.804-2.562 2.838-5.485 3.803-8.418.376-1.143.404-2.403.57-3.612.155-1.137.459-2.29.385-3.415-.162-2.44-.5-4.869-.809-7.298-.435-3.405-1.701-6.524-3.407-9.473-2.903-5.019-6.998-8.726-12.36-10.953-3.449-1.432-7.08-1.931-10.81-1.863-3.318.061-6.637.028-9.955.029-.274 0-.549-.055-.945-.097v-22.013h-16.243zm219.8861-53.8436c6.716-.121 13.051-.277 19.514.084-3.313 7.676-6.514 15.096-9.867 22.865-3.272-7.784-6.394-15.211-9.647-22.949m47.966-24.385h-6.203c-3.56.002-7.12.052-10.678-.023-1.107-.024-1.565.42-1.952 1.369-1.153 2.823-2.455 5.587-3.575 8.422-.327.827-.792.946-1.505.944-3.319-.013-6.638-.016-9.957-.021-6.319-.009-12.638-.045-18.957 0-1.039.008-1.233-.636-1.508-1.312-1.161-2.844-2.281-5.704-3.487-8.528-.156-.367-.727-.787-1.11-.791-5.558-.053-11.117-.04-16.675-.039-.075 0-.151.048-.412.136 12.563 26.785 25.117 53.549 37.671 80.313.115.027.23.055.346.082 12.628-26.768 25.257-53.537 38.002-80.552m-73.1394-51.9086c-.21-5.219.918-9.897 3.457-14.188 2.389-4.039 5.806-6.968 10.152-8.738 3.256-1.327 6.664-2.058 10.198-1.931 4.441.16 8.512 1.602 12.219 3.977 1.695 1.086 3.238 2.435 4.739 3.788.635.571.955.509 1.387-.077 2.559-3.467 5.134-6.924 7.642-10.429.183-.257.037-1.02-.224-1.283-4.356-4.411-9.535-7.472-15.397-9.486-4.931-1.694-10.004-2.207-15.109-1.71-10.343 1.007-19.091 5.397-26.197 13.035-3.543 3.807-6.19 8.185-8.008 12.995-1.034 2.733-1.585 5.688-2.037 8.592-.395 2.54-.584 5.164-.428 7.724.163 2.694.764 5.373 1.318 8.029.837 4.021 2.589 7.672 4.764 11.138 3.637 5.796 8.437 10.401 14.447 13.622 2.851 1.528 5.913 2.727 8.989 3.748 2.031.674 4.247.836 6.396 1.095 1.777.215 3.581.375 5.365.31 2.173-.08 4.348-.35 6.502-.672 1.505-.225 2.978-.667 4.462-1.025 2.947-.709 5.638-2.033 8.19-3.609 1.915-1.182 3.705-2.567 5.552-3.859.628-.44.674-.849.19-1.521-2.634-3.658-5.2-7.365-7.819-11.034-.307-.431-.596-.949-1.361-.245-3.147 2.893-6.732 4.989-10.975 5.958-5.421 1.239-10.529.553-15.513-1.845-5.455-2.624-9.006-6.984-11.266-12.4-1.338-3.206-1.873-6.67-1.635-9.959M146.2446 85.032c-2.962-4.141-5.888-8.23-8.908-12.452-.687.525-1.32.974-1.913 1.47-3.702 3.095-7.877 5.028-12.744 5.427-8.885.729-15.914-2.538-21.134-9.719-1.558-2.143-2.525-4.568-3.358-7.093-1.388-4.2-1.331-8.538-.762-12.723.928-6.838 4.056-12.591 10.207-16.365 2.839-1.743 5.822-2.892 9.136-3.19 1.502-.135 3.01-.459 4.502-.394 4.333.191 8.322 1.627 11.942 3.953 1.743 1.119 3.317 2.525 4.862 3.918.845.762 1.12.023 1.428-.388 1.801-2.407 3.551-4.852 5.321-7.282.638-.876 1.228-1.796 1.943-2.604.71-.803.497-1.363-.208-1.982-2.845-2.499-5.873-4.711-9.205-6.555-6.682-3.696-13.84-4.944-21.338-4.271-6.75.605-12.983 2.838-18.612 6.676-5.592 3.811-10.032 8.654-13.203 14.643-1.414 2.671-2.423 5.482-3.301 8.384-1.393 4.6-1.547 9.277-1.287 13.974.127 2.279.861 4.524 1.313 6.786.627 3.141 1.894 6.046 3.428 8.822 3.017 5.459 7.067 10 12.169 13.641 3.37 2.405 7.091 4.049 10.919 5.474 1.531.57 3.215.722 4.82 1.101 4.525 1.07 9.114.858 13.649.359 2.775-.305 5.523-1.16 8.196-2.033 4.23-1.38 7.781-4.019 11.334-6.608.333-.244.547-.652.804-.969M64.6827 73.7928c-2.731 1.645-5.247 3.416-7.977 4.747-4.082 1.989-8.451 2.893-12.971 1.768-3.592-.894-6.247-3.514-5.891-7.268.257-2.714 2.055-4.617 4.238-6.113 3.681-2.525 7.883-3.986 11.901-5.833 5.663-2.602 11.003-5.721 14.738-10.941 1.533-2.142 2.896-4.414 3.142-7.098.26-2.836.665-5.728.367-8.527-.317-2.983-1.594-5.8-3.285-8.352-3.768-5.687-9.066-9.119-15.664-10.644-8.311-1.921-16.333-.884-24.06 2.524-3.503 1.546-6.609 3.749-9.306 6.519-.65.667-.615 1.239-.236 1.844 2.146 3.424 4.366 6.801 6.485 10.241.477.775.791.883 1.466.299 3.551-3.079 7.464-5.635 12.021-6.847 3.772-1.003 7.673-1.346 11.449.255 4.245 1.799 5.308 7.656 2.252 11.163-2.554 2.929-5.898 4.598-9.316 6.191-3.045 1.42-6.172 2.689-9.109 4.304-4.459 2.452-8.328 5.655-10.77 10.241-1.224 2.297-2.217 4.724-2.226 7.413-.005 1.799-.133 3.612.046 5.393.159 1.578.489 3.189 1.056 4.665 1.31 3.408 3.223 6.429 6.056 8.854 2.48 2.123 5.214 3.679 8.285 4.777 3.484 1.245 7.086 1.689 10.717 1.67 3.629-.019 7.221-.477 10.732-1.642 4.962-1.645 9.408-4.06 13.217-7.661.504-.477.653-.822.286-1.341-2.448-3.457-4.907-6.905-7.372-10.349-.129-.182-.335-.309-.271-.252m280.2479 47.8059v-14.783h-44.961v78.032h16.259c0-1.096-.001-2.237 0-3.378.003-19.392.007-38.785.008-58.178 0-1.692-.006-1.694 1.655-1.694 8.517 0 17.034.001 25.55.001h1.489M174.9755 15.7065c-1.325 0-2.595-.001-3.866 0-3.718.003-7.438.028-11.156-.007-.928-.009-1.232.275-1.231 1.234.025 25.352.023 50.705.011 76.057 0 .742.088 1.232 1.002 1.228 5.036-.019 10.073-.009 15.24-.009z"/>
  </g>
</svg>