<svg xmlns="http://www.w3.org/2000/svg" fill="currentColor" viewBox="0 0 20 20">
  <path fill-rule="evenodd" d="M10 18a8 8 0 1 0 0-16 8 8 0 0 0 0 16Zm3.106-7.553c-.31-.62-.586-1.014-.813-1.24C12.116 9.03 12.02 9.004 12 9c-.02.004-.116.03-.293.207-.226.226-.503.62-.812 1.24-.357.714-.747 1.32-1.188 1.76C9.265 12.65 8.692 13 8 13c-.692 0-1.265-.35-1.707-.793-.44-.44-.83-1.046-1.187-1.76a1 1 0 1 1 1.789-.894c.31.62.586 1.013.812 1.24.177.177.273.204.293.207.02-.004.116-.03.293-.207.226-.226.503-.62.813-1.24.357-.714.747-1.32 1.187-1.76C10.735 7.35 11.308 7 12 7c.692 0 1.265.35 1.707.793.44.44.83 1.046 1.188 1.76a1 1 0 1 1-1.79.894ZM11.996 9H12h-.002Zm.005 0h.003-.003Zm-3.997 2h-.003.003ZM8 11h-.003H8Z" clip-rule="evenodd" />
</svg>