<svg fill="currentcolor" version="1.1" viewBox="0 0 23 26" xmlns="http://www.w3.org/2000/svg">
  <path d="m8.9105 1.8861a1.4001 1.4001 0 0 0-0.33514 0.058591v0.00235c-4.633 1.4197-7.9872 5.7698-7.9872 10.903 0 6.2726 5.0228 11.39 11.259 11.39v0.0023c4.9733 0 9.174-3.2584 10.671-7.7528l-1.3265-0.44058v-0.0023l1.3265 0.44295h0.0023a1.4001 1.4001 0 0 0-2.0226-1.6593 7.6587 7.6587 0 0 1-3.8085 1.0054 7.7007 7.7007 0 0 1-7.7013-7.7013c0-1.5107 0.43448-2.9141 1.1836-4.1014l-1.1835-0.74763v-0.00235l1.1859 0.74763a1.4001 1.4001 0 0 0-1.2632-2.1444zm-2.5452 4.4225a10.459 10.459 0 0 0-0.17812 1.8257 10.501 10.501 0 0 0 10.502 10.502v-0.0023a10.459 10.459 0 0 0 1.514-0.11484c-1.5533 1.7946-3.8289 2.9225-6.356 2.9225-4.654-0.0014-8.4606-3.83-8.4606-8.5919 6.922e-4 -2.6246 1.1611-4.9671 2.9788-6.5412z" stroke-width="1.4001"/>
</svg>
