<svg xmlns="http://www.w3.org/2000/svg" fill="currentColor" viewBox="0 0 16 16">
  <path d="M4 5.313c0-.502.163-1.01.488-1.522.325-.518.8-.946 1.424-1.284C6.536 2.17 7.264 2 8.096 2c.773 0 1.456.143 2.048.428.592.28 1.048.663 1.368 1.15.325.485.488 1.014.488 1.584 0 .45-.093.843-.28 1.181-.181.339-.4.632-.656.88-.25.243-.704.655-1.36 1.237a5.696 5.696 0 0 0-.44.436 1.676 1.676 0 0 0-.368.65c-.027.1-.07.28-.128.539-.101.55-.419.824-.952.824a.992.992 0 0 1-.704-.27c-.187-.18-.28-.446-.28-.8 0-.444.07-.827.208-1.15.139-.327.323-.612.552-.855.23-.249.539-.542.928-.88.341-.296.587-.518.736-.666a2.2 2.2 0 0 0 .384-.507c.107-.185.16-.386.16-.603 0-.422-.16-.78-.48-1.07-.315-.29-.723-.436-1.224-.436-.587 0-1.019.148-1.296.444-.277.29-.512.722-.704 1.292-.181.597-.525.896-1.032.896a1.04 1.04 0 0 1-.76-.31C4.101 5.785 4 5.557 4 5.315ZM7.904 14a1.29 1.29 0 0 1-.856-.31c-.24-.21-.36-.504-.36-.879 0-.333.117-.613.352-.84.235-.227.523-.34.864-.34.336 0 .619.113.848.34.23.227.344.507.344.84 0 .37-.12.66-.36.872-.24.211-.517.317-.832.317Z" />
</svg>