<svg version="1.1" viewBox="0 0 207.63 207.63" xmlns="http://www.w3.org/2000/svg">
   <circle cx="103.81" cy="103.81" r="45.868"/>
   <path d="m103.81 157.18c-29.427 0-53.368-23.941-53.368-53.368s23.941-53.368 53.368-53.368 53.368 23.941 53.368 53.368-23.941 53.368-53.368 53.368zm0-91.737c-21.156 0-38.368 17.212-38.368 38.368s17.212 38.368 38.368 38.368 38.368-17.212 38.368-38.368-17.212-38.368-38.368-38.368zm0-26.061c-4.1421 0-7.5-3.3579-7.5-7.5v-24.385c0-4.1421 3.3579-7.5 7.5-7.5 4.1421 0 7.5 3.3579 7.5 7.5v24.385c0 4.1421-3.3579 7.5-7.5 7.5zm0 168.24c-4.1421 0-7.5-3.3579-7.5-7.5v-24.385c0-4.1421 3.3579-7.5 7.5-7.5 4.1421 0 7.5 3.3579 7.5 7.5v24.385c0 4.1421-3.3579 7.5-7.5 7.5zm96.314-96.314h-24.385c-4.1421 0-7.5-3.3579-7.5-7.5 0-4.1421 3.3579-7.5 7.5-7.5h24.385c4.1421 0 7.5 3.3579 7.5 7.5 0 4.1421-3.3579 7.5-7.5 7.5zm-168.24 0h-24.385c-4.1421 0-7.5-3.3579-7.5-7.5 0-4.1421 3.3579-7.5 7.5-7.5h24.385c4.1421 0 7.5 3.3579 7.5 7.5 0 4.1421-3.3579 7.5-7.5 7.5zm122.79-50.862c-1.919 0-3.839-0.732-5.303-2.197-2.9285-2.9289-2.9285-7.6771 0-10.606l21.243-21.242c2.9377-2.8758 7.6429-2.8507 10.55 0.05619 2.9069 2.9069 2.932 7.6121 0.0562 10.55l-21.243 21.242c-1.464 1.465-3.384 2.197-5.303 2.197zm-122.97 122.97c-1.919 0-3.839-0.732-5.303-2.197-2.9285-2.9289-2.9285-7.6771 0-10.606l21.243-21.243c2.9069-2.9069 7.6429-2.8507 10.55 0.0562 2.9069 2.9069 2.932 7.6121 0.05619 10.55l-21.243 21.243c-1.4045 1.4094-3.3133 2.2002-5.303 2.197zm144.21 0c-1.919 0-3.8385-0.7325-5.303-2.197l-21.243-21.243c-2.8758-2.9377-2.8507-7.6429 0.0562-10.55 2.9069-2.9069 7.6121-2.932 10.55-0.0562l21.243 21.243c2.9285 2.9289 2.9285 7.6771 0 10.606-1.4045 1.4094-3.3133 2.2002-5.303 2.197zm-122.97-122.97c-1.919 0-3.839-0.732-5.303-2.197l-21.243-21.242c-2.8758-2.9377-2.8507-7.6429 0.05619-10.55 2.9069-2.9069 7.6121-2.932 10.55-0.05619l21.243 21.242c2.9285 2.9289 2.9285 7.6771 0 10.606-1.4045 1.4094-3.3133 2.2002-5.303 2.197z"/>
</svg>
