<svg width="1920" height="1080" viewBox="0 0 1920 1080" fill="none" xmlns="http://www.w3.org/2000/svg">
<g clip-path="url(#clip0_1_94)">
<rect width="1920" height="1080" fill="#F3F4F6"/>
<g filter="url(#filter0_d_1_94)">
<rect x="173" y="238" width="1575" height="882" rx="31" fill="white"/>
<rect x="173.5" y="238.5" width="1574" height="881" rx="30.5" stroke="#D3D7E0"/>
</g>
<g filter="url(#filter1_d_1_94)">
<rect x="239" y="388" width="183.938" height="111.565" rx="14" fill="#22C55E"/>
</g>
<g filter="url(#filter2_d_1_94)">
<rect x="452.938" y="388" width="183.938" height="111.565" rx="14" fill="#E5E7EB"/>
</g>
<g filter="url(#filter3_d_1_94)">
<rect x="666.876" y="388" width="183.938" height="111.565" rx="14" fill="#E5E7EB"/>
</g>
<g filter="url(#filter4_d_1_94)">
<rect x="880.814" y="388" width="183.938" height="111.565" rx="14" fill="#E5E7EB"/>
</g>
<g filter="url(#filter5_d_1_94)">
<rect x="1094.75" y="388" width="183.938" height="111.565" rx="14" fill="#E5E7EB"/>
</g>
<g filter="url(#filter6_d_1_94)">
<rect x="1308.69" y="388" width="183.938" height="111.565" rx="14" fill="#22C55E"/>
</g>
<g filter="url(#filter7_d_1_94)">
<rect x="1523" y="388" width="183.938" height="111.565" rx="14" fill="#E5E7EB"/>
</g>
<g filter="url(#filter8_d_1_94)">
<rect x="239" y="529.565" width="183.938" height="111.565" rx="14" fill="#22C55E"/>
</g>
<g filter="url(#filter9_d_1_94)">
<rect x="452.938" y="529.565" width="183.938" height="111.565" rx="14" fill="#E5E7EB"/>
</g>
<g filter="url(#filter10_d_1_94)">
<rect x="666.876" y="529.565" width="183.938" height="111.565" rx="14" fill="#E5E7EB"/>
</g>
<g filter="url(#filter11_d_1_94)">
<rect x="880.814" y="529.565" width="183.938" height="111.565" rx="14" fill="#E5E7EB"/>
</g>
<g filter="url(#filter12_d_1_94)">
<rect x="1094.75" y="529.565" width="183.938" height="111.565" rx="14" fill="#E5E7EB"/>
</g>
<g filter="url(#filter13_d_1_94)">
<rect x="1308.69" y="529.565" width="183.938" height="111.565" rx="14" fill="#22C55E"/>
</g>
<g filter="url(#filter14_d_1_94)">
<rect x="1523" y="529.565" width="183.938" height="111.565" rx="14" fill="#E5E7EB"/>
</g>
<g filter="url(#filter15_d_1_94)">
<rect x="239" y="671.13" width="183.938" height="111.565" rx="14" fill="#22C55E"/>
</g>
<g filter="url(#filter16_d_1_94)">
<rect x="452.938" y="671.13" width="183.938" height="111.565" rx="14" fill="#E5E7EB"/>
</g>
<g filter="url(#filter17_d_1_94)">
<rect x="666.876" y="671.13" width="183.938" height="111.565" rx="14" fill="#22C55E"/>
</g>
<g filter="url(#filter18_d_1_94)">
<rect x="880.814" y="671.13" width="183.938" height="111.565" rx="14" fill="#22C55E"/>
</g>
<g filter="url(#filter19_d_1_94)">
<rect x="1094.75" y="671.13" width="183.938" height="111.565" rx="14" fill="#E5E7EB"/>
</g>
<g filter="url(#filter20_d_1_94)">
<rect x="1308.69" y="671.13" width="183.938" height="111.565" rx="14" fill="#22C55E"/>
</g>
<g filter="url(#filter21_d_1_94)">
<rect x="1523" y="671.13" width="183.938" height="111.565" rx="14" fill="#22C55E"/>
</g>
<g filter="url(#filter22_d_1_94)">
<rect x="239" y="812.695" width="183.938" height="111.565" rx="14" fill="#22C55E"/>
</g>
<g filter="url(#filter23_d_1_94)">
<rect x="452.938" y="812.695" width="183.938" height="111.565" rx="14" fill="#E5E7EB"/>
</g>
<g filter="url(#filter24_d_1_94)">
<rect x="666.876" y="812.695" width="183.938" height="111.565" rx="14" fill="#22C55E"/>
</g>
<g filter="url(#filter25_d_1_94)">
<rect x="880.814" y="812.695" width="183.938" height="111.565" rx="14" fill="#22C55E"/>
</g>
<g filter="url(#filter26_d_1_94)">
<rect x="1094.75" y="812.695" width="183.938" height="111.565" rx="14" fill="#E5E7EB"/>
</g>
<g filter="url(#filter27_d_1_94)">
<rect x="1308.69" y="812.695" width="183.938" height="111.565" rx="14" fill="#22C55E"/>
</g>
<g filter="url(#filter28_d_1_94)">
<rect x="1523" y="812.695" width="183.938" height="111.565" rx="14" fill="#22C55E"/>
</g>
<g filter="url(#filter29_d_1_94)">
<rect x="239" y="954.26" width="183.938" height="111.565" rx="14" fill="#E5E7EB"/>
</g>
<g filter="url(#filter30_d_1_94)">
<rect x="452.938" y="954.26" width="183.938" height="111.565" rx="14" fill="#E5E7EB"/>
</g>
<g filter="url(#filter31_d_1_94)">
<rect x="666.876" y="954.26" width="183.938" height="111.565" rx="14" fill="#22C55E"/>
</g>
<g filter="url(#filter32_d_1_94)">
<rect x="880.814" y="954.26" width="183.938" height="111.565" rx="14" fill="#22C55E"/>
</g>
<g filter="url(#filter33_d_1_94)">
<rect x="1094.75" y="954.26" width="183.938" height="111.565" rx="14" fill="#22C55E"/>
</g>
<g filter="url(#filter34_d_1_94)">
<rect x="1308.69" y="954.26" width="183.938" height="111.565" rx="14" fill="#E5E7EB"/>
</g>
<g filter="url(#filter35_d_1_94)">
<rect x="1523" y="954.26" width="183.938" height="111.565" rx="14" fill="#E5E7EB"/>
</g>
<path d="M292.196 303.909H297.523L306.784 326.523H307.125L316.386 303.909H321.713V333H317.537V311.949H317.267L308.688 332.957H305.222L296.642 311.935H296.372V333H292.196V303.909ZM336.944 333.44C334.898 333.44 333.113 332.972 331.589 332.034C330.064 331.097 328.88 329.785 328.038 328.099C327.195 326.414 326.773 324.444 326.773 322.19C326.773 319.927 327.195 317.948 328.038 316.253C328.88 314.558 330.064 313.241 331.589 312.304C333.113 311.366 334.898 310.898 336.944 310.898C338.989 310.898 340.774 311.366 342.299 312.304C343.824 313.241 345.007 314.558 345.85 316.253C346.693 317.948 347.114 319.927 347.114 322.19C347.114 324.444 346.693 326.414 345.85 328.099C345.007 329.785 343.824 331.097 342.299 332.034C340.774 332.972 338.989 333.44 336.944 333.44ZM336.958 329.875C338.284 329.875 339.382 329.525 340.254 328.824C341.125 328.123 341.769 327.19 342.185 326.026C342.612 324.861 342.825 323.578 342.825 322.176C342.825 320.784 342.612 319.506 342.185 318.341C341.769 317.167 341.125 316.224 340.254 315.514C339.382 314.804 338.284 314.449 336.958 314.449C335.623 314.449 334.515 314.804 333.634 315.514C332.763 316.224 332.114 317.167 331.688 318.341C331.272 319.506 331.063 320.784 331.063 322.176C331.063 323.578 331.272 324.861 331.688 326.026C332.114 327.19 332.763 328.123 333.634 328.824C334.515 329.525 335.623 329.875 336.958 329.875ZM356.102 320.045V333H351.855V311.182H355.932V314.733H356.202C356.704 313.578 357.49 312.65 358.56 311.949C359.639 311.248 360.998 310.898 362.636 310.898C364.123 310.898 365.425 311.21 366.543 311.835C367.66 312.451 368.527 313.369 369.142 314.591C369.758 315.812 370.065 317.323 370.065 319.122V333H365.818V319.634C365.818 318.052 365.406 316.816 364.582 315.926C363.759 315.027 362.627 314.577 361.188 314.577C360.203 314.577 359.327 314.79 358.56 315.216C357.802 315.642 357.201 316.267 356.756 317.091C356.32 317.905 356.102 318.89 356.102 320.045Z" fill="black"/>
<path d="M504.761 307.688V303.909H527.276V307.688H518.199V333H513.824V307.688H504.761ZM542.762 323.952V311.182H547.023V333H542.847V329.222H542.62C542.118 330.386 541.313 331.357 540.205 332.134C539.107 332.901 537.738 333.284 536.1 333.284C534.699 333.284 533.458 332.976 532.379 332.361C531.308 331.736 530.466 330.812 529.85 329.591C529.244 328.369 528.941 326.859 528.941 325.06V311.182H533.188V324.548C533.188 326.035 533.6 327.219 534.424 328.099C535.248 328.98 536.318 329.42 537.634 329.42C538.43 329.42 539.22 329.222 540.006 328.824C540.802 328.426 541.46 327.825 541.981 327.02C542.511 326.215 542.772 325.192 542.762 323.952ZM562.134 333.44C559.984 333.44 558.133 332.981 556.58 332.062C555.036 331.134 553.843 329.832 553 328.156C552.167 326.471 551.75 324.496 551.75 322.233C551.75 319.998 552.167 318.028 553 316.324C553.843 314.619 555.017 313.289 556.523 312.332C558.038 311.376 559.809 310.898 561.835 310.898C563.066 310.898 564.259 311.101 565.415 311.509C566.57 311.916 567.607 312.555 568.526 313.426C569.444 314.297 570.169 315.429 570.699 316.821C571.229 318.204 571.494 319.884 571.494 321.864V323.369H554.151V320.188H567.332C567.332 319.07 567.105 318.08 566.651 317.219C566.196 316.348 565.557 315.661 564.733 315.159C563.919 314.657 562.962 314.406 561.864 314.406C560.67 314.406 559.629 314.7 558.739 315.287C557.858 315.865 557.176 316.622 556.693 317.56C556.22 318.488 555.983 319.496 555.983 320.585V323.071C555.983 324.529 556.239 325.77 556.75 326.793C557.271 327.815 557.995 328.597 558.923 329.136C559.851 329.667 560.936 329.932 562.176 329.932C562.981 329.932 563.715 329.818 564.378 329.591C565.041 329.354 565.614 329.004 566.097 328.54C566.58 328.076 566.949 327.503 567.205 326.821L571.224 327.545C570.902 328.729 570.325 329.766 569.491 330.656C568.668 331.537 567.631 332.223 566.381 332.716C565.14 333.199 563.724 333.44 562.134 333.44Z" fill="black"/>
<path d="M725.892 333L717.824 303.909H722.44L728.108 326.438H728.378L734.273 303.909H738.847L744.741 326.452H745.011L750.665 303.909H755.295L747.213 333H742.795L736.673 311.21H736.446L730.324 333H725.892ZM766.212 333.44C764.062 333.44 762.211 332.981 760.658 332.062C759.114 331.134 757.921 329.832 757.078 328.156C756.245 326.471 755.828 324.496 755.828 322.233C755.828 319.998 756.245 318.028 757.078 316.324C757.921 314.619 759.095 313.289 760.601 312.332C762.116 311.376 763.887 310.898 765.913 310.898C767.144 310.898 768.338 311.101 769.493 311.509C770.648 311.916 771.685 312.555 772.604 313.426C773.522 314.297 774.247 315.429 774.777 316.821C775.307 318.204 775.572 319.884 775.572 321.864V323.369H758.229V320.188H771.411C771.411 319.07 771.183 318.08 770.729 317.219C770.274 316.348 769.635 315.661 768.811 315.159C767.997 314.657 767.04 314.406 765.942 314.406C764.749 314.406 763.707 314.7 762.817 315.287C761.936 315.865 761.254 316.622 760.771 317.56C760.298 318.488 760.061 319.496 760.061 320.585V323.071C760.061 324.529 760.317 325.77 760.828 326.793C761.349 327.815 762.073 328.597 763.001 329.136C763.929 329.667 765.014 329.932 766.254 329.932C767.059 329.932 767.793 329.818 768.456 329.591C769.119 329.354 769.692 329.004 770.175 328.54C770.658 328.076 771.027 327.503 771.283 326.821L775.303 327.545C774.981 328.729 774.403 329.766 773.57 330.656C772.746 331.537 771.709 332.223 770.459 332.716C769.218 333.199 767.803 333.44 766.212 333.44ZM788.452 333.426C786.691 333.426 785.119 332.976 783.737 332.077C782.363 331.168 781.284 329.875 780.498 328.199C779.721 326.513 779.333 324.491 779.333 322.134C779.333 319.776 779.726 317.759 780.512 316.082C781.308 314.406 782.397 313.123 783.779 312.233C785.162 311.343 786.729 310.898 788.481 310.898C789.835 310.898 790.924 311.125 791.748 311.58C792.581 312.025 793.225 312.545 793.68 313.142C794.144 313.739 794.504 314.264 794.759 314.719H795.015V303.909H799.262V333H795.114V329.605H794.759C794.504 330.069 794.134 330.599 793.651 331.196C793.178 331.793 792.524 332.313 791.691 332.759C790.858 333.204 789.778 333.426 788.452 333.426ZM789.39 329.804C790.612 329.804 791.644 329.482 792.487 328.838C793.339 328.185 793.983 327.28 794.418 326.125C794.863 324.97 795.086 323.625 795.086 322.091C795.086 320.576 794.868 319.25 794.433 318.114C793.997 316.977 793.358 316.092 792.515 315.457C791.672 314.823 790.63 314.506 789.39 314.506C788.112 314.506 787.046 314.837 786.194 315.5C785.342 316.163 784.698 317.067 784.262 318.213C783.836 319.359 783.623 320.652 783.623 322.091C783.623 323.549 783.841 324.861 784.276 326.026C784.712 327.19 785.356 328.114 786.208 328.795C787.07 329.468 788.13 329.804 789.39 329.804Z" fill="black"/>
<path d="M932.761 307.688V303.909H955.276V307.688H946.199V333H941.824V307.688H932.761ZM964.157 320.045V333H959.91V303.909H964.1V314.733H964.37C964.881 313.559 965.663 312.626 966.714 311.935C967.765 311.243 969.138 310.898 970.833 310.898C972.329 310.898 973.636 311.205 974.754 311.821C975.88 312.437 976.752 313.355 977.367 314.577C977.992 315.789 978.305 317.304 978.305 319.122V333H974.058V319.634C974.058 318.033 973.646 316.793 972.822 315.912C971.998 315.022 970.852 314.577 969.384 314.577C968.38 314.577 967.481 314.79 966.685 315.216C965.899 315.642 965.279 316.267 964.825 317.091C964.379 317.905 964.157 318.89 964.157 320.045ZM997.793 323.952V311.182H1002.05V333H997.879V329.222H997.651C997.149 330.386 996.344 331.357 995.237 332.134C994.138 332.901 992.77 333.284 991.131 333.284C989.73 333.284 988.489 332.976 987.41 332.361C986.34 331.736 985.497 330.812 984.881 329.591C984.275 328.369 983.972 326.859 983.972 325.06V311.182H988.219V324.548C988.219 326.035 988.631 327.219 989.455 328.099C990.279 328.98 991.349 329.42 992.665 329.42C993.461 329.42 994.252 329.222 995.038 328.824C995.833 328.426 996.491 327.825 997.012 327.02C997.542 326.215 997.803 325.192 997.793 323.952Z" fill="black"/>
<path d="M1148.2 333V303.909H1166.24V307.688H1152.59V316.551H1164.94V320.315H1152.59V333H1148.2ZM1171.02 333V311.182H1175.12V314.648H1175.35C1175.75 313.473 1176.45 312.55 1177.45 311.878C1178.47 311.196 1179.61 310.855 1180.89 310.855C1181.16 310.855 1181.47 310.865 1181.83 310.884C1182.2 310.902 1182.49 310.926 1182.7 310.955V315.017C1182.52 314.97 1182.22 314.918 1181.79 314.861C1181.35 314.795 1180.92 314.761 1180.48 314.761C1179.48 314.761 1178.58 314.974 1177.79 315.401C1177.02 315.817 1176.4 316.4 1175.95 317.148C1175.49 317.886 1175.27 318.729 1175.27 319.676V333H1171.02ZM1186.37 333V311.182H1190.62V333H1186.37ZM1188.52 307.815C1187.78 307.815 1187.14 307.569 1186.61 307.077C1186.09 306.575 1185.83 305.978 1185.83 305.287C1185.83 304.586 1186.09 303.99 1186.61 303.497C1187.14 302.995 1187.78 302.744 1188.52 302.744C1189.25 302.744 1189.88 302.995 1190.4 303.497C1190.94 303.99 1191.2 304.586 1191.2 305.287C1191.2 305.978 1190.94 306.575 1190.4 307.077C1189.88 307.569 1189.25 307.815 1188.52 307.815Z" fill="black"/>
<path d="M1378.06 311.551C1377.91 310.206 1377.29 309.165 1376.19 308.426C1375.09 307.678 1373.71 307.304 1372.04 307.304C1370.85 307.304 1369.81 307.493 1368.94 307.872C1368.07 308.241 1367.39 308.753 1366.91 309.406C1366.44 310.05 1366.2 310.784 1366.2 311.608C1366.2 312.299 1366.36 312.896 1366.68 313.398C1367.02 313.9 1367.45 314.321 1367.98 314.662C1368.52 314.993 1369.09 315.273 1369.71 315.5C1370.33 315.718 1370.92 315.898 1371.49 316.04L1374.33 316.778C1375.25 317.006 1376.21 317.313 1377.18 317.702C1378.16 318.09 1379.06 318.601 1379.89 319.236C1380.73 319.87 1381.4 320.656 1381.91 321.594C1382.43 322.531 1382.69 323.653 1382.69 324.96C1382.69 326.608 1382.27 328.071 1381.41 329.349C1380.57 330.628 1379.35 331.636 1377.74 332.375C1376.14 333.114 1374.2 333.483 1371.93 333.483C1369.75 333.483 1367.86 333.137 1366.27 332.446C1364.68 331.755 1363.44 330.775 1362.54 329.506C1361.64 328.227 1361.14 326.712 1361.05 324.96H1365.45C1365.53 326.011 1365.88 326.887 1366.47 327.588C1367.08 328.279 1367.85 328.795 1368.79 329.136C1369.73 329.468 1370.77 329.634 1371.9 329.634C1373.14 329.634 1374.24 329.439 1375.21 329.051C1376.18 328.653 1376.95 328.104 1377.51 327.403C1378.07 326.693 1378.35 325.865 1378.35 324.918C1378.35 324.056 1378.1 323.35 1377.61 322.801C1377.13 322.252 1376.47 321.797 1375.63 321.438C1374.81 321.078 1373.88 320.76 1372.84 320.486L1369.4 319.548C1367.07 318.914 1365.22 317.981 1363.86 316.75C1362.5 315.519 1361.83 313.89 1361.83 311.864C1361.83 310.187 1362.28 308.724 1363.19 307.474C1364.1 306.224 1365.33 305.254 1366.88 304.562C1368.44 303.862 1370.19 303.511 1372.14 303.511C1374.11 303.511 1375.85 303.857 1377.35 304.548C1378.87 305.24 1380.06 306.191 1380.93 307.403C1381.8 308.606 1382.26 309.989 1382.3 311.551H1378.06ZM1393.95 333.483C1392.56 333.483 1391.31 333.227 1390.2 332.716C1389.08 332.195 1388.19 331.442 1387.54 330.457C1386.9 329.473 1386.57 328.265 1386.57 326.835C1386.57 325.604 1386.81 324.591 1387.28 323.795C1387.76 323 1388.4 322.37 1389.2 321.906C1390.01 321.442 1390.91 321.092 1391.9 320.855C1392.9 320.618 1393.91 320.438 1394.94 320.315C1396.25 320.164 1397.31 320.041 1398.12 319.946C1398.94 319.842 1399.53 319.676 1399.9 319.449C1400.27 319.222 1400.45 318.852 1400.45 318.341V318.241C1400.45 317.001 1400.1 316.04 1399.4 315.358C1398.71 314.676 1397.68 314.335 1396.3 314.335C1394.87 314.335 1393.75 314.652 1392.92 315.287C1392.11 315.912 1391.55 316.608 1391.23 317.375L1387.24 316.466C1387.72 315.14 1388.41 314.07 1389.32 313.256C1390.23 312.432 1391.29 311.835 1392.48 311.466C1393.68 311.087 1394.93 310.898 1396.25 310.898C1397.12 310.898 1398.04 311.002 1399.02 311.21C1400 311.409 1400.92 311.778 1401.77 312.318C1402.64 312.858 1403.34 313.63 1403.89 314.634C1404.44 315.628 1404.71 316.92 1404.71 318.511V333H1400.57V330.017H1400.4C1400.12 330.566 1399.71 331.106 1399.16 331.636C1398.61 332.167 1397.91 332.607 1397.04 332.957C1396.18 333.308 1395.15 333.483 1393.95 333.483ZM1394.87 330.074C1396.04 330.074 1397.05 329.842 1397.88 329.378C1398.72 328.914 1399.36 328.308 1399.8 327.56C1400.24 326.802 1400.47 325.992 1400.47 325.131V322.318C1400.32 322.47 1400.02 322.612 1399.59 322.744C1399.16 322.867 1398.67 322.976 1398.12 323.071C1397.57 323.156 1397.04 323.237 1396.52 323.312C1396 323.379 1395.56 323.436 1395.21 323.483C1394.39 323.587 1393.63 323.762 1392.95 324.009C1392.28 324.255 1391.74 324.61 1391.33 325.074C1390.94 325.528 1390.74 326.134 1390.74 326.892C1390.74 327.943 1391.12 328.739 1391.9 329.278C1392.68 329.809 1393.67 330.074 1394.87 330.074ZM1420.56 311.182V314.591H1408.64V311.182H1420.56ZM1411.83 305.955H1416.08V326.594C1416.08 327.418 1416.2 328.038 1416.45 328.455C1416.7 328.862 1417.01 329.141 1417.4 329.293C1417.8 329.435 1418.23 329.506 1418.69 329.506C1419.04 329.506 1419.33 329.482 1419.59 329.435C1419.85 329.387 1420.04 329.349 1420.19 329.321L1420.95 332.83C1420.71 332.924 1420.36 333.019 1419.9 333.114C1419.45 333.218 1418.88 333.275 1418.2 333.284C1417.08 333.303 1416.04 333.104 1415.07 332.688C1414.11 332.271 1413.33 331.627 1412.73 330.756C1412.13 329.884 1411.83 328.791 1411.83 327.474V305.955Z" fill="black"/>
<path d="M1592.06 311.551C1591.91 310.206 1591.29 309.165 1590.19 308.426C1589.09 307.678 1587.71 307.304 1586.04 307.304C1584.85 307.304 1583.81 307.493 1582.94 307.872C1582.07 308.241 1581.39 308.753 1580.91 309.406C1580.44 310.05 1580.2 310.784 1580.2 311.608C1580.2 312.299 1580.36 312.896 1580.68 313.398C1581.02 313.9 1581.45 314.321 1581.98 314.662C1582.52 314.993 1583.09 315.273 1583.71 315.5C1584.33 315.718 1584.92 315.898 1585.49 316.04L1588.33 316.778C1589.25 317.006 1590.21 317.313 1591.18 317.702C1592.16 318.09 1593.06 318.601 1593.89 319.236C1594.73 319.87 1595.4 320.656 1595.91 321.594C1596.43 322.531 1596.69 323.653 1596.69 324.96C1596.69 326.608 1596.27 328.071 1595.41 329.349C1594.57 330.628 1593.35 331.636 1591.74 332.375C1590.14 333.114 1588.2 333.483 1585.93 333.483C1583.75 333.483 1581.86 333.137 1580.27 332.446C1578.68 331.755 1577.44 330.775 1576.54 329.506C1575.64 328.227 1575.14 326.712 1575.05 324.96H1579.45C1579.53 326.011 1579.88 326.887 1580.47 327.588C1581.08 328.279 1581.85 328.795 1582.79 329.136C1583.73 329.468 1584.77 329.634 1585.9 329.634C1587.14 329.634 1588.24 329.439 1589.21 329.051C1590.18 328.653 1590.95 328.104 1591.51 327.403C1592.07 326.693 1592.35 325.865 1592.35 324.918C1592.35 324.056 1592.1 323.35 1591.61 322.801C1591.13 322.252 1590.47 321.797 1589.63 321.438C1588.81 321.078 1587.88 320.76 1586.84 320.486L1583.4 319.548C1581.07 318.914 1579.22 317.981 1577.86 316.75C1576.5 315.519 1575.83 313.89 1575.83 311.864C1575.83 310.187 1576.28 308.724 1577.19 307.474C1578.1 306.224 1579.33 305.254 1580.88 304.562C1582.44 303.862 1584.19 303.511 1586.14 303.511C1588.11 303.511 1589.85 303.857 1591.35 304.548C1592.87 305.24 1594.06 306.191 1594.93 307.403C1595.8 308.606 1596.26 309.989 1596.3 311.551H1592.06ZM1615.42 323.952V311.182H1619.68V333H1615.5V329.222H1615.28C1614.77 330.386 1613.97 331.357 1612.86 332.134C1611.76 332.901 1610.39 333.284 1608.76 333.284C1607.35 333.284 1606.11 332.976 1605.03 332.361C1603.96 331.736 1603.12 330.812 1602.51 329.591C1601.9 328.369 1601.6 326.859 1601.6 325.06V311.182H1605.84V324.548C1605.84 326.035 1606.26 327.219 1607.08 328.099C1607.9 328.98 1608.97 329.42 1610.29 329.42C1611.09 329.42 1611.88 329.222 1612.66 328.824C1613.46 328.426 1614.12 327.825 1614.64 327.02C1615.17 326.215 1615.43 325.192 1615.42 323.952ZM1629.63 320.045V333H1625.39V311.182H1629.46V314.733H1629.73C1630.23 313.578 1631.02 312.65 1632.09 311.949C1633.17 311.248 1634.53 310.898 1636.17 310.898C1637.65 310.898 1638.96 311.21 1640.07 311.835C1641.19 312.451 1642.06 313.369 1642.67 314.591C1643.29 315.812 1643.6 317.323 1643.6 319.122V333H1639.35V319.634C1639.35 318.052 1638.94 316.816 1638.11 315.926C1637.29 315.027 1636.16 314.577 1634.72 314.577C1633.73 314.577 1632.86 314.79 1632.09 315.216C1631.33 315.642 1630.73 316.267 1630.29 317.091C1629.85 317.905 1629.63 318.89 1629.63 320.045Z" fill="black"/>
</g>
<defs>
<filter id="filter0_d_1_94" x="169" y="238" width="1583" height="890" filterUnits="userSpaceOnUse" color-interpolation-filters="sRGB">
<feFlood flood-opacity="0" result="BackgroundImageFix"/>
<feColorMatrix in="SourceAlpha" type="matrix" values="0 0 0 0 0 0 0 0 0 0 0 0 0 0 0 0 0 0 127 0" result="hardAlpha"/>
<feOffset dy="4"/>
<feGaussianBlur stdDeviation="2"/>
<feComposite in2="hardAlpha" operator="out"/>
<feColorMatrix type="matrix" values="0 0 0 0 0 0 0 0 0 0 0 0 0 0 0 0 0 0 0.25 0"/>
<feBlend mode="normal" in2="BackgroundImageFix" result="effect1_dropShadow_1_94"/>
<feBlend mode="normal" in="SourceGraphic" in2="effect1_dropShadow_1_94" result="shape"/>
</filter>
<filter id="filter1_d_1_94" x="235" y="386" width="191.938" height="119.565" filterUnits="userSpaceOnUse" color-interpolation-filters="sRGB">
<feFlood flood-opacity="0" result="BackgroundImageFix"/>
<feColorMatrix in="SourceAlpha" type="matrix" values="0 0 0 0 0 0 0 0 0 0 0 0 0 0 0 0 0 0 127 0" result="hardAlpha"/>
<feOffset dy="2"/>
<feGaussianBlur stdDeviation="2"/>
<feComposite in2="hardAlpha" operator="out"/>
<feColorMatrix type="matrix" values="0 0 0 0 0 0 0 0 0 0 0 0 0 0 0 0 0 0 0.04 0"/>
<feBlend mode="normal" in2="BackgroundImageFix" result="effect1_dropShadow_1_94"/>
<feBlend mode="normal" in="SourceGraphic" in2="effect1_dropShadow_1_94" result="shape"/>
</filter>
<filter id="filter2_d_1_94" x="448.938" y="386" width="191.938" height="119.565" filterUnits="userSpaceOnUse" color-interpolation-filters="sRGB">
<feFlood flood-opacity="0" result="BackgroundImageFix"/>
<feColorMatrix in="SourceAlpha" type="matrix" values="0 0 0 0 0 0 0 0 0 0 0 0 0 0 0 0 0 0 127 0" result="hardAlpha"/>
<feOffset dy="2"/>
<feGaussianBlur stdDeviation="2"/>
<feComposite in2="hardAlpha" operator="out"/>
<feColorMatrix type="matrix" values="0 0 0 0 0 0 0 0 0 0 0 0 0 0 0 0 0 0 0.04 0"/>
<feBlend mode="normal" in2="BackgroundImageFix" result="effect1_dropShadow_1_94"/>
<feBlend mode="normal" in="SourceGraphic" in2="effect1_dropShadow_1_94" result="shape"/>
</filter>
<filter id="filter3_d_1_94" x="662.876" y="386" width="191.938" height="119.565" filterUnits="userSpaceOnUse" color-interpolation-filters="sRGB">
<feFlood flood-opacity="0" result="BackgroundImageFix"/>
<feColorMatrix in="SourceAlpha" type="matrix" values="0 0 0 0 0 0 0 0 0 0 0 0 0 0 0 0 0 0 127 0" result="hardAlpha"/>
<feOffset dy="2"/>
<feGaussianBlur stdDeviation="2"/>
<feComposite in2="hardAlpha" operator="out"/>
<feColorMatrix type="matrix" values="0 0 0 0 0 0 0 0 0 0 0 0 0 0 0 0 0 0 0.04 0"/>
<feBlend mode="normal" in2="BackgroundImageFix" result="effect1_dropShadow_1_94"/>
<feBlend mode="normal" in="SourceGraphic" in2="effect1_dropShadow_1_94" result="shape"/>
</filter>
<filter id="filter4_d_1_94" x="876.814" y="386" width="191.938" height="119.565" filterUnits="userSpaceOnUse" color-interpolation-filters="sRGB">
<feFlood flood-opacity="0" result="BackgroundImageFix"/>
<feColorMatrix in="SourceAlpha" type="matrix" values="0 0 0 0 0 0 0 0 0 0 0 0 0 0 0 0 0 0 127 0" result="hardAlpha"/>
<feOffset dy="2"/>
<feGaussianBlur stdDeviation="2"/>
<feComposite in2="hardAlpha" operator="out"/>
<feColorMatrix type="matrix" values="0 0 0 0 0 0 0 0 0 0 0 0 0 0 0 0 0 0 0.04 0"/>
<feBlend mode="normal" in2="BackgroundImageFix" result="effect1_dropShadow_1_94"/>
<feBlend mode="normal" in="SourceGraphic" in2="effect1_dropShadow_1_94" result="shape"/>
</filter>
<filter id="filter5_d_1_94" x="1090.75" y="386" width="191.938" height="119.565" filterUnits="userSpaceOnUse" color-interpolation-filters="sRGB">
<feFlood flood-opacity="0" result="BackgroundImageFix"/>
<feColorMatrix in="SourceAlpha" type="matrix" values="0 0 0 0 0 0 0 0 0 0 0 0 0 0 0 0 0 0 127 0" result="hardAlpha"/>
<feOffset dy="2"/>
<feGaussianBlur stdDeviation="2"/>
<feComposite in2="hardAlpha" operator="out"/>
<feColorMatrix type="matrix" values="0 0 0 0 0 0 0 0 0 0 0 0 0 0 0 0 0 0 0.04 0"/>
<feBlend mode="normal" in2="BackgroundImageFix" result="effect1_dropShadow_1_94"/>
<feBlend mode="normal" in="SourceGraphic" in2="effect1_dropShadow_1_94" result="shape"/>
</filter>
<filter id="filter6_d_1_94" x="1304.69" y="386" width="191.938" height="119.565" filterUnits="userSpaceOnUse" color-interpolation-filters="sRGB">
<feFlood flood-opacity="0" result="BackgroundImageFix"/>
<feColorMatrix in="SourceAlpha" type="matrix" values="0 0 0 0 0 0 0 0 0 0 0 0 0 0 0 0 0 0 127 0" result="hardAlpha"/>
<feOffset dy="2"/>
<feGaussianBlur stdDeviation="2"/>
<feComposite in2="hardAlpha" operator="out"/>
<feColorMatrix type="matrix" values="0 0 0 0 0 0 0 0 0 0 0 0 0 0 0 0 0 0 0.04 0"/>
<feBlend mode="normal" in2="BackgroundImageFix" result="effect1_dropShadow_1_94"/>
<feBlend mode="normal" in="SourceGraphic" in2="effect1_dropShadow_1_94" result="shape"/>
</filter>
<filter id="filter7_d_1_94" x="1519" y="386" width="191.938" height="119.565" filterUnits="userSpaceOnUse" color-interpolation-filters="sRGB">
<feFlood flood-opacity="0" result="BackgroundImageFix"/>
<feColorMatrix in="SourceAlpha" type="matrix" values="0 0 0 0 0 0 0 0 0 0 0 0 0 0 0 0 0 0 127 0" result="hardAlpha"/>
<feOffset dy="2"/>
<feGaussianBlur stdDeviation="2"/>
<feComposite in2="hardAlpha" operator="out"/>
<feColorMatrix type="matrix" values="0 0 0 0 0 0 0 0 0 0 0 0 0 0 0 0 0 0 0.04 0"/>
<feBlend mode="normal" in2="BackgroundImageFix" result="effect1_dropShadow_1_94"/>
<feBlend mode="normal" in="SourceGraphic" in2="effect1_dropShadow_1_94" result="shape"/>
</filter>
<filter id="filter8_d_1_94" x="235" y="527.565" width="191.938" height="119.565" filterUnits="userSpaceOnUse" color-interpolation-filters="sRGB">
<feFlood flood-opacity="0" result="BackgroundImageFix"/>
<feColorMatrix in="SourceAlpha" type="matrix" values="0 0 0 0 0 0 0 0 0 0 0 0 0 0 0 0 0 0 127 0" result="hardAlpha"/>
<feOffset dy="2"/>
<feGaussianBlur stdDeviation="2"/>
<feComposite in2="hardAlpha" operator="out"/>
<feColorMatrix type="matrix" values="0 0 0 0 0 0 0 0 0 0 0 0 0 0 0 0 0 0 0.04 0"/>
<feBlend mode="normal" in2="BackgroundImageFix" result="effect1_dropShadow_1_94"/>
<feBlend mode="normal" in="SourceGraphic" in2="effect1_dropShadow_1_94" result="shape"/>
</filter>
<filter id="filter9_d_1_94" x="448.938" y="527.565" width="191.938" height="119.565" filterUnits="userSpaceOnUse" color-interpolation-filters="sRGB">
<feFlood flood-opacity="0" result="BackgroundImageFix"/>
<feColorMatrix in="SourceAlpha" type="matrix" values="0 0 0 0 0 0 0 0 0 0 0 0 0 0 0 0 0 0 127 0" result="hardAlpha"/>
<feOffset dy="2"/>
<feGaussianBlur stdDeviation="2"/>
<feComposite in2="hardAlpha" operator="out"/>
<feColorMatrix type="matrix" values="0 0 0 0 0 0 0 0 0 0 0 0 0 0 0 0 0 0 0.04 0"/>
<feBlend mode="normal" in2="BackgroundImageFix" result="effect1_dropShadow_1_94"/>
<feBlend mode="normal" in="SourceGraphic" in2="effect1_dropShadow_1_94" result="shape"/>
</filter>
<filter id="filter10_d_1_94" x="662.876" y="527.565" width="191.938" height="119.565" filterUnits="userSpaceOnUse" color-interpolation-filters="sRGB">
<feFlood flood-opacity="0" result="BackgroundImageFix"/>
<feColorMatrix in="SourceAlpha" type="matrix" values="0 0 0 0 0 0 0 0 0 0 0 0 0 0 0 0 0 0 127 0" result="hardAlpha"/>
<feOffset dy="2"/>
<feGaussianBlur stdDeviation="2"/>
<feComposite in2="hardAlpha" operator="out"/>
<feColorMatrix type="matrix" values="0 0 0 0 0 0 0 0 0 0 0 0 0 0 0 0 0 0 0.04 0"/>
<feBlend mode="normal" in2="BackgroundImageFix" result="effect1_dropShadow_1_94"/>
<feBlend mode="normal" in="SourceGraphic" in2="effect1_dropShadow_1_94" result="shape"/>
</filter>
<filter id="filter11_d_1_94" x="876.814" y="527.565" width="191.938" height="119.565" filterUnits="userSpaceOnUse" color-interpolation-filters="sRGB">
<feFlood flood-opacity="0" result="BackgroundImageFix"/>
<feColorMatrix in="SourceAlpha" type="matrix" values="0 0 0 0 0 0 0 0 0 0 0 0 0 0 0 0 0 0 127 0" result="hardAlpha"/>
<feOffset dy="2"/>
<feGaussianBlur stdDeviation="2"/>
<feComposite in2="hardAlpha" operator="out"/>
<feColorMatrix type="matrix" values="0 0 0 0 0 0 0 0 0 0 0 0 0 0 0 0 0 0 0.04 0"/>
<feBlend mode="normal" in2="BackgroundImageFix" result="effect1_dropShadow_1_94"/>
<feBlend mode="normal" in="SourceGraphic" in2="effect1_dropShadow_1_94" result="shape"/>
</filter>
<filter id="filter12_d_1_94" x="1090.75" y="527.565" width="191.938" height="119.565" filterUnits="userSpaceOnUse" color-interpolation-filters="sRGB">
<feFlood flood-opacity="0" result="BackgroundImageFix"/>
<feColorMatrix in="SourceAlpha" type="matrix" values="0 0 0 0 0 0 0 0 0 0 0 0 0 0 0 0 0 0 127 0" result="hardAlpha"/>
<feOffset dy="2"/>
<feGaussianBlur stdDeviation="2"/>
<feComposite in2="hardAlpha" operator="out"/>
<feColorMatrix type="matrix" values="0 0 0 0 0 0 0 0 0 0 0 0 0 0 0 0 0 0 0.04 0"/>
<feBlend mode="normal" in2="BackgroundImageFix" result="effect1_dropShadow_1_94"/>
<feBlend mode="normal" in="SourceGraphic" in2="effect1_dropShadow_1_94" result="shape"/>
</filter>
<filter id="filter13_d_1_94" x="1304.69" y="527.565" width="191.938" height="119.565" filterUnits="userSpaceOnUse" color-interpolation-filters="sRGB">
<feFlood flood-opacity="0" result="BackgroundImageFix"/>
<feColorMatrix in="SourceAlpha" type="matrix" values="0 0 0 0 0 0 0 0 0 0 0 0 0 0 0 0 0 0 127 0" result="hardAlpha"/>
<feOffset dy="2"/>
<feGaussianBlur stdDeviation="2"/>
<feComposite in2="hardAlpha" operator="out"/>
<feColorMatrix type="matrix" values="0 0 0 0 0 0 0 0 0 0 0 0 0 0 0 0 0 0 0.04 0"/>
<feBlend mode="normal" in2="BackgroundImageFix" result="effect1_dropShadow_1_94"/>
<feBlend mode="normal" in="SourceGraphic" in2="effect1_dropShadow_1_94" result="shape"/>
</filter>
<filter id="filter14_d_1_94" x="1519" y="527.565" width="191.938" height="119.565" filterUnits="userSpaceOnUse" color-interpolation-filters="sRGB">
<feFlood flood-opacity="0" result="BackgroundImageFix"/>
<feColorMatrix in="SourceAlpha" type="matrix" values="0 0 0 0 0 0 0 0 0 0 0 0 0 0 0 0 0 0 127 0" result="hardAlpha"/>
<feOffset dy="2"/>
<feGaussianBlur stdDeviation="2"/>
<feComposite in2="hardAlpha" operator="out"/>
<feColorMatrix type="matrix" values="0 0 0 0 0 0 0 0 0 0 0 0 0 0 0 0 0 0 0.04 0"/>
<feBlend mode="normal" in2="BackgroundImageFix" result="effect1_dropShadow_1_94"/>
<feBlend mode="normal" in="SourceGraphic" in2="effect1_dropShadow_1_94" result="shape"/>
</filter>
<filter id="filter15_d_1_94" x="235" y="669.13" width="191.938" height="119.565" filterUnits="userSpaceOnUse" color-interpolation-filters="sRGB">
<feFlood flood-opacity="0" result="BackgroundImageFix"/>
<feColorMatrix in="SourceAlpha" type="matrix" values="0 0 0 0 0 0 0 0 0 0 0 0 0 0 0 0 0 0 127 0" result="hardAlpha"/>
<feOffset dy="2"/>
<feGaussianBlur stdDeviation="2"/>
<feComposite in2="hardAlpha" operator="out"/>
<feColorMatrix type="matrix" values="0 0 0 0 0 0 0 0 0 0 0 0 0 0 0 0 0 0 0.04 0"/>
<feBlend mode="normal" in2="BackgroundImageFix" result="effect1_dropShadow_1_94"/>
<feBlend mode="normal" in="SourceGraphic" in2="effect1_dropShadow_1_94" result="shape"/>
</filter>
<filter id="filter16_d_1_94" x="448.938" y="669.13" width="191.938" height="119.565" filterUnits="userSpaceOnUse" color-interpolation-filters="sRGB">
<feFlood flood-opacity="0" result="BackgroundImageFix"/>
<feColorMatrix in="SourceAlpha" type="matrix" values="0 0 0 0 0 0 0 0 0 0 0 0 0 0 0 0 0 0 127 0" result="hardAlpha"/>
<feOffset dy="2"/>
<feGaussianBlur stdDeviation="2"/>
<feComposite in2="hardAlpha" operator="out"/>
<feColorMatrix type="matrix" values="0 0 0 0 0 0 0 0 0 0 0 0 0 0 0 0 0 0 0.04 0"/>
<feBlend mode="normal" in2="BackgroundImageFix" result="effect1_dropShadow_1_94"/>
<feBlend mode="normal" in="SourceGraphic" in2="effect1_dropShadow_1_94" result="shape"/>
</filter>
<filter id="filter17_d_1_94" x="662.876" y="669.13" width="191.938" height="119.565" filterUnits="userSpaceOnUse" color-interpolation-filters="sRGB">
<feFlood flood-opacity="0" result="BackgroundImageFix"/>
<feColorMatrix in="SourceAlpha" type="matrix" values="0 0 0 0 0 0 0 0 0 0 0 0 0 0 0 0 0 0 127 0" result="hardAlpha"/>
<feOffset dy="2"/>
<feGaussianBlur stdDeviation="2"/>
<feComposite in2="hardAlpha" operator="out"/>
<feColorMatrix type="matrix" values="0 0 0 0 0 0 0 0 0 0 0 0 0 0 0 0 0 0 0.04 0"/>
<feBlend mode="normal" in2="BackgroundImageFix" result="effect1_dropShadow_1_94"/>
<feBlend mode="normal" in="SourceGraphic" in2="effect1_dropShadow_1_94" result="shape"/>
</filter>
<filter id="filter18_d_1_94" x="876.814" y="669.13" width="191.938" height="119.565" filterUnits="userSpaceOnUse" color-interpolation-filters="sRGB">
<feFlood flood-opacity="0" result="BackgroundImageFix"/>
<feColorMatrix in="SourceAlpha" type="matrix" values="0 0 0 0 0 0 0 0 0 0 0 0 0 0 0 0 0 0 127 0" result="hardAlpha"/>
<feOffset dy="2"/>
<feGaussianBlur stdDeviation="2"/>
<feComposite in2="hardAlpha" operator="out"/>
<feColorMatrix type="matrix" values="0 0 0 0 0 0 0 0 0 0 0 0 0 0 0 0 0 0 0.04 0"/>
<feBlend mode="normal" in2="BackgroundImageFix" result="effect1_dropShadow_1_94"/>
<feBlend mode="normal" in="SourceGraphic" in2="effect1_dropShadow_1_94" result="shape"/>
</filter>
<filter id="filter19_d_1_94" x="1090.75" y="669.13" width="191.938" height="119.565" filterUnits="userSpaceOnUse" color-interpolation-filters="sRGB">
<feFlood flood-opacity="0" result="BackgroundImageFix"/>
<feColorMatrix in="SourceAlpha" type="matrix" values="0 0 0 0 0 0 0 0 0 0 0 0 0 0 0 0 0 0 127 0" result="hardAlpha"/>
<feOffset dy="2"/>
<feGaussianBlur stdDeviation="2"/>
<feComposite in2="hardAlpha" operator="out"/>
<feColorMatrix type="matrix" values="0 0 0 0 0 0 0 0 0 0 0 0 0 0 0 0 0 0 0.04 0"/>
<feBlend mode="normal" in2="BackgroundImageFix" result="effect1_dropShadow_1_94"/>
<feBlend mode="normal" in="SourceGraphic" in2="effect1_dropShadow_1_94" result="shape"/>
</filter>
<filter id="filter20_d_1_94" x="1304.69" y="669.13" width="191.938" height="119.565" filterUnits="userSpaceOnUse" color-interpolation-filters="sRGB">
<feFlood flood-opacity="0" result="BackgroundImageFix"/>
<feColorMatrix in="SourceAlpha" type="matrix" values="0 0 0 0 0 0 0 0 0 0 0 0 0 0 0 0 0 0 127 0" result="hardAlpha"/>
<feOffset dy="2"/>
<feGaussianBlur stdDeviation="2"/>
<feComposite in2="hardAlpha" operator="out"/>
<feColorMatrix type="matrix" values="0 0 0 0 0 0 0 0 0 0 0 0 0 0 0 0 0 0 0.04 0"/>
<feBlend mode="normal" in2="BackgroundImageFix" result="effect1_dropShadow_1_94"/>
<feBlend mode="normal" in="SourceGraphic" in2="effect1_dropShadow_1_94" result="shape"/>
</filter>
<filter id="filter21_d_1_94" x="1519" y="669.13" width="191.938" height="119.565" filterUnits="userSpaceOnUse" color-interpolation-filters="sRGB">
<feFlood flood-opacity="0" result="BackgroundImageFix"/>
<feColorMatrix in="SourceAlpha" type="matrix" values="0 0 0 0 0 0 0 0 0 0 0 0 0 0 0 0 0 0 127 0" result="hardAlpha"/>
<feOffset dy="2"/>
<feGaussianBlur stdDeviation="2"/>
<feComposite in2="hardAlpha" operator="out"/>
<feColorMatrix type="matrix" values="0 0 0 0 0 0 0 0 0 0 0 0 0 0 0 0 0 0 0.04 0"/>
<feBlend mode="normal" in2="BackgroundImageFix" result="effect1_dropShadow_1_94"/>
<feBlend mode="normal" in="SourceGraphic" in2="effect1_dropShadow_1_94" result="shape"/>
</filter>
<filter id="filter22_d_1_94" x="235" y="810.695" width="191.938" height="119.565" filterUnits="userSpaceOnUse" color-interpolation-filters="sRGB">
<feFlood flood-opacity="0" result="BackgroundImageFix"/>
<feColorMatrix in="SourceAlpha" type="matrix" values="0 0 0 0 0 0 0 0 0 0 0 0 0 0 0 0 0 0 127 0" result="hardAlpha"/>
<feOffset dy="2"/>
<feGaussianBlur stdDeviation="2"/>
<feComposite in2="hardAlpha" operator="out"/>
<feColorMatrix type="matrix" values="0 0 0 0 0 0 0 0 0 0 0 0 0 0 0 0 0 0 0.04 0"/>
<feBlend mode="normal" in2="BackgroundImageFix" result="effect1_dropShadow_1_94"/>
<feBlend mode="normal" in="SourceGraphic" in2="effect1_dropShadow_1_94" result="shape"/>
</filter>
<filter id="filter23_d_1_94" x="448.938" y="810.695" width="191.938" height="119.565" filterUnits="userSpaceOnUse" color-interpolation-filters="sRGB">
<feFlood flood-opacity="0" result="BackgroundImageFix"/>
<feColorMatrix in="SourceAlpha" type="matrix" values="0 0 0 0 0 0 0 0 0 0 0 0 0 0 0 0 0 0 127 0" result="hardAlpha"/>
<feOffset dy="2"/>
<feGaussianBlur stdDeviation="2"/>
<feComposite in2="hardAlpha" operator="out"/>
<feColorMatrix type="matrix" values="0 0 0 0 0 0 0 0 0 0 0 0 0 0 0 0 0 0 0.04 0"/>
<feBlend mode="normal" in2="BackgroundImageFix" result="effect1_dropShadow_1_94"/>
<feBlend mode="normal" in="SourceGraphic" in2="effect1_dropShadow_1_94" result="shape"/>
</filter>
<filter id="filter24_d_1_94" x="662.876" y="810.695" width="191.938" height="119.565" filterUnits="userSpaceOnUse" color-interpolation-filters="sRGB">
<feFlood flood-opacity="0" result="BackgroundImageFix"/>
<feColorMatrix in="SourceAlpha" type="matrix" values="0 0 0 0 0 0 0 0 0 0 0 0 0 0 0 0 0 0 127 0" result="hardAlpha"/>
<feOffset dy="2"/>
<feGaussianBlur stdDeviation="2"/>
<feComposite in2="hardAlpha" operator="out"/>
<feColorMatrix type="matrix" values="0 0 0 0 0 0 0 0 0 0 0 0 0 0 0 0 0 0 0.04 0"/>
<feBlend mode="normal" in2="BackgroundImageFix" result="effect1_dropShadow_1_94"/>
<feBlend mode="normal" in="SourceGraphic" in2="effect1_dropShadow_1_94" result="shape"/>
</filter>
<filter id="filter25_d_1_94" x="876.814" y="810.695" width="191.938" height="119.565" filterUnits="userSpaceOnUse" color-interpolation-filters="sRGB">
<feFlood flood-opacity="0" result="BackgroundImageFix"/>
<feColorMatrix in="SourceAlpha" type="matrix" values="0 0 0 0 0 0 0 0 0 0 0 0 0 0 0 0 0 0 127 0" result="hardAlpha"/>
<feOffset dy="2"/>
<feGaussianBlur stdDeviation="2"/>
<feComposite in2="hardAlpha" operator="out"/>
<feColorMatrix type="matrix" values="0 0 0 0 0 0 0 0 0 0 0 0 0 0 0 0 0 0 0.04 0"/>
<feBlend mode="normal" in2="BackgroundImageFix" result="effect1_dropShadow_1_94"/>
<feBlend mode="normal" in="SourceGraphic" in2="effect1_dropShadow_1_94" result="shape"/>
</filter>
<filter id="filter26_d_1_94" x="1090.75" y="810.695" width="191.938" height="119.565" filterUnits="userSpaceOnUse" color-interpolation-filters="sRGB">
<feFlood flood-opacity="0" result="BackgroundImageFix"/>
<feColorMatrix in="SourceAlpha" type="matrix" values="0 0 0 0 0 0 0 0 0 0 0 0 0 0 0 0 0 0 127 0" result="hardAlpha"/>
<feOffset dy="2"/>
<feGaussianBlur stdDeviation="2"/>
<feComposite in2="hardAlpha" operator="out"/>
<feColorMatrix type="matrix" values="0 0 0 0 0 0 0 0 0 0 0 0 0 0 0 0 0 0 0.04 0"/>
<feBlend mode="normal" in2="BackgroundImageFix" result="effect1_dropShadow_1_94"/>
<feBlend mode="normal" in="SourceGraphic" in2="effect1_dropShadow_1_94" result="shape"/>
</filter>
<filter id="filter27_d_1_94" x="1304.69" y="810.695" width="191.938" height="119.565" filterUnits="userSpaceOnUse" color-interpolation-filters="sRGB">
<feFlood flood-opacity="0" result="BackgroundImageFix"/>
<feColorMatrix in="SourceAlpha" type="matrix" values="0 0 0 0 0 0 0 0 0 0 0 0 0 0 0 0 0 0 127 0" result="hardAlpha"/>
<feOffset dy="2"/>
<feGaussianBlur stdDeviation="2"/>
<feComposite in2="hardAlpha" operator="out"/>
<feColorMatrix type="matrix" values="0 0 0 0 0 0 0 0 0 0 0 0 0 0 0 0 0 0 0.04 0"/>
<feBlend mode="normal" in2="BackgroundImageFix" result="effect1_dropShadow_1_94"/>
<feBlend mode="normal" in="SourceGraphic" in2="effect1_dropShadow_1_94" result="shape"/>
</filter>
<filter id="filter28_d_1_94" x="1519" y="810.695" width="191.938" height="119.565" filterUnits="userSpaceOnUse" color-interpolation-filters="sRGB">
<feFlood flood-opacity="0" result="BackgroundImageFix"/>
<feColorMatrix in="SourceAlpha" type="matrix" values="0 0 0 0 0 0 0 0 0 0 0 0 0 0 0 0 0 0 127 0" result="hardAlpha"/>
<feOffset dy="2"/>
<feGaussianBlur stdDeviation="2"/>
<feComposite in2="hardAlpha" operator="out"/>
<feColorMatrix type="matrix" values="0 0 0 0 0 0 0 0 0 0 0 0 0 0 0 0 0 0 0.04 0"/>
<feBlend mode="normal" in2="BackgroundImageFix" result="effect1_dropShadow_1_94"/>
<feBlend mode="normal" in="SourceGraphic" in2="effect1_dropShadow_1_94" result="shape"/>
</filter>
<filter id="filter29_d_1_94" x="235" y="952.26" width="191.938" height="119.565" filterUnits="userSpaceOnUse" color-interpolation-filters="sRGB">
<feFlood flood-opacity="0" result="BackgroundImageFix"/>
<feColorMatrix in="SourceAlpha" type="matrix" values="0 0 0 0 0 0 0 0 0 0 0 0 0 0 0 0 0 0 127 0" result="hardAlpha"/>
<feOffset dy="2"/>
<feGaussianBlur stdDeviation="2"/>
<feComposite in2="hardAlpha" operator="out"/>
<feColorMatrix type="matrix" values="0 0 0 0 0 0 0 0 0 0 0 0 0 0 0 0 0 0 0.04 0"/>
<feBlend mode="normal" in2="BackgroundImageFix" result="effect1_dropShadow_1_94"/>
<feBlend mode="normal" in="SourceGraphic" in2="effect1_dropShadow_1_94" result="shape"/>
</filter>
<filter id="filter30_d_1_94" x="448.938" y="952.26" width="191.938" height="119.565" filterUnits="userSpaceOnUse" color-interpolation-filters="sRGB">
<feFlood flood-opacity="0" result="BackgroundImageFix"/>
<feColorMatrix in="SourceAlpha" type="matrix" values="0 0 0 0 0 0 0 0 0 0 0 0 0 0 0 0 0 0 127 0" result="hardAlpha"/>
<feOffset dy="2"/>
<feGaussianBlur stdDeviation="2"/>
<feComposite in2="hardAlpha" operator="out"/>
<feColorMatrix type="matrix" values="0 0 0 0 0 0 0 0 0 0 0 0 0 0 0 0 0 0 0.04 0"/>
<feBlend mode="normal" in2="BackgroundImageFix" result="effect1_dropShadow_1_94"/>
<feBlend mode="normal" in="SourceGraphic" in2="effect1_dropShadow_1_94" result="shape"/>
</filter>
<filter id="filter31_d_1_94" x="662.876" y="952.26" width="191.938" height="119.565" filterUnits="userSpaceOnUse" color-interpolation-filters="sRGB">
<feFlood flood-opacity="0" result="BackgroundImageFix"/>
<feColorMatrix in="SourceAlpha" type="matrix" values="0 0 0 0 0 0 0 0 0 0 0 0 0 0 0 0 0 0 127 0" result="hardAlpha"/>
<feOffset dy="2"/>
<feGaussianBlur stdDeviation="2"/>
<feComposite in2="hardAlpha" operator="out"/>
<feColorMatrix type="matrix" values="0 0 0 0 0 0 0 0 0 0 0 0 0 0 0 0 0 0 0.04 0"/>
<feBlend mode="normal" in2="BackgroundImageFix" result="effect1_dropShadow_1_94"/>
<feBlend mode="normal" in="SourceGraphic" in2="effect1_dropShadow_1_94" result="shape"/>
</filter>
<filter id="filter32_d_1_94" x="876.814" y="952.26" width="191.938" height="119.565" filterUnits="userSpaceOnUse" color-interpolation-filters="sRGB">
<feFlood flood-opacity="0" result="BackgroundImageFix"/>
<feColorMatrix in="SourceAlpha" type="matrix" values="0 0 0 0 0 0 0 0 0 0 0 0 0 0 0 0 0 0 127 0" result="hardAlpha"/>
<feOffset dy="2"/>
<feGaussianBlur stdDeviation="2"/>
<feComposite in2="hardAlpha" operator="out"/>
<feColorMatrix type="matrix" values="0 0 0 0 0 0 0 0 0 0 0 0 0 0 0 0 0 0 0.04 0"/>
<feBlend mode="normal" in2="BackgroundImageFix" result="effect1_dropShadow_1_94"/>
<feBlend mode="normal" in="SourceGraphic" in2="effect1_dropShadow_1_94" result="shape"/>
</filter>
<filter id="filter33_d_1_94" x="1090.75" y="952.26" width="191.938" height="119.565" filterUnits="userSpaceOnUse" color-interpolation-filters="sRGB">
<feFlood flood-opacity="0" result="BackgroundImageFix"/>
<feColorMatrix in="SourceAlpha" type="matrix" values="0 0 0 0 0 0 0 0 0 0 0 0 0 0 0 0 0 0 127 0" result="hardAlpha"/>
<feOffset dy="2"/>
<feGaussianBlur stdDeviation="2"/>
<feComposite in2="hardAlpha" operator="out"/>
<feColorMatrix type="matrix" values="0 0 0 0 0 0 0 0 0 0 0 0 0 0 0 0 0 0 0.04 0"/>
<feBlend mode="normal" in2="BackgroundImageFix" result="effect1_dropShadow_1_94"/>
<feBlend mode="normal" in="SourceGraphic" in2="effect1_dropShadow_1_94" result="shape"/>
</filter>
<filter id="filter34_d_1_94" x="1304.69" y="952.26" width="191.938" height="119.565" filterUnits="userSpaceOnUse" color-interpolation-filters="sRGB">
<feFlood flood-opacity="0" result="BackgroundImageFix"/>
<feColorMatrix in="SourceAlpha" type="matrix" values="0 0 0 0 0 0 0 0 0 0 0 0 0 0 0 0 0 0 127 0" result="hardAlpha"/>
<feOffset dy="2"/>
<feGaussianBlur stdDeviation="2"/>
<feComposite in2="hardAlpha" operator="out"/>
<feColorMatrix type="matrix" values="0 0 0 0 0 0 0 0 0 0 0 0 0 0 0 0 0 0 0.04 0"/>
<feBlend mode="normal" in2="BackgroundImageFix" result="effect1_dropShadow_1_94"/>
<feBlend mode="normal" in="SourceGraphic" in2="effect1_dropShadow_1_94" result="shape"/>
</filter>
<filter id="filter35_d_1_94" x="1519" y="952.26" width="191.938" height="119.565" filterUnits="userSpaceOnUse" color-interpolation-filters="sRGB">
<feFlood flood-opacity="0" result="BackgroundImageFix"/>
<feColorMatrix in="SourceAlpha" type="matrix" values="0 0 0 0 0 0 0 0 0 0 0 0 0 0 0 0 0 0 127 0" result="hardAlpha"/>
<feOffset dy="2"/>
<feGaussianBlur stdDeviation="2"/>
<feComposite in2="hardAlpha" operator="out"/>
<feColorMatrix type="matrix" values="0 0 0 0 0 0 0 0 0 0 0 0 0 0 0 0 0 0 0.04 0"/>
<feBlend mode="normal" in2="BackgroundImageFix" result="effect1_dropShadow_1_94"/>
<feBlend mode="normal" in="SourceGraphic" in2="effect1_dropShadow_1_94" result="shape"/>
</filter>
<clipPath id="clip0_1_94">
<rect width="1920" height="1080" fill="white"/>
</clipPath>
</defs>
</svg>
