<svg width="1920" height="1080" viewBox="0 0 1920 1080" fill="none" xmlns="http://www.w3.org/2000/svg">
<rect width="1920" height="1080" fill="#F3F4F6"/>
<path d="M359 152H709L799 244V840L709 928H359V152Z" fill="#4F46E5"/>
<path d="M436.561 527H428.968L442.794 487.727H451.576L465.422 527H457.828L447.338 495.781H447.032L436.561 527ZM436.811 511.602H457.521V517.316H436.811V511.602ZM492.906 497.545L482.416 527H474.746L464.257 497.545H471.659L478.428 519.425H478.735L485.523 497.545H492.906ZM505.341 527.594C503.475 527.594 501.794 527.262 500.298 526.597C498.815 525.92 497.639 524.923 496.77 523.606C495.913 522.289 495.485 520.665 495.485 518.735C495.485 517.073 495.792 515.699 496.405 514.612C497.019 513.526 497.856 512.656 498.917 512.004C499.979 511.352 501.174 510.86 502.503 510.528C503.846 510.183 505.233 509.933 506.665 509.78C508.39 509.601 509.79 509.441 510.864 509.3C511.938 509.147 512.718 508.917 513.204 508.61C513.702 508.29 513.952 507.798 513.952 507.134V507.018C513.952 505.574 513.523 504.455 512.667 503.663C511.81 502.87 510.577 502.474 508.966 502.474C507.265 502.474 505.917 502.844 504.92 503.586C503.935 504.327 503.27 505.203 502.925 506.213L496.444 505.293C496.955 503.503 497.799 502.007 498.975 500.805C500.151 499.591 501.589 498.683 503.29 498.082C504.99 497.469 506.869 497.162 508.927 497.162C510.346 497.162 511.759 497.328 513.165 497.661C514.572 497.993 515.856 498.543 517.02 499.31C518.183 500.064 519.116 501.093 519.819 502.397C520.535 503.701 520.893 505.331 520.893 507.287V527H514.22V522.954H513.99C513.568 523.772 512.974 524.539 512.206 525.255C511.452 525.958 510.5 526.527 509.349 526.962C508.211 527.384 506.876 527.594 505.341 527.594ZM507.144 522.494C508.537 522.494 509.746 522.219 510.768 521.669C511.791 521.107 512.577 520.365 513.127 519.445C513.689 518.524 513.971 517.521 513.971 516.434V512.963C513.753 513.142 513.383 513.308 512.858 513.462C512.347 513.615 511.772 513.749 511.133 513.864C510.493 513.979 509.861 514.082 509.234 514.171C508.608 514.261 508.064 514.337 507.604 514.401C506.569 514.542 505.642 514.772 504.824 515.092C504.006 515.411 503.36 515.859 502.887 516.434C502.414 516.996 502.177 517.725 502.177 518.62C502.177 519.898 502.644 520.864 503.577 521.516C504.51 522.168 505.699 522.494 507.144 522.494ZM527.873 527V497.545H534.815V527H527.873ZM531.363 493.365C530.264 493.365 529.318 493.001 528.525 492.272C527.733 491.531 527.336 490.642 527.336 489.607C527.336 488.558 527.733 487.67 528.525 486.941C529.318 486.2 530.264 485.829 531.363 485.829C532.476 485.829 533.422 486.2 534.202 486.941C534.994 487.67 535.39 488.558 535.39 489.607C535.39 490.642 534.994 491.531 534.202 492.272C533.422 493.001 532.476 493.365 531.363 493.365ZM548.895 487.727V527H541.953V487.727H548.895ZM564.509 527.594C562.643 527.594 560.962 527.262 559.466 526.597C557.983 525.92 556.807 524.923 555.938 523.606C555.081 522.289 554.653 520.665 554.653 518.735C554.653 517.073 554.96 515.699 555.573 514.612C556.187 513.526 557.024 512.656 558.085 512.004C559.146 511.352 560.342 510.86 561.671 510.528C563.014 510.183 564.401 509.933 565.833 509.78C567.558 509.601 568.958 509.441 570.032 509.3C571.106 509.147 571.886 508.917 572.372 508.61C572.87 508.29 573.119 507.798 573.119 507.134V507.018C573.119 505.574 572.691 504.455 571.835 503.663C570.978 502.87 569.744 502.474 568.134 502.474C566.433 502.474 565.085 502.844 564.088 503.586C563.103 504.327 562.438 505.203 562.093 506.213L555.612 505.293C556.123 503.503 556.967 502.007 558.143 500.805C559.319 499.591 560.757 498.683 562.458 498.082C564.158 497.469 566.037 497.162 568.095 497.162C569.514 497.162 570.927 497.328 572.333 497.661C573.74 497.993 575.024 498.543 576.188 499.31C577.351 500.064 578.284 501.093 578.987 502.397C579.703 503.701 580.061 505.331 580.061 507.287V527H573.388V522.954H573.158C572.736 523.772 572.142 524.539 571.374 525.255C570.62 525.958 569.668 526.527 568.517 526.962C567.379 527.384 566.044 527.594 564.509 527.594ZM566.312 522.494C567.705 522.494 568.914 522.219 569.936 521.669C570.959 521.107 571.745 520.365 572.295 519.445C572.857 518.524 573.139 517.521 573.139 516.434V512.963C572.921 513.142 572.551 513.308 572.026 513.462C571.515 513.615 570.94 513.749 570.301 513.864C569.661 513.979 569.029 514.082 568.402 514.171C567.776 514.261 567.232 514.337 566.772 514.401C565.737 514.542 564.81 514.772 563.992 515.092C563.173 515.411 562.528 515.859 562.055 516.434C561.582 516.996 561.345 517.725 561.345 518.62C561.345 519.898 561.812 520.864 562.745 521.516C563.678 522.168 564.867 522.494 566.312 522.494ZM587.348 527V487.727H594.29V502.416H594.578C594.936 501.7 595.441 500.94 596.093 500.134C596.744 499.316 597.627 498.619 598.739 498.044C599.851 497.456 601.27 497.162 602.996 497.162C605.271 497.162 607.323 497.744 609.151 498.907C610.992 500.058 612.45 501.764 613.524 504.027C614.61 506.277 615.154 509.038 615.154 512.311C615.154 515.545 614.623 518.294 613.562 520.557C612.501 522.82 611.056 524.545 609.228 525.734C607.4 526.923 605.329 527.518 603.015 527.518C601.328 527.518 599.928 527.237 598.816 526.674C597.703 526.112 596.808 525.434 596.131 524.641C595.466 523.836 594.948 523.075 594.578 522.359H594.175V527H587.348ZM594.156 512.273C594.156 514.178 594.424 515.846 594.961 517.278C595.511 518.71 596.297 519.828 597.32 520.634C598.355 521.426 599.608 521.822 601.078 521.822C602.612 521.822 603.897 521.413 604.933 520.595C605.968 519.764 606.748 518.633 607.272 517.201C607.809 515.756 608.078 514.114 608.078 512.273C608.078 510.445 607.816 508.821 607.291 507.402C606.767 505.983 605.987 504.871 604.952 504.065C603.916 503.26 602.625 502.857 601.078 502.857C599.595 502.857 598.336 503.247 597.301 504.027C596.265 504.807 595.479 505.9 594.942 507.306C594.418 508.712 594.156 510.368 594.156 512.273ZM621.055 527V497.545H627.997V527H621.055ZM624.545 493.365C623.446 493.365 622.5 493.001 621.707 492.272C620.914 491.531 620.518 490.642 620.518 489.607C620.518 488.558 620.914 487.67 621.707 486.941C622.5 486.2 623.446 485.829 624.545 485.829C625.657 485.829 626.603 486.2 627.383 486.941C628.176 487.67 628.572 488.558 628.572 489.607C628.572 490.642 628.176 491.531 627.383 492.272C626.603 493.001 625.657 493.365 624.545 493.365ZM642.077 487.727V527H635.135V487.727H642.077ZM649.215 527V497.545H656.157V527H649.215ZM652.705 493.365C651.606 493.365 650.66 493.001 649.867 492.272C649.075 491.531 648.678 490.642 648.678 489.607C648.678 488.558 649.075 487.67 649.867 486.941C650.66 486.2 651.606 485.829 652.705 485.829C653.817 485.829 654.763 486.2 655.543 486.941C656.336 487.67 656.732 488.558 656.732 489.607C656.732 490.642 656.336 491.531 655.543 492.272C654.763 493.001 653.817 493.365 652.705 493.365ZM678.003 497.545V502.915H661.071V497.545H678.003ZM665.251 490.489H672.193V518.141C672.193 519.074 672.334 519.79 672.615 520.288C672.909 520.774 673.292 521.107 673.765 521.286C674.238 521.464 674.763 521.554 675.338 521.554C675.773 521.554 676.169 521.522 676.527 521.458C676.898 521.394 677.179 521.337 677.371 521.286L678.54 526.712C678.17 526.84 677.639 526.981 676.949 527.134C676.271 527.288 675.44 527.377 674.456 527.403C672.717 527.454 671.151 527.192 669.758 526.616C668.364 526.028 667.258 525.121 666.44 523.893C665.635 522.666 665.238 521.132 665.251 519.291V490.489ZM688.124 538.045C687.178 538.045 686.302 537.969 685.496 537.815C684.704 537.675 684.071 537.509 683.598 537.317L685.209 531.909C686.219 532.203 687.12 532.344 687.913 532.331C688.705 532.318 689.402 532.069 690.003 531.583C690.616 531.11 691.134 530.317 691.556 529.205L692.151 527.614L681.469 497.545H688.833L695.621 519.79H695.928L702.736 497.545H710.119L698.325 530.567C697.776 532.126 697.047 533.462 696.139 534.575C695.232 535.7 694.119 536.556 692.803 537.144C691.499 537.745 689.939 538.045 688.124 538.045ZM544.549 565.268C544.23 564.233 543.789 563.306 543.226 562.488C542.677 561.657 542.012 560.947 541.232 560.359C540.465 559.771 539.583 559.33 538.586 559.036C537.589 558.729 536.502 558.576 535.326 558.576C533.216 558.576 531.337 559.107 529.688 560.168C528.039 561.229 526.741 562.788 525.795 564.847C524.862 566.892 524.395 569.385 524.395 572.325C524.395 575.291 524.862 577.803 525.795 579.862C526.728 581.92 528.026 583.486 529.688 584.56C531.35 585.621 533.28 586.151 535.479 586.151C537.473 586.151 539.199 585.768 540.657 585.001C542.127 584.234 543.258 583.147 544.051 581.741C544.843 580.322 545.24 578.66 545.24 576.755L546.851 577.004H536.189V571.443H552.124V576.161C552.124 579.523 551.408 582.431 549.976 584.886C548.544 587.34 546.576 589.232 544.07 590.562C541.564 591.879 538.688 592.537 535.441 592.537C531.823 592.537 528.646 591.725 525.91 590.102C523.187 588.465 521.059 586.145 519.525 583.141C518.003 580.124 517.243 576.544 517.243 572.402C517.243 569.232 517.69 566.4 518.585 563.907C519.493 561.414 520.758 559.298 522.382 557.56C524.005 555.808 525.91 554.479 528.096 553.571C530.282 552.651 532.66 552.19 535.23 552.19C537.403 552.19 539.429 552.51 541.309 553.149C543.188 553.776 544.856 554.67 546.314 555.834C547.784 556.997 548.992 558.378 549.938 559.976C550.884 561.574 551.504 563.338 551.798 565.268H544.549ZM558.697 592V562.545H565.427V567.455H565.734C566.271 565.754 567.192 564.444 568.496 563.523C569.812 562.59 571.315 562.124 573.002 562.124C573.386 562.124 573.814 562.143 574.287 562.181C574.773 562.207 575.175 562.251 575.495 562.315V568.701C575.201 568.599 574.734 568.509 574.095 568.433C573.469 568.343 572.861 568.298 572.273 568.298C571.008 568.298 569.87 568.573 568.86 569.123C567.863 569.66 567.077 570.408 566.501 571.366C565.926 572.325 565.638 573.431 565.638 574.684V592H558.697ZM580.107 592V562.545H587.049V592H580.107ZM583.597 558.365C582.497 558.365 581.551 558.001 580.759 557.272C579.966 556.531 579.57 555.642 579.57 554.607C579.57 553.558 579.966 552.67 580.759 551.941C581.551 551.2 582.497 550.829 583.597 550.829C584.709 550.829 585.655 551.2 586.435 551.941C587.228 552.67 587.624 553.558 587.624 554.607C587.624 555.642 587.228 556.531 586.435 557.272C585.655 558.001 584.709 558.365 583.597 558.365ZM605.117 592.518C602.803 592.518 600.732 591.923 598.904 590.734C597.076 589.545 595.631 587.82 594.57 585.557C593.509 583.294 592.979 580.545 592.979 577.311C592.979 574.038 593.516 571.277 594.59 569.027C595.676 566.764 597.14 565.058 598.981 563.907C600.822 562.744 602.874 562.162 605.136 562.162C606.862 562.162 608.281 562.456 609.394 563.044C610.506 563.619 611.388 564.316 612.04 565.134C612.692 565.94 613.197 566.7 613.555 567.416H613.842V552.727H620.803V592H613.977V587.359H613.555C613.197 588.075 612.679 588.836 612.002 589.641C611.324 590.434 610.429 591.112 609.317 591.674C608.205 592.237 606.805 592.518 605.117 592.518ZM607.054 586.822C608.524 586.822 609.777 586.426 610.813 585.634C611.848 584.828 612.634 583.71 613.171 582.278C613.708 580.846 613.977 579.178 613.977 577.273C613.977 575.368 613.708 573.712 613.171 572.306C612.647 570.9 611.867 569.807 610.832 569.027C609.809 568.247 608.55 567.857 607.054 567.857C605.507 567.857 604.216 568.26 603.18 569.065C602.145 569.871 601.365 570.983 600.841 572.402C600.317 573.821 600.055 575.445 600.055 577.273C600.055 579.114 600.317 580.756 600.841 582.201C601.378 583.633 602.164 584.764 603.2 585.595C604.248 586.413 605.533 586.822 607.054 586.822Z" fill="white"/>
<path d="M841 256H1104.37L1186 332V762L1104.37 835L841 840V256Z" fill="#8B5CF6"/>
<path d="M962.519 556V510.182H979.701C983.221 510.182 986.174 510.838 988.56 512.151C990.962 513.463 992.774 515.268 993.997 517.565C995.235 519.847 995.854 522.442 995.854 525.35C995.854 528.288 995.235 530.898 993.997 533.18C992.759 535.462 990.932 537.26 988.516 538.572C986.099 539.87 983.124 540.518 979.589 540.518H968.202V533.695H978.471C980.529 533.695 982.214 533.337 983.527 532.621C984.839 531.905 985.809 530.921 986.435 529.668C987.076 528.415 987.397 526.976 987.397 525.35C987.397 523.724 987.076 522.293 986.435 521.055C985.809 519.817 984.832 518.855 983.504 518.169C982.192 517.468 980.499 517.117 978.426 517.117H970.819V556H962.519ZM1017.2 556.671C1013.85 556.671 1010.94 555.933 1008.48 554.456C1006.02 552.98 1004.11 550.914 1002.75 548.259C1001.41 545.604 1000.74 542.502 1000.74 538.952C1000.74 535.403 1001.41 532.293 1002.75 529.623C1004.11 526.953 1006.02 524.88 1008.48 523.404C1010.94 521.927 1013.85 521.189 1017.2 521.189C1020.56 521.189 1023.47 521.927 1025.93 523.404C1028.39 524.88 1030.29 526.953 1031.63 529.623C1032.99 532.293 1033.67 535.403 1033.67 538.952C1033.67 542.502 1032.99 545.604 1031.63 548.259C1030.29 550.914 1028.39 552.98 1025.93 554.456C1023.47 555.933 1020.56 556.671 1017.2 556.671ZM1017.25 550.183C1019.07 550.183 1020.59 549.684 1021.81 548.684C1023.03 547.67 1023.94 546.313 1024.54 544.613C1025.15 542.912 1025.46 541.018 1025.46 538.93C1025.46 536.827 1025.15 534.925 1024.54 533.225C1023.94 531.51 1023.03 530.145 1021.81 529.131C1020.59 528.117 1019.07 527.61 1017.25 527.61C1015.38 527.61 1013.83 528.117 1012.59 529.131C1011.37 530.145 1010.45 531.51 1009.84 533.225C1009.25 534.925 1008.95 536.827 1008.95 538.93C1008.95 541.018 1009.25 542.912 1009.84 544.613C1010.45 546.313 1011.37 547.67 1012.59 548.684C1013.83 549.684 1015.38 550.183 1017.25 550.183ZM1048.64 510.182V556H1040.54V510.182H1048.64ZM1065.07 510.182V556H1056.97V510.182H1065.07Z" fill="white"/>
<path d="M1217 328H1465L1561 410V674L1465 752H1217V328Z" fill="#D946EF"/>
<path d="M1308.52 571V525.182H1325.7C1329.22 525.182 1332.17 525.793 1334.56 527.016C1336.96 528.239 1338.77 529.955 1340 532.162C1341.23 534.354 1341.85 536.912 1341.85 539.836C1341.85 542.774 1341.23 545.324 1339.97 547.487C1338.74 549.635 1336.91 551.298 1334.49 552.476C1332.08 553.639 1329.11 554.221 1325.59 554.221H1313.35V547.33H1324.47C1326.53 547.33 1328.21 547.047 1329.53 546.48C1330.84 545.898 1331.81 545.056 1332.44 543.952C1333.08 542.833 1333.4 541.461 1333.4 539.836C1333.4 538.21 1333.08 536.823 1332.44 535.674C1331.79 534.511 1330.82 533.631 1329.5 533.034C1328.19 532.423 1326.5 532.117 1324.43 532.117H1316.82V571H1308.52ZM1332.19 550.239L1343.53 571H1334.27L1323.13 550.239H1332.19ZM1374.39 537.777C1374.19 535.824 1373.31 534.302 1371.75 533.213C1370.22 532.125 1368.22 531.58 1365.76 531.58C1364.03 531.58 1362.54 531.841 1361.31 532.363C1360.07 532.885 1359.12 533.594 1358.47 534.489C1357.81 535.384 1357.47 536.405 1357.46 537.554C1357.46 538.508 1357.67 539.336 1358.11 540.037C1358.55 540.738 1359.16 541.335 1359.92 541.827C1360.68 542.304 1361.52 542.707 1362.45 543.035C1363.37 543.363 1364.3 543.639 1365.24 543.863L1369.54 544.936C1371.27 545.339 1372.93 545.884 1374.53 546.57C1376.14 547.256 1377.58 548.121 1378.85 549.165C1380.13 550.209 1381.14 551.469 1381.89 552.946C1382.63 554.422 1383.01 556.152 1383.01 558.136C1383.01 560.821 1382.32 563.185 1380.95 565.228C1379.58 567.256 1377.59 568.845 1375 569.993C1372.42 571.127 1369.29 571.694 1365.62 571.694C1362.06 571.694 1358.96 571.142 1356.34 570.038C1353.73 568.934 1351.69 567.324 1350.21 565.206C1348.75 563.088 1347.96 560.507 1347.84 557.465H1356C1356.12 559.061 1356.62 560.388 1357.48 561.447C1358.35 562.506 1359.47 563.297 1360.86 563.819C1362.26 564.341 1363.83 564.602 1365.56 564.602C1367.36 564.602 1368.94 564.333 1370.3 563.796C1371.67 563.244 1372.75 562.484 1373.52 561.514C1374.3 560.53 1374.69 559.381 1374.71 558.069C1374.69 556.876 1374.34 555.891 1373.66 555.116C1372.97 554.325 1372.01 553.669 1370.77 553.147C1369.55 552.61 1368.11 552.133 1366.47 551.715L1361.26 550.373C1357.49 549.403 1354.51 547.934 1352.31 545.966C1350.14 543.982 1349.05 541.349 1349.05 538.068C1349.05 535.369 1349.78 533.005 1351.24 530.976C1352.72 528.948 1354.72 527.374 1357.26 526.256C1359.79 525.122 1362.66 524.555 1365.87 524.555C1369.12 524.555 1371.97 525.122 1374.42 526.256C1376.88 527.374 1378.81 528.933 1380.21 530.931C1381.61 532.915 1382.34 535.197 1382.38 537.777H1374.39ZM1396.54 525.182L1408.46 561.246H1408.93L1420.83 525.182H1429.96L1413.81 571H1403.56L1387.43 525.182H1396.54ZM1436 571V525.182H1453.18C1456.7 525.182 1459.65 525.838 1462.04 527.151C1464.44 528.463 1466.25 530.268 1467.47 532.565C1468.71 534.847 1469.33 537.442 1469.33 540.35C1469.33 543.288 1468.71 545.898 1467.47 548.18C1466.24 550.462 1464.41 552.26 1461.99 553.572C1459.58 554.87 1456.6 555.518 1453.07 555.518H1441.68V548.695H1451.95C1454.01 548.695 1455.69 548.337 1457 547.621C1458.32 546.905 1459.29 545.921 1459.91 544.668C1460.55 543.415 1460.87 541.976 1460.87 540.35C1460.87 538.724 1460.55 537.293 1459.91 536.055C1459.29 534.817 1458.31 533.855 1456.98 533.169C1455.67 532.468 1453.98 532.117 1451.9 532.117H1444.3V571H1436Z" fill="white"/>
</svg>
