<svg width="1920" height="1080" viewBox="0 0 1920 1080" fill="none" xmlns="http://www.w3.org/2000/svg">
<g clip-path="url(#clip0_1_122)">
<rect width="1920" height="1080" fill="#F3F4F6"/>
<rect x="172.5" y="227.5" width="1574" height="881" rx="30.5" fill="white" stroke="#D3D7E0"/>
<rect x="255" y="314" width="132" height="128" rx="10" fill="#F3F4F6"/>
<rect x="255" y="510" width="132" height="128" rx="10" fill="#F3F4F6"/>
<rect x="255" y="706" width="132" height="128" rx="10" fill="#E5E7EB"/>
<rect x="255" y="706" width="132" height="128" rx="10" fill="#F3F4F6"/>
<rect x="255" y="902" width="132" height="128" rx="10" fill="#F3F4F6"/>
<path d="M453.798 393V389.818L463.642 379.619C464.693 378.511 465.56 377.541 466.241 376.707C466.933 375.865 467.449 375.064 467.79 374.307C468.131 373.549 468.301 372.744 468.301 371.892C468.301 370.926 468.074 370.093 467.619 369.392C467.165 368.682 466.545 368.137 465.759 367.759C464.973 367.37 464.087 367.176 463.102 367.176C462.061 367.176 461.152 367.389 460.375 367.815C459.598 368.241 459.002 368.843 458.585 369.619C458.169 370.396 457.96 371.305 457.96 372.347H453.77C453.77 370.576 454.177 369.027 454.991 367.702C455.806 366.376 456.923 365.348 458.344 364.619C459.764 363.881 461.379 363.511 463.188 363.511C465.015 363.511 466.625 363.876 468.017 364.605C469.419 365.325 470.512 366.31 471.298 367.56C472.084 368.8 472.477 370.202 472.477 371.764C472.477 372.844 472.274 373.9 471.866 374.932C471.469 375.964 470.773 377.115 469.778 378.384C468.784 379.643 467.402 381.172 465.631 382.972L459.849 389.023V389.236H472.946V393H453.798ZM488.159 393.398C486.123 393.398 484.324 393.047 482.761 392.347C481.208 391.646 479.991 390.68 479.111 389.449C478.23 388.218 477.795 386.816 477.804 385.244C477.795 384.013 478.045 382.882 478.557 381.849C479.078 380.808 479.783 379.941 480.673 379.25C481.563 378.549 482.558 378.104 483.656 377.915V377.744C482.207 377.394 481.047 376.617 480.176 375.415C479.305 374.212 478.874 372.83 478.884 371.267C478.874 369.78 479.267 368.455 480.062 367.29C480.867 366.116 481.971 365.192 483.372 364.52C484.774 363.848 486.369 363.511 488.159 363.511C489.93 363.511 491.511 363.852 492.903 364.534C494.305 365.206 495.408 366.13 496.213 367.304C497.018 368.469 497.425 369.79 497.435 371.267C497.425 372.83 496.98 374.212 496.099 375.415C495.219 376.617 494.073 377.394 492.662 377.744V377.915C493.751 378.104 494.731 378.549 495.602 379.25C496.483 379.941 497.184 380.808 497.705 381.849C498.235 382.882 498.505 384.013 498.514 385.244C498.505 386.816 498.06 388.218 497.179 389.449C496.298 390.68 495.077 391.646 493.514 392.347C491.961 393.047 490.176 393.398 488.159 393.398ZM488.159 389.804C489.362 389.804 490.403 389.605 491.284 389.207C492.165 388.8 492.847 388.237 493.33 387.517C493.813 386.788 494.059 385.936 494.068 384.96C494.059 383.947 493.794 383.052 493.273 382.276C492.761 381.499 492.065 380.888 491.185 380.443C490.304 379.998 489.295 379.776 488.159 379.776C487.013 379.776 485.995 379.998 485.105 380.443C484.215 380.888 483.514 381.499 483.003 382.276C482.491 383.052 482.241 383.947 482.25 384.96C482.241 385.936 482.473 386.788 482.946 387.517C483.429 388.237 484.116 388.8 485.006 389.207C485.896 389.605 486.947 389.804 488.159 389.804ZM488.159 376.267C489.125 376.267 489.982 376.073 490.73 375.685C491.478 375.296 492.065 374.757 492.491 374.065C492.927 373.374 493.15 372.564 493.159 371.636C493.15 370.727 492.932 369.932 492.506 369.25C492.089 368.568 491.507 368.043 490.759 367.673C490.01 367.295 489.144 367.105 488.159 367.105C487.155 367.105 486.275 367.295 485.517 367.673C484.769 368.043 484.187 368.568 483.77 369.25C483.353 369.932 483.15 370.727 483.159 371.636C483.15 372.564 483.358 373.374 483.784 374.065C484.21 374.757 484.797 375.296 485.545 375.685C486.303 376.073 487.174 376.267 488.159 376.267ZM525.893 363.909H530.268V384.534C530.268 386.4 529.899 387.995 529.161 389.321C528.431 390.647 527.404 391.66 526.078 392.361C524.752 393.052 523.199 393.398 521.419 393.398C519.781 393.398 518.308 393.099 517.001 392.503C515.704 391.906 514.677 391.04 513.919 389.903C513.171 388.758 512.797 387.366 512.797 385.727H517.158C517.158 386.532 517.342 387.228 517.712 387.815C518.09 388.402 518.607 388.862 519.26 389.193C519.923 389.515 520.68 389.676 521.533 389.676C522.461 389.676 523.247 389.482 523.891 389.094C524.544 388.696 525.041 388.114 525.382 387.347C525.723 386.58 525.893 385.642 525.893 384.534V363.909ZM550.137 383.952V371.182H554.398V393H550.222V389.222H549.995C549.493 390.386 548.688 391.357 547.58 392.134C546.482 392.901 545.113 393.284 543.475 393.284C542.074 393.284 540.833 392.976 539.754 392.361C538.683 391.736 537.841 390.812 537.225 389.591C536.619 388.369 536.316 386.859 536.316 385.06V371.182H540.563V384.548C540.563 386.035 540.975 387.219 541.799 388.099C542.623 388.98 543.693 389.42 545.009 389.42C545.805 389.42 546.595 389.222 547.381 388.824C548.177 388.426 548.835 387.825 549.356 387.02C549.886 386.215 550.147 385.192 550.137 383.952ZM564.352 380.045V393H560.105V371.182H564.182V374.733H564.452C564.954 373.578 565.74 372.65 566.81 371.949C567.889 371.248 569.248 370.898 570.886 370.898C572.373 370.898 573.675 371.21 574.793 371.835C575.91 372.451 576.777 373.369 577.392 374.591C578.008 375.812 578.315 377.323 578.315 379.122V393H574.068V379.634C574.068 378.052 573.656 376.816 572.832 375.926C572.009 375.027 570.877 374.577 569.438 374.577C568.453 374.577 567.577 374.79 566.81 375.216C566.052 375.642 565.451 376.267 565.006 377.091C564.57 377.905 564.352 378.89 564.352 380.045ZM593.415 393.44C591.265 393.44 589.414 392.981 587.861 392.062C586.317 391.134 585.124 389.832 584.281 388.156C583.448 386.471 583.031 384.496 583.031 382.233C583.031 379.998 583.448 378.028 584.281 376.324C585.124 374.619 586.298 373.289 587.804 372.332C589.319 371.376 591.09 370.898 593.116 370.898C594.348 370.898 595.541 371.101 596.696 371.509C597.851 371.916 598.888 372.555 599.807 373.426C600.725 374.297 601.45 375.429 601.98 376.821C602.51 378.204 602.776 379.884 602.776 381.864V383.369H585.432V380.188H598.614C598.614 379.07 598.386 378.08 597.932 377.219C597.477 376.348 596.838 375.661 596.014 375.159C595.2 374.657 594.243 374.406 593.145 374.406C591.952 374.406 590.91 374.7 590.02 375.287C589.139 375.865 588.457 376.622 587.974 377.56C587.501 378.488 587.264 379.496 587.264 380.585V383.071C587.264 384.529 587.52 385.77 588.031 386.793C588.552 387.815 589.277 388.597 590.205 389.136C591.133 389.667 592.217 389.932 593.457 389.932C594.262 389.932 594.996 389.818 595.659 389.591C596.322 389.354 596.895 389.004 597.378 388.54C597.861 388.076 598.23 387.503 598.486 386.821L602.506 387.545C602.184 388.729 601.606 389.766 600.773 390.656C599.949 391.537 598.912 392.223 597.662 392.716C596.421 393.199 595.006 393.44 593.415 393.44Z" fill="black"/>
<path d="M453.798 589V585.818L463.642 575.619C464.693 574.511 465.56 573.541 466.241 572.707C466.933 571.865 467.449 571.064 467.79 570.307C468.131 569.549 468.301 568.744 468.301 567.892C468.301 566.926 468.074 566.093 467.619 565.392C467.165 564.682 466.545 564.137 465.759 563.759C464.973 563.37 464.087 563.176 463.102 563.176C462.061 563.176 461.152 563.389 460.375 563.815C459.598 564.241 459.002 564.843 458.585 565.619C458.169 566.396 457.96 567.305 457.96 568.347H453.77C453.77 566.576 454.177 565.027 454.991 563.702C455.806 562.376 456.923 561.348 458.344 560.619C459.764 559.881 461.379 559.511 463.188 559.511C465.015 559.511 466.625 559.876 468.017 560.605C469.419 561.325 470.512 562.31 471.298 563.56C472.084 564.8 472.477 566.202 472.477 567.764C472.477 568.844 472.274 569.9 471.866 570.932C471.469 571.964 470.773 573.115 469.778 574.384C468.784 575.643 467.402 577.172 465.631 578.972L459.849 585.023V585.236H472.946V589H453.798ZM500.62 559.909H504.995V580.534C504.995 582.4 504.626 583.995 503.887 585.321C503.158 586.647 502.13 587.66 500.805 588.361C499.479 589.052 497.926 589.398 496.146 589.398C494.507 589.398 493.035 589.099 491.728 588.503C490.431 587.906 489.403 587.04 488.646 585.903C487.897 584.758 487.523 583.366 487.523 581.727H491.884C491.884 582.532 492.069 583.228 492.438 583.815C492.817 584.402 493.333 584.862 493.987 585.193C494.649 585.515 495.407 585.676 496.259 585.676C497.187 585.676 497.973 585.482 498.617 585.094C499.271 584.696 499.768 584.114 500.109 583.347C500.45 582.58 500.62 581.642 500.62 580.534V559.909ZM524.864 579.952V567.182H529.125V589H524.949V585.222H524.722C524.22 586.386 523.415 587.357 522.307 588.134C521.208 588.901 519.84 589.284 518.202 589.284C516.8 589.284 515.56 588.976 514.48 588.361C513.41 587.736 512.567 586.812 511.952 585.591C511.346 584.369 511.043 582.859 511.043 581.06V567.182H515.29V580.548C515.29 582.035 515.702 583.219 516.526 584.099C517.349 584.98 518.42 585.42 519.736 585.42C520.531 585.42 521.322 585.222 522.108 584.824C522.903 584.426 523.562 583.825 524.082 583.02C524.613 582.215 524.873 581.192 524.864 579.952ZM539.079 559.909V589H534.832V559.909H539.079ZM547.477 597.182C546.843 597.182 546.265 597.13 545.744 597.026C545.223 596.931 544.835 596.827 544.58 596.713L545.602 593.233C546.379 593.441 547.07 593.531 547.676 593.503C548.282 593.474 548.817 593.247 549.281 592.821C549.755 592.395 550.171 591.699 550.531 590.733L551.057 589.284L543.074 567.182H547.619L553.145 584.114H553.372L558.898 567.182H563.457L554.466 591.912C554.049 593.048 553.519 594.009 552.875 594.795C552.231 595.591 551.464 596.188 550.574 596.585C549.684 596.983 548.652 597.182 547.477 597.182Z" fill="black"/>
<path d="M464.835 755.909V785H460.432V760.312H460.261L453.301 764.858V760.653L460.56 755.909H464.835ZM472.094 779.318V775.767L484.665 755.909H487.463V761.136H485.688L476.696 775.369V775.597H493.926V779.318H472.094ZM485.886 785V778.239L485.915 776.619V755.909H490.077V785H485.886ZM521.167 755.909H525.542V776.534C525.542 778.4 525.173 779.995 524.434 781.321C523.705 782.647 522.677 783.66 521.352 784.361C520.026 785.052 518.473 785.398 516.692 785.398C515.054 785.398 513.582 785.099 512.275 784.503C510.978 783.906 509.95 783.04 509.192 781.903C508.444 780.758 508.07 779.366 508.07 777.727H512.431C512.431 778.532 512.616 779.228 512.985 779.815C513.364 780.402 513.88 780.862 514.533 781.193C515.196 781.515 515.954 781.676 516.806 781.676C517.734 781.676 518.52 781.482 519.164 781.094C519.817 780.696 520.315 780.114 520.656 779.347C520.996 778.58 521.167 777.642 521.167 776.534V755.909ZM545.411 775.952V763.182H549.672V785H545.496V781.222H545.268C544.767 782.386 543.962 783.357 542.854 784.134C541.755 784.901 540.387 785.284 538.749 785.284C537.347 785.284 536.107 784.976 535.027 784.361C533.957 783.736 533.114 782.812 532.499 781.591C531.893 780.369 531.589 778.859 531.589 777.06V763.182H535.837V776.548C535.837 778.035 536.249 779.219 537.072 780.099C537.896 780.98 538.966 781.42 540.283 781.42C541.078 781.42 541.869 781.222 542.655 780.824C543.45 780.426 544.108 779.825 544.629 779.02C545.16 778.215 545.42 777.192 545.411 775.952ZM559.626 755.909V785H555.379V755.909H559.626ZM568.024 793.182C567.39 793.182 566.812 793.13 566.291 793.026C565.77 792.931 565.382 792.827 565.126 792.713L566.149 789.233C566.926 789.441 567.617 789.531 568.223 789.503C568.829 789.474 569.364 789.247 569.828 788.821C570.302 788.395 570.718 787.699 571.078 786.733L571.604 785.284L563.621 763.182H568.166L573.692 780.114H573.919L579.445 763.182H584.004L575.013 787.912C574.596 789.048 574.066 790.009 573.422 790.795C572.778 791.591 572.011 792.188 571.121 792.585C570.231 792.983 569.198 793.182 568.024 793.182Z" fill="black"/>
<path d="M453.798 981V977.818L463.642 967.619C464.693 966.511 465.56 965.541 466.241 964.707C466.933 963.865 467.449 963.064 467.79 962.307C468.131 961.549 468.301 960.744 468.301 959.892C468.301 958.926 468.074 958.093 467.619 957.392C467.165 956.682 466.545 956.137 465.759 955.759C464.973 955.37 464.087 955.176 463.102 955.176C462.061 955.176 461.152 955.389 460.375 955.815C459.598 956.241 459.002 956.843 458.585 957.619C458.169 958.396 457.96 959.305 457.96 960.347H453.77C453.77 958.576 454.177 957.027 454.991 955.702C455.806 954.376 456.923 953.348 458.344 952.619C459.764 951.881 461.379 951.511 463.188 951.511C465.015 951.511 466.625 951.876 468.017 952.605C469.419 953.325 470.512 954.31 471.298 955.56C472.084 956.8 472.477 958.202 472.477 959.764C472.477 960.844 472.274 961.9 471.866 962.932C471.469 963.964 470.773 965.115 469.778 966.384C468.784 967.643 467.402 969.172 465.631 970.972L459.849 977.023V977.236H472.946V981H453.798ZM488.159 981.398C486.123 981.398 484.324 981.047 482.761 980.347C481.208 979.646 479.991 978.68 479.111 977.449C478.23 976.218 477.795 974.816 477.804 973.244C477.795 972.013 478.045 970.882 478.557 969.849C479.078 968.808 479.783 967.941 480.673 967.25C481.563 966.549 482.558 966.104 483.656 965.915V965.744C482.207 965.394 481.047 964.617 480.176 963.415C479.305 962.212 478.874 960.83 478.884 959.267C478.874 957.78 479.267 956.455 480.062 955.29C480.867 954.116 481.971 953.192 483.372 952.52C484.774 951.848 486.369 951.511 488.159 951.511C489.93 951.511 491.511 951.852 492.903 952.534C494.305 953.206 495.408 954.13 496.213 955.304C497.018 956.469 497.425 957.79 497.435 959.267C497.425 960.83 496.98 962.212 496.099 963.415C495.219 964.617 494.073 965.394 492.662 965.744V965.915C493.751 966.104 494.731 966.549 495.602 967.25C496.483 967.941 497.184 968.808 497.705 969.849C498.235 970.882 498.505 972.013 498.514 973.244C498.505 974.816 498.06 976.218 497.179 977.449C496.298 978.68 495.077 979.646 493.514 980.347C491.961 981.047 490.176 981.398 488.159 981.398ZM488.159 977.804C489.362 977.804 490.403 977.605 491.284 977.207C492.165 976.8 492.847 976.237 493.33 975.517C493.813 974.788 494.059 973.936 494.068 972.96C494.059 971.947 493.794 971.052 493.273 970.276C492.761 969.499 492.065 968.888 491.185 968.443C490.304 967.998 489.295 967.776 488.159 967.776C487.013 967.776 485.995 967.998 485.105 968.443C484.215 968.888 483.514 969.499 483.003 970.276C482.491 971.052 482.241 971.947 482.25 972.96C482.241 973.936 482.473 974.788 482.946 975.517C483.429 976.237 484.116 976.8 485.006 977.207C485.896 977.605 486.947 977.804 488.159 977.804ZM488.159 964.267C489.125 964.267 489.982 964.073 490.73 963.685C491.478 963.296 492.065 962.757 492.491 962.065C492.927 961.374 493.15 960.564 493.159 959.636C493.15 958.727 492.932 957.932 492.506 957.25C492.089 956.568 491.507 956.043 490.759 955.673C490.01 955.295 489.144 955.105 488.159 955.105C487.155 955.105 486.275 955.295 485.517 955.673C484.769 956.043 484.187 956.568 483.77 957.25C483.353 957.932 483.15 958.727 483.159 959.636C483.15 960.564 483.358 961.374 483.784 962.065C484.21 962.757 484.797 963.296 485.545 963.685C486.303 964.073 487.174 964.267 488.159 964.267ZM525.893 951.909H530.268V972.534C530.268 974.4 529.899 975.995 529.161 977.321C528.431 978.647 527.404 979.66 526.078 980.361C524.752 981.052 523.199 981.398 521.419 981.398C519.781 981.398 518.308 981.099 517.001 980.503C515.704 979.906 514.677 979.04 513.919 977.903C513.171 976.758 512.797 975.366 512.797 973.727H517.158C517.158 974.532 517.342 975.228 517.712 975.815C518.09 976.402 518.607 976.862 519.26 977.193C519.923 977.515 520.68 977.676 521.533 977.676C522.461 977.676 523.247 977.482 523.891 977.094C524.544 976.696 525.041 976.114 525.382 975.347C525.723 974.58 525.893 973.642 525.893 972.534V951.909ZM550.137 971.952V959.182H554.398V981H550.222V977.222H549.995C549.493 978.386 548.688 979.357 547.58 980.134C546.482 980.901 545.113 981.284 543.475 981.284C542.074 981.284 540.833 980.976 539.754 980.361C538.683 979.736 537.841 978.812 537.225 977.591C536.619 976.369 536.316 974.859 536.316 973.06V959.182H540.563V972.548C540.563 974.035 540.975 975.219 541.799 976.099C542.623 976.98 543.693 977.42 545.009 977.42C545.805 977.42 546.595 977.222 547.381 976.824C548.177 976.426 548.835 975.825 549.356 975.02C549.886 974.215 550.147 973.192 550.137 971.952ZM564.352 951.909V981H560.105V951.909H564.352ZM572.751 989.182C572.116 989.182 571.539 989.13 571.018 989.026C570.497 988.931 570.109 988.827 569.853 988.713L570.876 985.233C571.652 985.441 572.344 985.531 572.95 985.503C573.556 985.474 574.091 985.247 574.555 984.821C575.028 984.395 575.445 983.699 575.805 982.733L576.33 981.284L568.347 959.182H572.893L578.418 976.114H578.646L584.171 959.182H588.731L579.739 983.912C579.323 985.048 578.792 986.009 578.148 986.795C577.504 987.591 576.737 988.188 575.847 988.585C574.957 988.983 573.925 989.182 572.751 989.182Z" fill="black"/>
<rect x="703" y="370" width="904" height="16" rx="8" fill="#E5E7EB"/>
<rect x="703" y="370" width="540" height="16" rx="8" fill="#22C55E"/>
<rect x="703" y="570" width="904" height="16" rx="8" fill="#E5E7EB"/>
<rect x="703" y="570" width="346" height="16" rx="8" fill="#22C55E"/>
<rect x="703" y="770" width="904" height="16" rx="8" fill="#E5E7EB"/>
<rect x="703" y="770" width="904" height="16" rx="8" fill="#22C55E"/>
<rect x="703" y="958" width="904" height="16" rx="8" fill="#E5E7EB"/>
<rect x="703" y="958" width="654" height="16" rx="8" fill="#22C55E"/>
</g>
<defs>
<clipPath id="clip0_1_122">
<rect width="1920" height="1080" fill="white"/>
</clipPath>
</defs>
</svg>
