<svg width="1920" height="1080" viewBox="0 0 1920 1080" fill="none" xmlns="http://www.w3.org/2000/svg">
<g clip-path="url(#clip0_1_202)">
<rect width="1920" height="1080" fill="#F3F4F6"/>
<g filter="url(#filter0_d_1_202)">
<rect x="172" y="227" width="1575" height="882" rx="31" fill="white"/>
<rect x="172.5" y="227.5" width="1574" height="881" rx="30.5" stroke="#D3D7E0"/>
</g>
<rect x="255" y="314" width="132" height="128" rx="10" fill="#F3F4F6"/>
<path d="M452.837 352.545V402H443.878V352.545H452.837ZM462.152 402V364.909H470.507V371.212H470.941C471.714 369.087 472.994 367.429 474.781 366.237C476.568 365.03 478.701 364.426 481.18 364.426C483.691 364.426 485.808 365.038 487.531 366.261C489.27 367.469 490.493 369.119 491.201 371.212H491.588C492.409 369.151 493.793 367.509 495.741 366.286C497.705 365.046 500.031 364.426 502.72 364.426C506.133 364.426 508.918 365.505 511.075 367.662C513.232 369.819 514.311 372.966 514.311 377.104V402H505.545V378.456C505.545 376.154 504.933 374.472 503.71 373.409C502.486 372.33 500.989 371.791 499.218 371.791C497.109 371.791 495.459 372.451 494.268 373.771C493.093 375.075 492.505 376.774 492.505 378.866V402H483.933V378.094C483.933 376.178 483.353 374.649 482.194 373.506C481.051 372.363 479.554 371.791 477.703 371.791C476.447 371.791 475.304 372.113 474.274 372.757C473.243 373.385 472.422 374.278 471.811 375.438C471.199 376.58 470.893 377.917 470.893 379.446V402H462.152ZM523.179 415.909V364.909H531.776V371.043H532.283C532.733 370.141 533.369 369.183 534.19 368.169C535.011 367.139 536.122 366.261 537.523 365.537C538.923 364.796 540.71 364.426 542.884 364.426C545.749 364.426 548.333 365.159 550.635 366.624C552.953 368.072 554.788 370.222 556.141 373.071C557.509 375.904 558.193 379.382 558.193 383.503C558.193 387.576 557.525 391.037 556.189 393.886C554.853 396.736 553.034 398.909 550.732 400.406C548.429 401.903 545.821 402.652 542.908 402.652C540.783 402.652 539.02 402.298 537.619 401.589C536.219 400.881 535.092 400.028 534.239 399.03C533.402 398.016 532.75 397.058 532.283 396.156H531.92V415.909H523.179ZM531.751 383.455C531.751 385.853 532.089 387.954 532.766 389.757C533.458 391.56 534.448 392.969 535.736 393.983C537.04 394.981 538.617 395.48 540.469 395.48C542.401 395.48 544.018 394.965 545.322 393.935C546.626 392.888 547.608 391.464 548.268 389.661C548.945 387.841 549.283 385.773 549.283 383.455C549.283 381.152 548.953 379.108 548.293 377.321C547.633 375.534 546.651 374.134 545.347 373.119C544.043 372.105 542.417 371.598 540.469 371.598C538.601 371.598 537.016 372.089 535.712 373.071C534.408 374.053 533.418 375.429 532.741 377.2C532.081 378.971 531.751 381.056 531.751 383.455ZM581.858 402.724C578.236 402.724 575.097 401.928 572.44 400.334C569.784 398.74 567.723 396.51 566.259 393.645C564.81 390.779 564.085 387.431 564.085 383.599C564.085 379.768 564.81 376.411 566.259 373.53C567.723 370.648 569.784 368.411 572.44 366.817C575.097 365.223 578.236 364.426 581.858 364.426C585.48 364.426 588.619 365.223 591.276 366.817C593.932 368.411 595.984 370.648 597.433 373.53C598.898 376.411 599.631 379.768 599.631 383.599C599.631 387.431 598.898 390.779 597.433 393.645C595.984 396.51 593.932 398.74 591.276 400.334C588.619 401.928 585.48 402.724 581.858 402.724ZM581.906 395.722C583.87 395.722 585.512 395.182 586.832 394.104C588.152 393.009 589.134 391.544 589.778 389.709C590.438 387.874 590.768 385.829 590.768 383.575C590.768 381.305 590.438 379.253 589.778 377.418C589.134 375.566 588.152 374.093 586.832 372.999C585.512 371.904 583.87 371.357 581.906 371.357C579.894 371.357 578.22 371.904 576.884 372.999C575.563 374.093 574.573 375.566 573.913 377.418C573.269 379.253 572.947 381.305 572.947 383.575C572.947 385.829 573.269 387.874 573.913 389.709C574.573 391.544 575.563 393.009 576.884 394.104C578.22 395.182 579.894 395.722 581.906 395.722ZM607.05 402V364.909H615.526V371.091H615.912C616.588 368.95 617.748 367.3 619.39 366.141C621.048 364.965 622.939 364.378 625.064 364.378C625.547 364.378 626.087 364.402 626.682 364.45C627.294 364.482 627.801 364.539 628.203 364.619V372.661C627.833 372.532 627.246 372.419 626.441 372.322C625.652 372.21 624.887 372.153 624.147 372.153C622.553 372.153 621.12 372.5 619.848 373.192C618.593 373.868 617.603 374.81 616.878 376.017C616.154 377.224 615.792 378.617 615.792 380.195V402H607.05ZM654.525 364.909V371.67H633.202V364.909H654.525ZM638.466 356.023H647.208V390.844C647.208 392.019 647.385 392.92 647.739 393.548C648.109 394.16 648.592 394.579 649.188 394.804C649.784 395.029 650.444 395.142 651.168 395.142C651.715 395.142 652.214 395.102 652.665 395.021C653.132 394.941 653.486 394.868 653.728 394.804L655.201 401.638C654.734 401.799 654.066 401.976 653.196 402.169C652.343 402.362 651.297 402.475 650.057 402.507C647.868 402.571 645.896 402.241 644.141 401.517C642.386 400.777 640.994 399.634 639.963 398.088C638.949 396.543 638.45 394.611 638.466 392.293V356.023ZM672.509 402.749C670.158 402.749 668.041 402.33 666.158 401.493C664.29 400.64 662.809 399.384 661.714 397.726C660.636 396.068 660.097 394.023 660.097 391.592C660.097 389.5 660.483 387.769 661.256 386.401C662.028 385.032 663.083 383.938 664.419 383.116C665.755 382.295 667.26 381.676 668.935 381.257C670.625 380.822 672.372 380.509 674.175 380.315C676.348 380.09 678.111 379.889 679.463 379.712C680.815 379.518 681.797 379.229 682.409 378.842C683.037 378.44 683.351 377.82 683.351 376.983V376.838C683.351 375.019 682.812 373.61 681.733 372.612C680.654 371.614 679.101 371.115 677.072 371.115C674.931 371.115 673.233 371.582 671.977 372.516C670.738 373.449 669.901 374.552 669.466 375.824L661.304 374.665C661.948 372.411 663.01 370.527 664.491 369.014C665.973 367.485 667.784 366.342 669.925 365.585C672.066 364.812 674.432 364.426 677.024 364.426C678.811 364.426 680.59 364.635 682.361 365.054C684.132 365.473 685.75 366.165 687.214 367.131C688.679 368.08 689.855 369.376 690.74 371.018C691.642 372.661 692.092 374.713 692.092 377.176V402H683.689V396.905H683.399C682.868 397.935 682.119 398.901 681.153 399.803C680.204 400.688 679.004 401.404 677.555 401.952C676.123 402.483 674.44 402.749 672.509 402.749ZM674.778 396.325C676.533 396.325 678.054 395.979 679.342 395.287C680.63 394.579 681.62 393.645 682.312 392.486C683.021 391.327 683.375 390.063 683.375 388.695V384.324C683.101 384.549 682.634 384.759 681.974 384.952C681.33 385.145 680.606 385.314 679.801 385.459C678.996 385.604 678.199 385.732 677.411 385.845C676.622 385.958 675.938 386.054 675.358 386.135C674.054 386.312 672.887 386.602 671.857 387.004C670.826 387.407 670.013 387.97 669.418 388.695C668.822 389.403 668.524 390.321 668.524 391.447C668.524 393.057 669.112 394.273 670.287 395.094C671.462 395.915 672.959 396.325 674.778 396.325ZM709.624 380.267V402H700.882V364.909H709.237V371.212H709.672C710.525 369.135 711.885 367.485 713.753 366.261C715.636 365.038 717.963 364.426 720.732 364.426C723.291 364.426 725.521 364.973 727.42 366.068C729.336 367.163 730.817 368.749 731.864 370.825C732.926 372.902 733.449 375.421 733.433 378.384V402H724.692V379.736C724.692 377.257 724.048 375.317 722.76 373.916C721.488 372.516 719.725 371.815 717.472 371.815C715.942 371.815 714.582 372.153 713.391 372.83C712.215 373.49 711.29 374.447 710.614 375.703C709.954 376.959 709.624 378.48 709.624 380.267ZM760.841 364.909V371.67H739.518V364.909H760.841ZM744.783 356.023H753.524V390.844C753.524 392.019 753.701 392.92 754.055 393.548C754.426 394.16 754.909 394.579 755.504 394.804C756.1 395.029 756.76 395.142 757.484 395.142C758.032 395.142 758.531 395.102 758.982 395.021C759.448 394.941 759.803 394.868 760.044 394.804L761.517 401.638C761.05 401.799 760.382 401.976 759.513 402.169C758.66 402.362 757.613 402.475 756.374 402.507C754.184 402.571 752.212 402.241 750.457 401.517C748.703 400.777 747.31 399.634 746.28 398.088C745.266 396.543 744.767 394.611 744.783 392.293V356.023ZM785.405 352.545H796.368L811.05 388.381H811.63L826.311 352.545H837.275V402H828.678V368.024H828.219L814.551 401.855H808.128L794.461 367.952H794.002V402H785.405V352.545ZM863.064 402.724C859.346 402.724 856.134 401.952 853.429 400.406C850.741 398.845 848.672 396.639 847.223 393.79C845.775 390.924 845.05 387.552 845.05 383.672C845.05 379.857 845.775 376.508 847.223 373.626C848.688 370.729 850.733 368.475 853.357 366.865C855.981 365.239 859.064 364.426 862.605 364.426C864.891 364.426 867.049 364.796 869.077 365.537C871.122 366.261 872.925 367.388 874.486 368.918C876.064 370.447 877.303 372.395 878.205 374.761C879.106 377.112 879.557 379.913 879.557 383.165V385.845H849.155V379.953H871.178C871.162 378.279 870.8 376.79 870.091 375.486C869.383 374.166 868.393 373.127 867.121 372.371C865.865 371.614 864.4 371.236 862.726 371.236C860.939 371.236 859.37 371.67 858.017 372.54C856.665 373.393 855.611 374.52 854.854 375.92C854.114 377.305 853.735 378.826 853.719 380.484V385.628C853.719 387.785 854.114 389.636 854.902 391.182C855.691 392.711 856.794 393.886 858.211 394.707C859.627 395.512 861.285 395.915 863.185 395.915C864.457 395.915 865.608 395.738 866.638 395.384C867.668 395.013 868.562 394.474 869.319 393.766C870.075 393.057 870.647 392.18 871.033 391.134L879.195 392.051C878.68 394.208 877.698 396.092 876.249 397.702C874.816 399.295 872.981 400.535 870.743 401.42C868.506 402.29 865.946 402.724 863.064 402.724ZM903.373 402.724C899.654 402.724 896.442 401.952 893.738 400.406C891.049 398.845 888.981 396.639 887.532 393.79C886.083 390.924 885.359 387.552 885.359 383.672C885.359 379.857 886.083 376.508 887.532 373.626C888.997 370.729 891.041 368.475 893.665 366.865C896.29 365.239 899.372 364.426 902.914 364.426C905.2 364.426 907.357 364.796 909.386 365.537C911.43 366.261 913.233 367.388 914.795 368.918C916.372 370.447 917.612 372.395 918.513 374.761C919.415 377.112 919.866 379.913 919.866 383.165V385.845H889.464V379.953H911.487C911.47 378.279 911.108 376.79 910.4 375.486C909.692 374.166 908.701 373.127 907.43 372.371C906.174 371.614 904.709 371.236 903.035 371.236C901.248 371.236 899.678 371.67 898.326 372.54C896.974 373.393 895.919 374.52 895.163 375.92C894.422 377.305 894.044 378.826 894.028 380.484V385.628C894.028 387.785 894.422 389.636 895.211 391.182C896 392.711 897.103 393.886 898.519 394.707C899.936 395.512 901.594 395.915 903.494 395.915C904.765 395.915 905.916 395.738 906.947 395.384C907.977 395.013 908.871 394.474 909.627 393.766C910.384 393.057 910.955 392.18 911.342 391.134L919.504 392.051C918.988 394.208 918.006 396.092 916.558 397.702C915.125 399.295 913.29 400.535 911.052 401.42C908.814 402.29 906.254 402.724 903.373 402.724ZM945.782 364.909V371.67H924.46V364.909H945.782ZM929.724 356.023H938.466V390.844C938.466 392.019 938.643 392.92 938.997 393.548C939.367 394.16 939.85 394.579 940.446 394.804C941.041 395.029 941.701 395.142 942.426 395.142C942.973 395.142 943.472 395.102 943.923 395.021C944.39 394.941 944.744 394.868 944.985 394.804L946.458 401.638C945.992 401.799 945.324 401.976 944.454 402.169C943.601 402.362 942.555 402.475 941.315 402.507C939.126 402.571 937.154 402.241 935.399 401.517C933.644 400.777 932.252 399.634 931.221 398.088C930.207 396.543 929.708 394.611 929.724 392.293V356.023ZM953.093 402V364.909H961.835V402H953.093ZM957.488 359.645C956.103 359.645 954.912 359.186 953.914 358.268C952.916 357.335 952.417 356.216 952.417 354.912C952.417 353.592 952.916 352.473 953.914 351.555C954.912 350.622 956.103 350.155 957.488 350.155C958.888 350.155 960.08 350.622 961.062 351.555C962.06 352.473 962.559 353.592 962.559 354.912C962.559 356.216 962.06 357.335 961.062 358.268C960.08 359.186 958.888 359.645 957.488 359.645ZM979.565 380.267V402H970.824V364.909H979.179V371.212H979.613C980.467 369.135 981.827 367.485 983.694 366.261C985.578 365.038 987.904 364.426 990.673 364.426C993.233 364.426 995.462 364.973 997.362 366.068C999.278 367.163 1000.76 368.749 1001.81 370.825C1002.87 372.902 1003.39 375.421 1003.37 378.384V402H994.633V379.736C994.633 377.257 993.989 375.317 992.701 373.916C991.43 372.516 989.667 371.815 987.413 371.815C985.884 371.815 984.523 372.153 983.332 372.83C982.157 373.49 981.231 374.447 980.555 375.703C979.895 376.959 979.565 378.48 979.565 380.267ZM1028.39 416.682C1025.25 416.682 1022.56 416.255 1020.3 415.402C1018.05 414.565 1016.24 413.438 1014.87 412.021C1013.5 410.605 1012.55 409.035 1012.02 407.312L1019.89 405.405C1020.25 406.129 1020.76 406.846 1021.44 407.554C1022.11 408.278 1023.02 408.874 1024.17 409.341C1025.32 409.824 1026.78 410.065 1028.54 410.065C1031.02 410.065 1033.07 409.462 1034.69 408.254C1036.32 407.063 1037.13 405.099 1037.13 402.362V395.335H1036.7C1036.25 396.237 1035.59 397.162 1034.72 398.112C1033.87 399.062 1032.73 399.859 1031.31 400.503C1029.91 401.147 1028.15 401.469 1026.03 401.469C1023.18 401.469 1020.59 400.801 1018.27 399.464C1015.97 398.112 1014.14 396.1 1012.77 393.428C1011.42 390.739 1010.74 387.375 1010.74 383.334C1010.74 379.261 1011.42 375.824 1012.77 373.023C1014.14 370.205 1015.98 368.072 1018.3 366.624C1020.62 365.159 1023.2 364.426 1026.05 364.426C1028.22 364.426 1030.01 364.796 1031.41 365.537C1032.83 366.261 1033.95 367.139 1034.79 368.169C1035.63 369.183 1036.26 370.141 1036.7 371.043H1037.18V364.909H1045.8V402.604C1045.8 405.775 1045.05 408.399 1043.53 410.476C1042.02 412.553 1039.95 414.106 1037.33 415.136C1034.7 416.167 1031.72 416.682 1028.39 416.682ZM1028.46 394.611C1030.32 394.611 1031.89 394.16 1033.2 393.259C1034.5 392.357 1035.49 391.061 1036.17 389.371C1036.84 387.68 1037.18 385.652 1037.18 383.286C1037.18 380.951 1036.84 378.907 1036.17 377.152C1035.51 375.397 1034.53 374.037 1033.22 373.071C1031.93 372.089 1030.35 371.598 1028.46 371.598C1026.52 371.598 1024.89 372.105 1023.59 373.119C1022.28 374.134 1021.3 375.526 1020.64 377.297C1019.98 379.052 1019.65 381.048 1019.65 383.286C1019.65 385.555 1019.98 387.544 1020.64 389.25C1021.32 390.94 1022.31 392.26 1023.61 393.21C1024.93 394.144 1026.55 394.611 1028.46 394.611Z" fill="#1F2937"/>
<rect x="255" y="500" width="1316" height="40" rx="20" fill="#F3F4F6"/>
<rect x="255" y="590" width="1316" height="40" rx="20" fill="#F3F4F6"/>
<rect x="255" y="680" width="752" height="40" rx="20" fill="#F3F4F6"/>
<circle cx="311" cy="950" r="56" fill="#F3F4F6"/>
<circle cx="439" cy="950" r="56" fill="#F3F4F6"/>
<circle cx="567" cy="950" r="56" fill="#F3F4F6"/>
<circle cx="695" cy="950" r="56" fill="#F3F4F6"/>
<path d="M269.798 846V817.636H280.434C282.613 817.636 284.441 818.043 285.918 818.855C287.405 819.668 288.527 820.785 289.284 822.207C290.05 823.619 290.433 825.226 290.433 827.026C290.433 828.845 290.05 830.461 289.284 831.874C288.517 833.286 287.386 834.399 285.891 835.211C284.395 836.015 282.553 836.416 280.365 836.416H273.315V832.192H279.672C280.946 832.192 281.99 831.971 282.802 831.527C283.615 831.084 284.215 830.475 284.603 829.699C285 828.924 285.198 828.033 285.198 827.026C285.198 826.02 285 825.134 284.603 824.367C284.215 823.601 283.61 823.005 282.788 822.581C281.976 822.147 280.928 821.93 279.645 821.93H274.936V846H269.798ZM300.415 846.429C299.067 846.429 297.853 846.189 296.773 845.709C295.702 845.22 294.852 844.5 294.225 843.549C293.606 842.598 293.297 841.425 293.297 840.031C293.297 838.831 293.518 837.838 293.961 837.053C294.405 836.268 295.009 835.641 295.776 835.17C296.542 834.699 297.405 834.343 298.366 834.103C299.335 833.854 300.337 833.674 301.371 833.563C302.617 833.434 303.628 833.319 304.404 833.217C305.179 833.106 305.743 832.94 306.093 832.718C306.454 832.488 306.634 832.132 306.634 831.652V831.569C306.634 830.526 306.324 829.718 305.706 829.145C305.087 828.573 304.196 828.287 303.033 828.287C301.805 828.287 300.831 828.554 300.111 829.09C299.4 829.625 298.919 830.258 298.67 830.987L293.989 830.322C294.358 829.03 294.968 827.95 295.817 827.082C296.667 826.205 297.705 825.549 298.933 825.115C300.161 824.672 301.519 824.45 303.005 824.45C304.03 824.45 305.05 824.57 306.066 824.81C307.081 825.05 308.009 825.447 308.85 826.001C309.69 826.546 310.364 827.289 310.872 828.231C311.389 829.173 311.647 830.35 311.647 831.763V846H306.828V843.078H306.661C306.357 843.669 305.927 844.223 305.373 844.74C304.829 845.248 304.141 845.658 303.31 845.972C302.488 846.277 301.523 846.429 300.415 846.429ZM301.717 842.745C302.723 842.745 303.596 842.547 304.335 842.15C305.073 841.744 305.641 841.208 306.038 840.543C306.444 839.879 306.647 839.154 306.647 838.369V835.862C306.491 835.991 306.223 836.112 305.844 836.222C305.475 836.333 305.059 836.43 304.598 836.513C304.136 836.596 303.679 836.67 303.227 836.735C302.774 836.799 302.382 836.855 302.049 836.901C301.302 837.002 300.632 837.169 300.041 837.4C299.45 837.63 298.984 837.953 298.642 838.369C298.301 838.775 298.13 839.301 298.13 839.948C298.13 840.871 298.467 841.568 299.141 842.039C299.815 842.51 300.674 842.745 301.717 842.745ZM316.688 846V824.727H321.549V828.273H321.771C322.159 827.045 322.824 826.098 323.765 825.434C324.716 824.76 325.801 824.423 327.02 824.423C327.297 824.423 327.606 824.436 327.948 824.464C328.299 824.483 328.59 824.515 328.82 824.561V829.173C328.608 829.099 328.271 829.034 327.809 828.979C327.357 828.914 326.918 828.882 326.494 828.882C325.58 828.882 324.758 829.081 324.028 829.478C323.308 829.865 322.741 830.406 322.325 831.098C321.91 831.79 321.702 832.589 321.702 833.494V846H316.688ZM343.916 824.727V828.605H331.687V824.727H343.916ZM334.706 819.631H339.72V839.602C339.72 840.276 339.821 840.793 340.025 841.153C340.237 841.504 340.514 841.744 340.856 841.873C341.197 842.002 341.576 842.067 341.991 842.067C342.305 842.067 342.591 842.044 342.85 841.998C343.118 841.951 343.321 841.91 343.459 841.873L344.304 845.792C344.036 845.885 343.653 845.986 343.155 846.097C342.665 846.208 342.065 846.272 341.354 846.291C340.098 846.328 338.967 846.138 337.961 845.723C336.955 845.298 336.156 844.643 335.565 843.756C334.983 842.87 334.697 841.762 334.706 840.433V819.631ZM348.109 846V824.727H353.123V846H348.109ZM350.63 821.708C349.836 821.708 349.153 821.445 348.58 820.919C348.008 820.383 347.721 819.741 347.721 818.994C347.721 818.237 348.008 817.595 348.58 817.069C349.153 816.533 349.836 816.265 350.63 816.265C351.433 816.265 352.116 816.533 352.68 817.069C353.252 817.595 353.538 818.237 353.538 818.994C353.538 819.741 353.252 820.383 352.68 820.919C352.116 821.445 351.433 821.708 350.63 821.708ZM367.557 846.415C365.434 846.415 363.61 845.949 362.087 845.017C360.573 844.084 359.405 842.796 358.583 841.153C357.77 839.5 357.364 837.598 357.364 835.447C357.364 833.286 357.78 831.38 358.611 829.727C359.441 828.065 360.614 826.772 362.128 825.849C363.652 824.917 365.452 824.45 367.53 824.45C369.256 824.45 370.784 824.769 372.114 825.406C373.453 826.034 374.519 826.925 375.313 828.079C376.107 829.224 376.559 830.562 376.67 832.095H371.878C371.684 831.07 371.223 830.216 370.493 829.533C369.773 828.841 368.808 828.494 367.599 828.494C366.574 828.494 365.674 828.771 364.898 829.325C364.123 829.87 363.518 830.655 363.084 831.68C362.659 832.705 362.447 833.933 362.447 835.364C362.447 836.813 362.659 838.06 363.084 839.103C363.509 840.137 364.104 840.936 364.87 841.499C365.646 842.053 366.555 842.33 367.599 842.33C368.337 842.33 368.998 842.191 369.579 841.914C370.17 841.628 370.664 841.217 371.061 840.682C371.458 840.146 371.731 839.495 371.878 838.729H376.67C376.55 840.234 376.107 841.568 375.341 842.732C374.574 843.886 373.531 844.79 372.211 845.446C370.89 846.092 369.339 846.415 367.557 846.415ZM380.787 846V824.727H385.8V846H380.787ZM383.308 821.708C382.513 821.708 381.83 821.445 381.258 820.919C380.685 820.383 380.399 819.741 380.399 818.994C380.399 818.237 380.685 817.595 381.258 817.069C381.83 816.533 382.513 816.265 383.308 816.265C384.111 816.265 384.794 816.533 385.357 817.069C385.93 817.595 386.216 818.237 386.216 818.994C386.216 819.741 385.93 820.383 385.357 820.919C384.794 821.445 384.111 821.708 383.308 821.708ZM390.956 853.977V824.727H395.886V828.245H396.177C396.436 827.728 396.8 827.179 397.271 826.597C397.742 826.006 398.379 825.503 399.182 825.087C399.986 824.663 401.011 824.45 402.257 824.45C403.9 824.45 405.382 824.87 406.703 825.711C408.032 826.542 409.085 827.774 409.86 829.408C410.645 831.033 411.038 833.028 411.038 835.391C411.038 837.727 410.654 839.712 409.888 841.347C409.122 842.981 408.078 844.227 406.758 845.086C405.438 845.945 403.942 846.374 402.271 846.374C401.052 846.374 400.041 846.171 399.238 845.765C398.435 845.358 397.788 844.869 397.299 844.297C396.819 843.715 396.445 843.165 396.177 842.648H395.969V853.977H390.956ZM395.872 835.364C395.872 836.739 396.066 837.944 396.454 838.978C396.851 840.012 397.419 840.82 398.158 841.402C398.905 841.974 399.81 842.261 400.872 842.261C401.98 842.261 402.908 841.965 403.656 841.374C404.404 840.774 404.967 839.957 405.345 838.923C405.733 837.88 405.927 836.693 405.927 835.364C405.927 834.043 405.738 832.871 405.359 831.846C404.981 830.821 404.418 830.018 403.67 829.436C402.922 828.854 401.989 828.564 400.872 828.564C399.801 828.564 398.892 828.845 398.144 829.408C397.396 829.972 396.828 830.761 396.44 831.777C396.062 832.792 395.872 833.988 395.872 835.364ZM421.452 846.429C420.104 846.429 418.89 846.189 417.81 845.709C416.739 845.22 415.889 844.5 415.262 843.549C414.643 842.598 414.334 841.425 414.334 840.031C414.334 838.831 414.555 837.838 414.998 837.053C415.442 836.268 416.046 835.641 416.813 835.17C417.579 834.699 418.442 834.343 419.403 834.103C420.372 833.854 421.374 833.674 422.408 833.563C423.654 833.434 424.665 833.319 425.441 833.217C426.217 833.106 426.78 832.94 427.131 832.718C427.491 832.488 427.671 832.132 427.671 831.652V831.569C427.671 830.526 427.361 829.718 426.743 829.145C426.124 828.573 425.233 828.287 424.07 828.287C422.842 828.287 421.868 828.554 421.148 829.09C420.437 829.625 419.957 830.258 419.707 830.987L415.026 830.322C415.396 829.03 416.005 827.95 416.854 827.082C417.704 826.205 418.742 825.549 419.97 825.115C421.198 824.672 422.556 824.45 424.042 824.45C425.067 824.45 426.087 824.57 427.103 824.81C428.119 825.05 429.046 825.447 429.887 826.001C430.727 826.546 431.401 827.289 431.909 828.231C432.426 829.173 432.684 830.35 432.684 831.763V846H427.865V843.078H427.698C427.394 843.669 426.964 844.223 426.41 844.74C425.866 845.248 425.178 845.658 424.347 845.972C423.525 846.277 422.56 846.429 421.452 846.429ZM422.754 842.745C423.761 842.745 424.633 842.547 425.372 842.15C426.11 841.744 426.678 841.208 427.075 840.543C427.481 839.879 427.685 839.154 427.685 838.369V835.862C427.528 835.991 427.26 836.112 426.881 836.222C426.512 836.333 426.097 836.43 425.635 836.513C425.173 836.596 424.716 836.67 424.264 836.735C423.811 836.799 423.419 836.855 423.087 836.901C422.339 837.002 421.669 837.169 421.078 837.4C420.487 837.63 420.021 837.953 419.68 838.369C419.338 838.775 419.167 839.301 419.167 839.948C419.167 840.871 419.504 841.568 420.178 842.039C420.852 842.51 421.711 842.745 422.754 842.745ZM442.739 833.536V846H437.725V824.727H442.517V828.342H442.767C443.256 827.151 444.036 826.205 445.107 825.503C446.187 824.801 447.522 824.45 449.11 824.45C450.578 824.45 451.856 824.764 452.946 825.392C454.045 826.02 454.894 826.929 455.494 828.12C456.104 829.311 456.404 830.756 456.394 832.455V846H451.381V833.231C451.381 831.809 451.012 830.696 450.273 829.893C449.544 829.09 448.533 828.688 447.24 828.688C446.363 828.688 445.583 828.882 444.899 829.27C444.225 829.648 443.695 830.198 443.307 830.918C442.928 831.638 442.739 832.511 442.739 833.536ZM472.114 824.727V828.605H459.884V824.727H472.114ZM462.904 819.631H467.917V839.602C467.917 840.276 468.019 840.793 468.222 841.153C468.434 841.504 468.711 841.744 469.053 841.873C469.394 842.002 469.773 842.067 470.188 842.067C470.502 842.067 470.789 842.044 471.047 841.998C471.315 841.951 471.518 841.91 471.657 841.873L472.501 845.792C472.234 845.885 471.85 845.986 471.352 846.097C470.862 846.208 470.262 846.272 469.551 846.291C468.296 846.328 467.165 846.138 466.158 845.723C465.152 845.298 464.353 844.643 463.762 843.756C463.181 842.87 462.894 841.762 462.904 840.433V819.631ZM492.815 830.35L488.245 830.849C488.115 830.387 487.889 829.953 487.566 829.547C487.252 829.141 486.827 828.813 486.292 828.564C485.756 828.314 485.101 828.19 484.325 828.19C483.282 828.19 482.405 828.416 481.694 828.868C480.992 829.321 480.646 829.907 480.655 830.627C480.646 831.246 480.872 831.749 481.334 832.137C481.805 832.525 482.58 832.843 483.661 833.092L487.289 833.868C489.302 834.302 490.798 834.99 491.776 835.931C492.764 836.873 493.263 838.106 493.272 839.629C493.263 840.968 492.87 842.15 492.095 843.175C491.328 844.19 490.262 844.984 488.896 845.557C487.529 846.129 485.96 846.415 484.187 846.415C481.583 846.415 479.487 845.871 477.899 844.781C476.311 843.683 475.365 842.154 475.06 840.197L479.949 839.726C480.17 840.686 480.641 841.411 481.362 841.901C482.082 842.39 483.019 842.635 484.173 842.635C485.364 842.635 486.32 842.39 487.04 841.901C487.769 841.411 488.134 840.806 488.134 840.086C488.134 839.477 487.898 838.974 487.428 838.577C486.966 838.18 486.246 837.875 485.267 837.663L481.638 836.901C479.598 836.476 478.088 835.761 477.11 834.754C476.131 833.739 475.646 832.455 475.656 830.904C475.646 829.593 476.002 828.457 476.722 827.497C477.451 826.528 478.462 825.78 479.755 825.254C481.057 824.718 482.557 824.45 484.256 824.45C486.749 824.45 488.711 824.981 490.142 826.043C491.582 827.105 492.473 828.54 492.815 830.35Z" fill="black"/>
<rect x="1243" y="336" width="152" height="83" rx="20" fill="#22C55E"/>
<rect x="1419" y="336" width="152" height="83" rx="20" fill="#F3F4F6"/>
</g>
<defs>
<filter id="filter0_d_1_202" x="168" y="227" width="1583" height="890" filterUnits="userSpaceOnUse" color-interpolation-filters="sRGB">
<feFlood flood-opacity="0" result="BackgroundImageFix"/>
<feColorMatrix in="SourceAlpha" type="matrix" values="0 0 0 0 0 0 0 0 0 0 0 0 0 0 0 0 0 0 127 0" result="hardAlpha"/>
<feOffset dy="4"/>
<feGaussianBlur stdDeviation="2"/>
<feComposite in2="hardAlpha" operator="out"/>
<feColorMatrix type="matrix" values="0 0 0 0 0 0 0 0 0 0 0 0 0 0 0 0 0 0 0.25 0"/>
<feBlend mode="normal" in2="BackgroundImageFix" result="effect1_dropShadow_1_202"/>
<feBlend mode="normal" in="SourceGraphic" in2="effect1_dropShadow_1_202" result="shape"/>
</filter>
<clipPath id="clip0_1_202">
<rect width="1920" height="1080" fill="white"/>
</clipPath>
</defs>
</svg>
