<svg xmlns="http://www.w3.org/2000/svg" viewBox="0 0 640 400" fill="none" role="img">
  <rect width="640" height="400" fill="#fafafa"/>
  <rect x="120" y="84" width="184" height="232" rx="16" fill="#ffffff" stroke="#e4e4e7"/>
  <rect x="148" y="112" width="72" height="12" rx="6" fill="#d4d4d8"/>
  <rect x="148" y="140" width="104" height="8" rx="4" fill="#e4e4e7"/>
  <rect x="148" y="160" width="88" height="8" rx="4" fill="#e4e4e7"/>
  <rect x="148" y="180" width="112" height="8" rx="4" fill="#e4e4e7"/>
  <rect x="148" y="252" width="128" height="32" rx="8" fill="#ffffff" stroke="#e4e4e7"/>
  <rect x="188" y="264" width="48" height="8" rx="4" fill="#d4d4d8"/>
  <rect x="336" y="84" width="184" height="232" rx="16" fill="#ffffff" stroke="#4f46e5"/>
  <rect x="364" y="112" width="72" height="12" rx="6" fill="#d4d4d8"/>
  <rect x="452" y="108" width="48" height="20" rx="10" fill="#eef2ff"/>
  <rect x="462" y="114" width="28" height="8" rx="4" fill="#4f46e5"/>
  <circle cx="370" cy="148" r="5" fill="#4f46e5"/>
  <rect x="384" y="144" width="104" height="8" rx="4" fill="#e4e4e7"/>
  <circle cx="370" cy="176" r="5" fill="#4f46e5"/>
  <rect x="384" y="172" width="88" height="8" rx="4" fill="#e4e4e7"/>
  <circle cx="370" cy="204" r="5" fill="#4f46e5"/>
  <rect x="384" y="200" width="112" height="8" rx="4" fill="#e4e4e7"/>
  <rect x="364" y="252" width="128" height="32" rx="8" fill="#4f46e5"/>
  <rect x="404" y="264" width="48" height="8" rx="4" fill="#ffffff"/>
</svg>
