<svg width="30" height="30" viewBox="0 0 30 30" fill="none" xmlns="http://www.w3.org/2000/svg">
<rect width="30" height="30" rx="7" fill="#6366F1"/>
<path d="M11.4201 15.7973C11.2842 15.9332 11.2843 16.1536 11.4203 16.2894L13.9147 18.7792C14.0506 18.9148 14.2707 18.9147 14.4064 18.779L18.9829 14.2025C19.1188 14.0667 19.1188 13.8464 18.9829 13.7106L18.491 13.2187C18.3552 13.0828 18.135 13.0828 17.9992 13.2187L14.1579 17.0599L12.4037 15.3056C12.2678 15.1698 12.0476 15.1698 11.9118 15.3056L11.4201 15.7973Z" fill="white"/>
<path fill-rule="evenodd" clip-rule="evenodd" d="M7 8.3913C7 7.62291 7.62292 7 8.3913 7H21.6087C22.3771 7 23 7.62291 23 8.3913V21.6087C23 22.3771 22.3771 23 21.6087 23H8.3913C7.62292 23 7 22.3771 7 21.6087V8.3913ZM8.45453 10.6364H21.5455V21.5455H8.45453V10.6364ZM18.8261 9.78261C19.2103 9.78261 19.5217 9.47116 19.5217 9.08696C19.5217 8.70275 19.2103 8.3913 18.8261 8.3913C18.4419 8.3913 18.1304 8.70275 18.1304 9.08696C18.1304 9.47116 18.4419 9.78261 18.8261 9.78261ZM11.1739 9.08696C11.1739 9.47116 10.8625 9.78261 10.4783 9.78261C10.094 9.78261 9.78261 9.47116 9.78261 9.08696C9.78261 8.70275 10.094 8.3913 10.4783 8.3913C10.8625 8.3913 11.1739 8.70275 11.1739 9.08696Z" fill="white"/>
</svg>
